%TF.GenerationSoftware,KiCad,Pcbnew,5.1.6-c6e7f7d~87~ubuntu18.04.1*%
%TF.CreationDate,2020-09-19T20:19:40+02:00*%
%TF.ProjectId,rgbpmod,72676270-6d6f-4642-9e6b-696361645f70,rev?*%
%TF.SameCoordinates,Original*%
%TF.FileFunction,Paste,Top*%
%TF.FilePolarity,Positive*%
%FSLAX46Y46*%
G04 Gerber Fmt 4.6, Leading zero omitted, Abs format (unit mm)*
G04 Created by KiCad (PCBNEW 5.1.6-c6e7f7d~87~ubuntu18.04.1) date 2020-09-19 20:19:40*
%MOMM*%
%LPD*%
G01*
G04 APERTURE LIST*
%ADD10R,0.450000X0.450000*%
G04 APERTURE END LIST*
%TO.C,C1*%
G36*
G01*
X134435000Y-79831250D02*
X134435000Y-78918750D01*
G75*
G02*
X134678750Y-78675000I243750J0D01*
G01*
X135166250Y-78675000D01*
G75*
G02*
X135410000Y-78918750I0J-243750D01*
G01*
X135410000Y-79831250D01*
G75*
G02*
X135166250Y-80075000I-243750J0D01*
G01*
X134678750Y-80075000D01*
G75*
G02*
X134435000Y-79831250I0J243750D01*
G01*
G37*
G36*
G01*
X132560000Y-79831250D02*
X132560000Y-78918750D01*
G75*
G02*
X132803750Y-78675000I243750J0D01*
G01*
X133291250Y-78675000D01*
G75*
G02*
X133535000Y-78918750I0J-243750D01*
G01*
X133535000Y-79831250D01*
G75*
G02*
X133291250Y-80075000I-243750J0D01*
G01*
X132803750Y-80075000D01*
G75*
G02*
X132560000Y-79831250I0J243750D01*
G01*
G37*
%TD*%
%TO.C,C2*%
G36*
G01*
X137640000Y-79831250D02*
X137640000Y-78918750D01*
G75*
G02*
X137883750Y-78675000I243750J0D01*
G01*
X138371250Y-78675000D01*
G75*
G02*
X138615000Y-78918750I0J-243750D01*
G01*
X138615000Y-79831250D01*
G75*
G02*
X138371250Y-80075000I-243750J0D01*
G01*
X137883750Y-80075000D01*
G75*
G02*
X137640000Y-79831250I0J243750D01*
G01*
G37*
G36*
G01*
X139515000Y-79831250D02*
X139515000Y-78918750D01*
G75*
G02*
X139758750Y-78675000I243750J0D01*
G01*
X140246250Y-78675000D01*
G75*
G02*
X140490000Y-78918750I0J-243750D01*
G01*
X140490000Y-79831250D01*
G75*
G02*
X140246250Y-80075000I-243750J0D01*
G01*
X139758750Y-80075000D01*
G75*
G02*
X139515000Y-79831250I0J243750D01*
G01*
G37*
%TD*%
D10*
%TO.C,D1*%
X122043000Y-65655000D03*
X122813000Y-65655000D03*
X122813000Y-66425000D03*
X122043000Y-66425000D03*
%TD*%
%TO.C,D2*%
X122043000Y-68925000D03*
X122813000Y-68925000D03*
X122813000Y-68155000D03*
X122043000Y-68155000D03*
%TD*%
%TO.C,D3*%
X122043000Y-70735000D03*
X122813000Y-70735000D03*
X122813000Y-71505000D03*
X122043000Y-71505000D03*
%TD*%
%TO.C,D4*%
X122043000Y-74045000D03*
X122813000Y-74045000D03*
X122813000Y-73275000D03*
X122043000Y-73275000D03*
%TD*%
%TO.C,D5*%
X122043000Y-75815000D03*
X122813000Y-75815000D03*
X122813000Y-76585000D03*
X122043000Y-76585000D03*
%TD*%
%TO.C,D6*%
X124583000Y-66425000D03*
X125353000Y-66425000D03*
X125353000Y-65655000D03*
X124583000Y-65655000D03*
%TD*%
%TO.C,D7*%
X124583000Y-68195000D03*
X125353000Y-68195000D03*
X125353000Y-68965000D03*
X124583000Y-68965000D03*
%TD*%
%TO.C,D8*%
X124583000Y-70735000D03*
X125353000Y-70735000D03*
X125353000Y-71505000D03*
X124583000Y-71505000D03*
%TD*%
%TO.C,D9*%
X124583000Y-74045000D03*
X125353000Y-74045000D03*
X125353000Y-73275000D03*
X124583000Y-73275000D03*
%TD*%
%TO.C,D10*%
X124583000Y-76585000D03*
X125353000Y-76585000D03*
X125353000Y-75815000D03*
X124583000Y-75815000D03*
%TD*%
%TO.C,D11*%
X127123000Y-66425000D03*
X127893000Y-66425000D03*
X127893000Y-65655000D03*
X127123000Y-65655000D03*
%TD*%
%TO.C,D12*%
X127123000Y-68195000D03*
X127893000Y-68195000D03*
X127893000Y-68965000D03*
X127123000Y-68965000D03*
%TD*%
%TO.C,D13*%
X127123000Y-71505000D03*
X127893000Y-71505000D03*
X127893000Y-70735000D03*
X127123000Y-70735000D03*
%TD*%
%TO.C,D14*%
X127123000Y-73275000D03*
X127893000Y-73275000D03*
X127893000Y-74045000D03*
X127123000Y-74045000D03*
%TD*%
%TO.C,D15*%
X127123000Y-75815000D03*
X127893000Y-75815000D03*
X127893000Y-76585000D03*
X127123000Y-76585000D03*
%TD*%
%TO.C,D16*%
X129663000Y-66425000D03*
X130433000Y-66425000D03*
X130433000Y-65655000D03*
X129663000Y-65655000D03*
%TD*%
%TO.C,D17*%
X129663000Y-68195000D03*
X130433000Y-68195000D03*
X130433000Y-68965000D03*
X129663000Y-68965000D03*
%TD*%
%TO.C,D18*%
X129663000Y-71505000D03*
X130433000Y-71505000D03*
X130433000Y-70735000D03*
X129663000Y-70735000D03*
%TD*%
%TO.C,D19*%
X129663000Y-73275000D03*
X130433000Y-73275000D03*
X130433000Y-74045000D03*
X129663000Y-74045000D03*
%TD*%
%TO.C,D20*%
X129663000Y-76585000D03*
X130433000Y-76585000D03*
X130433000Y-75815000D03*
X129663000Y-75815000D03*
%TD*%
%TO.C,D21*%
X132203000Y-66425000D03*
X132973000Y-66425000D03*
X132973000Y-65655000D03*
X132203000Y-65655000D03*
%TD*%
%TO.C,D22*%
X132203000Y-68965000D03*
X132973000Y-68965000D03*
X132973000Y-68195000D03*
X132203000Y-68195000D03*
%TD*%
%TO.C,D23*%
X132203000Y-71505000D03*
X132973000Y-71505000D03*
X132973000Y-70735000D03*
X132203000Y-70735000D03*
%TD*%
%TO.C,D24*%
X132203000Y-73275000D03*
X132973000Y-73275000D03*
X132973000Y-74045000D03*
X132203000Y-74045000D03*
%TD*%
%TO.C,D25*%
X132203000Y-75815000D03*
X132973000Y-75815000D03*
X132973000Y-76585000D03*
X132203000Y-76585000D03*
%TD*%
%TO.C,D26*%
X134743000Y-66425000D03*
X135513000Y-66425000D03*
X135513000Y-65655000D03*
X134743000Y-65655000D03*
%TD*%
%TO.C,D27*%
X134743000Y-68195000D03*
X135513000Y-68195000D03*
X135513000Y-68965000D03*
X134743000Y-68965000D03*
%TD*%
%TO.C,D28*%
X134743000Y-71505000D03*
X135513000Y-71505000D03*
X135513000Y-70735000D03*
X134743000Y-70735000D03*
%TD*%
%TO.C,D29*%
X134743000Y-73275000D03*
X135513000Y-73275000D03*
X135513000Y-74045000D03*
X134743000Y-74045000D03*
%TD*%
%TO.C,D30*%
X134743000Y-76585000D03*
X135513000Y-76585000D03*
X135513000Y-75815000D03*
X134743000Y-75815000D03*
%TD*%
%TO.C,D31*%
X137283000Y-66425000D03*
X138053000Y-66425000D03*
X138053000Y-65655000D03*
X137283000Y-65655000D03*
%TD*%
%TO.C,D32*%
X137283000Y-68195000D03*
X138053000Y-68195000D03*
X138053000Y-68965000D03*
X137283000Y-68965000D03*
%TD*%
%TO.C,D33*%
X137283000Y-71505000D03*
X138053000Y-71505000D03*
X138053000Y-70735000D03*
X137283000Y-70735000D03*
%TD*%
%TO.C,D34*%
X137283000Y-73275000D03*
X138053000Y-73275000D03*
X138053000Y-74045000D03*
X137283000Y-74045000D03*
%TD*%
%TO.C,D35*%
X137283000Y-75815000D03*
X138053000Y-75815000D03*
X138053000Y-76585000D03*
X137283000Y-76585000D03*
%TD*%
%TO.C,D36*%
X139823000Y-65655000D03*
X140593000Y-65655000D03*
X140593000Y-66425000D03*
X139823000Y-66425000D03*
%TD*%
%TO.C,D37*%
X139823000Y-68195000D03*
X140593000Y-68195000D03*
X140593000Y-68965000D03*
X139823000Y-68965000D03*
%TD*%
%TO.C,D38*%
X139823000Y-71505000D03*
X140593000Y-71505000D03*
X140593000Y-70735000D03*
X139823000Y-70735000D03*
%TD*%
%TO.C,D39*%
X139823000Y-73275000D03*
X140593000Y-73275000D03*
X140593000Y-74045000D03*
X139823000Y-74045000D03*
%TD*%
%TO.C,D40*%
X139823000Y-76585000D03*
X140593000Y-76585000D03*
X140593000Y-75815000D03*
X139823000Y-75815000D03*
%TD*%
%TO.C,R1*%
G36*
G01*
X124275000Y-79831250D02*
X124275000Y-78918750D01*
G75*
G02*
X124518750Y-78675000I243750J0D01*
G01*
X125006250Y-78675000D01*
G75*
G02*
X125250000Y-78918750I0J-243750D01*
G01*
X125250000Y-79831250D01*
G75*
G02*
X125006250Y-80075000I-243750J0D01*
G01*
X124518750Y-80075000D01*
G75*
G02*
X124275000Y-79831250I0J243750D01*
G01*
G37*
G36*
G01*
X122400000Y-79831250D02*
X122400000Y-78918750D01*
G75*
G02*
X122643750Y-78675000I243750J0D01*
G01*
X123131250Y-78675000D01*
G75*
G02*
X123375000Y-78918750I0J-243750D01*
G01*
X123375000Y-79831250D01*
G75*
G02*
X123131250Y-80075000I-243750J0D01*
G01*
X122643750Y-80075000D01*
G75*
G02*
X122400000Y-79831250I0J243750D01*
G01*
G37*
%TD*%
%TO.C,R2*%
G36*
G01*
X129355000Y-79831250D02*
X129355000Y-78918750D01*
G75*
G02*
X129598750Y-78675000I243750J0D01*
G01*
X130086250Y-78675000D01*
G75*
G02*
X130330000Y-78918750I0J-243750D01*
G01*
X130330000Y-79831250D01*
G75*
G02*
X130086250Y-80075000I-243750J0D01*
G01*
X129598750Y-80075000D01*
G75*
G02*
X129355000Y-79831250I0J243750D01*
G01*
G37*
G36*
G01*
X127480000Y-79831250D02*
X127480000Y-78918750D01*
G75*
G02*
X127723750Y-78675000I243750J0D01*
G01*
X128211250Y-78675000D01*
G75*
G02*
X128455000Y-78918750I0J-243750D01*
G01*
X128455000Y-79831250D01*
G75*
G02*
X128211250Y-80075000I-243750J0D01*
G01*
X127723750Y-80075000D01*
G75*
G02*
X127480000Y-79831250I0J243750D01*
G01*
G37*
%TD*%
%TO.C,R3*%
G36*
G01*
X100810000Y-65226250D02*
X100810000Y-64313750D01*
G75*
G02*
X101053750Y-64070000I243750J0D01*
G01*
X101541250Y-64070000D01*
G75*
G02*
X101785000Y-64313750I0J-243750D01*
G01*
X101785000Y-65226250D01*
G75*
G02*
X101541250Y-65470000I-243750J0D01*
G01*
X101053750Y-65470000D01*
G75*
G02*
X100810000Y-65226250I0J243750D01*
G01*
G37*
G36*
G01*
X102685000Y-65226250D02*
X102685000Y-64313750D01*
G75*
G02*
X102928750Y-64070000I243750J0D01*
G01*
X103416250Y-64070000D01*
G75*
G02*
X103660000Y-64313750I0J-243750D01*
G01*
X103660000Y-65226250D01*
G75*
G02*
X103416250Y-65470000I-243750J0D01*
G01*
X102928750Y-65470000D01*
G75*
G02*
X102685000Y-65226250I0J243750D01*
G01*
G37*
%TD*%
%TO.C,R4*%
G36*
G01*
X100810000Y-67766250D02*
X100810000Y-66853750D01*
G75*
G02*
X101053750Y-66610000I243750J0D01*
G01*
X101541250Y-66610000D01*
G75*
G02*
X101785000Y-66853750I0J-243750D01*
G01*
X101785000Y-67766250D01*
G75*
G02*
X101541250Y-68010000I-243750J0D01*
G01*
X101053750Y-68010000D01*
G75*
G02*
X100810000Y-67766250I0J243750D01*
G01*
G37*
G36*
G01*
X102685000Y-67766250D02*
X102685000Y-66853750D01*
G75*
G02*
X102928750Y-66610000I243750J0D01*
G01*
X103416250Y-66610000D01*
G75*
G02*
X103660000Y-66853750I0J-243750D01*
G01*
X103660000Y-67766250D01*
G75*
G02*
X103416250Y-68010000I-243750J0D01*
G01*
X102928750Y-68010000D01*
G75*
G02*
X102685000Y-67766250I0J243750D01*
G01*
G37*
%TD*%
%TO.C,SW1*%
G36*
G01*
X142685000Y-66060000D02*
X142685000Y-65560000D01*
G75*
G02*
X142935000Y-65310000I250000J0D01*
G01*
X144435000Y-65310000D01*
G75*
G02*
X144685000Y-65560000I0J-250000D01*
G01*
X144685000Y-66060000D01*
G75*
G02*
X144435000Y-66310000I-250000J0D01*
G01*
X142935000Y-66310000D01*
G75*
G02*
X142685000Y-66060000I0J250000D01*
G01*
G37*
G36*
G01*
X142685000Y-69060000D02*
X142685000Y-68560000D01*
G75*
G02*
X142935000Y-68310000I250000J0D01*
G01*
X144435000Y-68310000D01*
G75*
G02*
X144685000Y-68560000I0J-250000D01*
G01*
X144685000Y-69060000D01*
G75*
G02*
X144435000Y-69310000I-250000J0D01*
G01*
X142935000Y-69310000D01*
G75*
G02*
X142685000Y-69060000I0J250000D01*
G01*
G37*
G36*
G01*
X148685000Y-66060000D02*
X148685000Y-65560000D01*
G75*
G02*
X148935000Y-65310000I250000J0D01*
G01*
X150435000Y-65310000D01*
G75*
G02*
X150685000Y-65560000I0J-250000D01*
G01*
X150685000Y-66060000D01*
G75*
G02*
X150435000Y-66310000I-250000J0D01*
G01*
X148935000Y-66310000D01*
G75*
G02*
X148685000Y-66060000I0J250000D01*
G01*
G37*
G36*
G01*
X148685000Y-69060000D02*
X148685000Y-68560000D01*
G75*
G02*
X148935000Y-68310000I250000J0D01*
G01*
X150435000Y-68310000D01*
G75*
G02*
X150685000Y-68560000I0J-250000D01*
G01*
X150685000Y-69060000D01*
G75*
G02*
X150435000Y-69310000I-250000J0D01*
G01*
X148935000Y-69310000D01*
G75*
G02*
X148685000Y-69060000I0J250000D01*
G01*
G37*
%TD*%
%TO.C,SW2*%
G36*
G01*
X148685000Y-76680000D02*
X148685000Y-76180000D01*
G75*
G02*
X148935000Y-75930000I250000J0D01*
G01*
X150435000Y-75930000D01*
G75*
G02*
X150685000Y-76180000I0J-250000D01*
G01*
X150685000Y-76680000D01*
G75*
G02*
X150435000Y-76930000I-250000J0D01*
G01*
X148935000Y-76930000D01*
G75*
G02*
X148685000Y-76680000I0J250000D01*
G01*
G37*
G36*
G01*
X148685000Y-73680000D02*
X148685000Y-73180000D01*
G75*
G02*
X148935000Y-72930000I250000J0D01*
G01*
X150435000Y-72930000D01*
G75*
G02*
X150685000Y-73180000I0J-250000D01*
G01*
X150685000Y-73680000D01*
G75*
G02*
X150435000Y-73930000I-250000J0D01*
G01*
X148935000Y-73930000D01*
G75*
G02*
X148685000Y-73680000I0J250000D01*
G01*
G37*
G36*
G01*
X142685000Y-76680000D02*
X142685000Y-76180000D01*
G75*
G02*
X142935000Y-75930000I250000J0D01*
G01*
X144435000Y-75930000D01*
G75*
G02*
X144685000Y-76180000I0J-250000D01*
G01*
X144685000Y-76680000D01*
G75*
G02*
X144435000Y-76930000I-250000J0D01*
G01*
X142935000Y-76930000D01*
G75*
G02*
X142685000Y-76680000I0J250000D01*
G01*
G37*
G36*
G01*
X142685000Y-73680000D02*
X142685000Y-73180000D01*
G75*
G02*
X142935000Y-72930000I250000J0D01*
G01*
X144435000Y-72930000D01*
G75*
G02*
X144685000Y-73180000I0J-250000D01*
G01*
X144685000Y-73680000D01*
G75*
G02*
X144435000Y-73930000I-250000J0D01*
G01*
X142935000Y-73930000D01*
G75*
G02*
X142685000Y-73680000I0J250000D01*
G01*
G37*
%TD*%
%TO.C,U1*%
G36*
G01*
X117435000Y-79225000D02*
X117435000Y-79525000D01*
G75*
G02*
X117285000Y-79675000I-150000J0D01*
G01*
X115535000Y-79675000D01*
G75*
G02*
X115385000Y-79525000I0J150000D01*
G01*
X115385000Y-79225000D01*
G75*
G02*
X115535000Y-79075000I150000J0D01*
G01*
X117285000Y-79075000D01*
G75*
G02*
X117435000Y-79225000I0J-150000D01*
G01*
G37*
G36*
G01*
X117435000Y-77955000D02*
X117435000Y-78255000D01*
G75*
G02*
X117285000Y-78405000I-150000J0D01*
G01*
X115535000Y-78405000D01*
G75*
G02*
X115385000Y-78255000I0J150000D01*
G01*
X115385000Y-77955000D01*
G75*
G02*
X115535000Y-77805000I150000J0D01*
G01*
X117285000Y-77805000D01*
G75*
G02*
X117435000Y-77955000I0J-150000D01*
G01*
G37*
G36*
G01*
X117435000Y-76685000D02*
X117435000Y-76985000D01*
G75*
G02*
X117285000Y-77135000I-150000J0D01*
G01*
X115535000Y-77135000D01*
G75*
G02*
X115385000Y-76985000I0J150000D01*
G01*
X115385000Y-76685000D01*
G75*
G02*
X115535000Y-76535000I150000J0D01*
G01*
X117285000Y-76535000D01*
G75*
G02*
X117435000Y-76685000I0J-150000D01*
G01*
G37*
G36*
G01*
X117435000Y-75415000D02*
X117435000Y-75715000D01*
G75*
G02*
X117285000Y-75865000I-150000J0D01*
G01*
X115535000Y-75865000D01*
G75*
G02*
X115385000Y-75715000I0J150000D01*
G01*
X115385000Y-75415000D01*
G75*
G02*
X115535000Y-75265000I150000J0D01*
G01*
X117285000Y-75265000D01*
G75*
G02*
X117435000Y-75415000I0J-150000D01*
G01*
G37*
G36*
G01*
X117435000Y-74145000D02*
X117435000Y-74445000D01*
G75*
G02*
X117285000Y-74595000I-150000J0D01*
G01*
X115535000Y-74595000D01*
G75*
G02*
X115385000Y-74445000I0J150000D01*
G01*
X115385000Y-74145000D01*
G75*
G02*
X115535000Y-73995000I150000J0D01*
G01*
X117285000Y-73995000D01*
G75*
G02*
X117435000Y-74145000I0J-150000D01*
G01*
G37*
G36*
G01*
X117435000Y-72875000D02*
X117435000Y-73175000D01*
G75*
G02*
X117285000Y-73325000I-150000J0D01*
G01*
X115535000Y-73325000D01*
G75*
G02*
X115385000Y-73175000I0J150000D01*
G01*
X115385000Y-72875000D01*
G75*
G02*
X115535000Y-72725000I150000J0D01*
G01*
X117285000Y-72725000D01*
G75*
G02*
X117435000Y-72875000I0J-150000D01*
G01*
G37*
G36*
G01*
X117435000Y-71605000D02*
X117435000Y-71905000D01*
G75*
G02*
X117285000Y-72055000I-150000J0D01*
G01*
X115535000Y-72055000D01*
G75*
G02*
X115385000Y-71905000I0J150000D01*
G01*
X115385000Y-71605000D01*
G75*
G02*
X115535000Y-71455000I150000J0D01*
G01*
X117285000Y-71455000D01*
G75*
G02*
X117435000Y-71605000I0J-150000D01*
G01*
G37*
G36*
G01*
X117435000Y-70335000D02*
X117435000Y-70635000D01*
G75*
G02*
X117285000Y-70785000I-150000J0D01*
G01*
X115535000Y-70785000D01*
G75*
G02*
X115385000Y-70635000I0J150000D01*
G01*
X115385000Y-70335000D01*
G75*
G02*
X115535000Y-70185000I150000J0D01*
G01*
X117285000Y-70185000D01*
G75*
G02*
X117435000Y-70335000I0J-150000D01*
G01*
G37*
G36*
G01*
X117435000Y-69065000D02*
X117435000Y-69365000D01*
G75*
G02*
X117285000Y-69515000I-150000J0D01*
G01*
X115535000Y-69515000D01*
G75*
G02*
X115385000Y-69365000I0J150000D01*
G01*
X115385000Y-69065000D01*
G75*
G02*
X115535000Y-68915000I150000J0D01*
G01*
X117285000Y-68915000D01*
G75*
G02*
X117435000Y-69065000I0J-150000D01*
G01*
G37*
G36*
G01*
X117435000Y-67795000D02*
X117435000Y-68095000D01*
G75*
G02*
X117285000Y-68245000I-150000J0D01*
G01*
X115535000Y-68245000D01*
G75*
G02*
X115385000Y-68095000I0J150000D01*
G01*
X115385000Y-67795000D01*
G75*
G02*
X115535000Y-67645000I150000J0D01*
G01*
X117285000Y-67645000D01*
G75*
G02*
X117435000Y-67795000I0J-150000D01*
G01*
G37*
G36*
G01*
X117435000Y-66525000D02*
X117435000Y-66825000D01*
G75*
G02*
X117285000Y-66975000I-150000J0D01*
G01*
X115535000Y-66975000D01*
G75*
G02*
X115385000Y-66825000I0J150000D01*
G01*
X115385000Y-66525000D01*
G75*
G02*
X115535000Y-66375000I150000J0D01*
G01*
X117285000Y-66375000D01*
G75*
G02*
X117435000Y-66525000I0J-150000D01*
G01*
G37*
G36*
G01*
X117435000Y-65255000D02*
X117435000Y-65555000D01*
G75*
G02*
X117285000Y-65705000I-150000J0D01*
G01*
X115535000Y-65705000D01*
G75*
G02*
X115385000Y-65555000I0J150000D01*
G01*
X115385000Y-65255000D01*
G75*
G02*
X115535000Y-65105000I150000J0D01*
G01*
X117285000Y-65105000D01*
G75*
G02*
X117435000Y-65255000I0J-150000D01*
G01*
G37*
G36*
G01*
X117435000Y-63985000D02*
X117435000Y-64285000D01*
G75*
G02*
X117285000Y-64435000I-150000J0D01*
G01*
X115535000Y-64435000D01*
G75*
G02*
X115385000Y-64285000I0J150000D01*
G01*
X115385000Y-63985000D01*
G75*
G02*
X115535000Y-63835000I150000J0D01*
G01*
X117285000Y-63835000D01*
G75*
G02*
X117435000Y-63985000I0J-150000D01*
G01*
G37*
G36*
G01*
X117435000Y-62715000D02*
X117435000Y-63015000D01*
G75*
G02*
X117285000Y-63165000I-150000J0D01*
G01*
X115535000Y-63165000D01*
G75*
G02*
X115385000Y-63015000I0J150000D01*
G01*
X115385000Y-62715000D01*
G75*
G02*
X115535000Y-62565000I150000J0D01*
G01*
X117285000Y-62565000D01*
G75*
G02*
X117435000Y-62715000I0J-150000D01*
G01*
G37*
G36*
G01*
X108135000Y-62715000D02*
X108135000Y-63015000D01*
G75*
G02*
X107985000Y-63165000I-150000J0D01*
G01*
X106235000Y-63165000D01*
G75*
G02*
X106085000Y-63015000I0J150000D01*
G01*
X106085000Y-62715000D01*
G75*
G02*
X106235000Y-62565000I150000J0D01*
G01*
X107985000Y-62565000D01*
G75*
G02*
X108135000Y-62715000I0J-150000D01*
G01*
G37*
G36*
G01*
X108135000Y-63985000D02*
X108135000Y-64285000D01*
G75*
G02*
X107985000Y-64435000I-150000J0D01*
G01*
X106235000Y-64435000D01*
G75*
G02*
X106085000Y-64285000I0J150000D01*
G01*
X106085000Y-63985000D01*
G75*
G02*
X106235000Y-63835000I150000J0D01*
G01*
X107985000Y-63835000D01*
G75*
G02*
X108135000Y-63985000I0J-150000D01*
G01*
G37*
G36*
G01*
X108135000Y-65255000D02*
X108135000Y-65555000D01*
G75*
G02*
X107985000Y-65705000I-150000J0D01*
G01*
X106235000Y-65705000D01*
G75*
G02*
X106085000Y-65555000I0J150000D01*
G01*
X106085000Y-65255000D01*
G75*
G02*
X106235000Y-65105000I150000J0D01*
G01*
X107985000Y-65105000D01*
G75*
G02*
X108135000Y-65255000I0J-150000D01*
G01*
G37*
G36*
G01*
X108135000Y-66525000D02*
X108135000Y-66825000D01*
G75*
G02*
X107985000Y-66975000I-150000J0D01*
G01*
X106235000Y-66975000D01*
G75*
G02*
X106085000Y-66825000I0J150000D01*
G01*
X106085000Y-66525000D01*
G75*
G02*
X106235000Y-66375000I150000J0D01*
G01*
X107985000Y-66375000D01*
G75*
G02*
X108135000Y-66525000I0J-150000D01*
G01*
G37*
G36*
G01*
X108135000Y-67795000D02*
X108135000Y-68095000D01*
G75*
G02*
X107985000Y-68245000I-150000J0D01*
G01*
X106235000Y-68245000D01*
G75*
G02*
X106085000Y-68095000I0J150000D01*
G01*
X106085000Y-67795000D01*
G75*
G02*
X106235000Y-67645000I150000J0D01*
G01*
X107985000Y-67645000D01*
G75*
G02*
X108135000Y-67795000I0J-150000D01*
G01*
G37*
G36*
G01*
X108135000Y-69065000D02*
X108135000Y-69365000D01*
G75*
G02*
X107985000Y-69515000I-150000J0D01*
G01*
X106235000Y-69515000D01*
G75*
G02*
X106085000Y-69365000I0J150000D01*
G01*
X106085000Y-69065000D01*
G75*
G02*
X106235000Y-68915000I150000J0D01*
G01*
X107985000Y-68915000D01*
G75*
G02*
X108135000Y-69065000I0J-150000D01*
G01*
G37*
G36*
G01*
X108135000Y-70335000D02*
X108135000Y-70635000D01*
G75*
G02*
X107985000Y-70785000I-150000J0D01*
G01*
X106235000Y-70785000D01*
G75*
G02*
X106085000Y-70635000I0J150000D01*
G01*
X106085000Y-70335000D01*
G75*
G02*
X106235000Y-70185000I150000J0D01*
G01*
X107985000Y-70185000D01*
G75*
G02*
X108135000Y-70335000I0J-150000D01*
G01*
G37*
G36*
G01*
X108135000Y-71605000D02*
X108135000Y-71905000D01*
G75*
G02*
X107985000Y-72055000I-150000J0D01*
G01*
X106235000Y-72055000D01*
G75*
G02*
X106085000Y-71905000I0J150000D01*
G01*
X106085000Y-71605000D01*
G75*
G02*
X106235000Y-71455000I150000J0D01*
G01*
X107985000Y-71455000D01*
G75*
G02*
X108135000Y-71605000I0J-150000D01*
G01*
G37*
G36*
G01*
X108135000Y-72875000D02*
X108135000Y-73175000D01*
G75*
G02*
X107985000Y-73325000I-150000J0D01*
G01*
X106235000Y-73325000D01*
G75*
G02*
X106085000Y-73175000I0J150000D01*
G01*
X106085000Y-72875000D01*
G75*
G02*
X106235000Y-72725000I150000J0D01*
G01*
X107985000Y-72725000D01*
G75*
G02*
X108135000Y-72875000I0J-150000D01*
G01*
G37*
G36*
G01*
X108135000Y-74145000D02*
X108135000Y-74445000D01*
G75*
G02*
X107985000Y-74595000I-150000J0D01*
G01*
X106235000Y-74595000D01*
G75*
G02*
X106085000Y-74445000I0J150000D01*
G01*
X106085000Y-74145000D01*
G75*
G02*
X106235000Y-73995000I150000J0D01*
G01*
X107985000Y-73995000D01*
G75*
G02*
X108135000Y-74145000I0J-150000D01*
G01*
G37*
G36*
G01*
X108135000Y-75415000D02*
X108135000Y-75715000D01*
G75*
G02*
X107985000Y-75865000I-150000J0D01*
G01*
X106235000Y-75865000D01*
G75*
G02*
X106085000Y-75715000I0J150000D01*
G01*
X106085000Y-75415000D01*
G75*
G02*
X106235000Y-75265000I150000J0D01*
G01*
X107985000Y-75265000D01*
G75*
G02*
X108135000Y-75415000I0J-150000D01*
G01*
G37*
G36*
G01*
X108135000Y-76685000D02*
X108135000Y-76985000D01*
G75*
G02*
X107985000Y-77135000I-150000J0D01*
G01*
X106235000Y-77135000D01*
G75*
G02*
X106085000Y-76985000I0J150000D01*
G01*
X106085000Y-76685000D01*
G75*
G02*
X106235000Y-76535000I150000J0D01*
G01*
X107985000Y-76535000D01*
G75*
G02*
X108135000Y-76685000I0J-150000D01*
G01*
G37*
G36*
G01*
X108135000Y-77955000D02*
X108135000Y-78255000D01*
G75*
G02*
X107985000Y-78405000I-150000J0D01*
G01*
X106235000Y-78405000D01*
G75*
G02*
X106085000Y-78255000I0J150000D01*
G01*
X106085000Y-77955000D01*
G75*
G02*
X106235000Y-77805000I150000J0D01*
G01*
X107985000Y-77805000D01*
G75*
G02*
X108135000Y-77955000I0J-150000D01*
G01*
G37*
G36*
G01*
X108135000Y-79225000D02*
X108135000Y-79525000D01*
G75*
G02*
X107985000Y-79675000I-150000J0D01*
G01*
X106235000Y-79675000D01*
G75*
G02*
X106085000Y-79525000I0J150000D01*
G01*
X106085000Y-79225000D01*
G75*
G02*
X106235000Y-79075000I150000J0D01*
G01*
X107985000Y-79075000D01*
G75*
G02*
X108135000Y-79225000I0J-150000D01*
G01*
G37*
%TD*%
%TO.C,C3*%
G36*
G01*
X102785000Y-79900000D02*
X101685000Y-79900000D01*
G75*
G02*
X101435000Y-79650000I0J250000D01*
G01*
X101435000Y-77150000D01*
G75*
G02*
X101685000Y-76900000I250000J0D01*
G01*
X102785000Y-76900000D01*
G75*
G02*
X103035000Y-77150000I0J-250000D01*
G01*
X103035000Y-79650000D01*
G75*
G02*
X102785000Y-79900000I-250000J0D01*
G01*
G37*
G36*
G01*
X102785000Y-75500000D02*
X101685000Y-75500000D01*
G75*
G02*
X101435000Y-75250000I0J250000D01*
G01*
X101435000Y-72750000D01*
G75*
G02*
X101685000Y-72500000I250000J0D01*
G01*
X102785000Y-72500000D01*
G75*
G02*
X103035000Y-72750000I0J-250000D01*
G01*
X103035000Y-75250000D01*
G75*
G02*
X102785000Y-75500000I-250000J0D01*
G01*
G37*
%TD*%
%TO.C,C4*%
G36*
G01*
X100810000Y-70941250D02*
X100810000Y-70028750D01*
G75*
G02*
X101053750Y-69785000I243750J0D01*
G01*
X101541250Y-69785000D01*
G75*
G02*
X101785000Y-70028750I0J-243750D01*
G01*
X101785000Y-70941250D01*
G75*
G02*
X101541250Y-71185000I-243750J0D01*
G01*
X101053750Y-71185000D01*
G75*
G02*
X100810000Y-70941250I0J243750D01*
G01*
G37*
G36*
G01*
X102685000Y-70941250D02*
X102685000Y-70028750D01*
G75*
G02*
X102928750Y-69785000I243750J0D01*
G01*
X103416250Y-69785000D01*
G75*
G02*
X103660000Y-70028750I0J-243750D01*
G01*
X103660000Y-70941250D01*
G75*
G02*
X103416250Y-71185000I-243750J0D01*
G01*
X102928750Y-71185000D01*
G75*
G02*
X102685000Y-70941250I0J243750D01*
G01*
G37*
%TD*%
M02*
