M48
; DRILL file {KiCad 5.1.6-c6e7f7d~87~ubuntu18.04.1} date Sat Sep 19 20:19:43 2020
; FORMAT={-:-/ absolute / inch / decimal}
; #@! TF.CreationDate,2020-09-19T20:19:43+02:00
; #@! TF.GenerationSoftware,Kicad,Pcbnew,5.1.6-c6e7f7d~87~ubuntu18.04.1
FMAT,2
INCH
T1C0.0118
T2C0.0157
T3C0.0394
%
G90
G05
T1
X4.28Y-2.63
X4.28Y-2.68
X4.28Y-2.73
X4.28Y-2.78
X4.28Y-2.83
X4.28Y-2.88
X4.28Y-2.93
X4.28Y-2.98
X4.28Y-3.03
X4.28Y-3.08
X4.28Y-3.12
X4.64Y-3.06
X4.64Y-3.12
X4.66Y-3.02
X4.8026Y-2.64
X4.81Y-2.74
X4.81Y-2.84
X4.81Y-2.94
X4.8574Y-2.6174
X4.8574Y-2.68
X4.8574Y-2.7174
X4.8574Y-2.78
X4.8574Y-2.8174
X4.8574Y-2.88
X4.8574Y-2.9174
X4.8598Y-2.9801
X4.8598Y-2.5898
X4.86Y-3.01
X4.9026Y-2.64
X4.9026Y-2.74
X4.9026Y-2.84
X4.9026Y-2.94
X4.95Y-3.125
X4.9574Y-2.6174
X4.9574Y-2.68
X4.9574Y-2.7174
X4.9574Y-2.78
X4.9574Y-2.8174
X4.9574Y-2.88
X4.9574Y-2.9174
X4.9598Y-2.5899
X4.9598Y-2.9801
X4.96Y-3.01
X5.0026Y-2.64
X5.0026Y-2.74
X5.0026Y-2.84
X5.0026Y-2.94
X5.025Y-3.0594
X5.0574Y-2.6174
X5.0574Y-2.68
X5.0574Y-2.7174
X5.0574Y-2.78
X5.0574Y-2.8174
X5.0574Y-2.88
X5.0574Y-2.9174
X5.0598Y-2.5899
X5.0598Y-2.9801
X5.06Y-3.01
X5.1026Y-2.64
X5.1026Y-2.74
X5.1026Y-2.84
X5.1026Y-2.94
X5.15Y-3.125
X5.1574Y-2.6174
X5.1574Y-2.68
X5.1574Y-2.7174
X5.1574Y-2.78
X5.1574Y-2.8174
X5.1574Y-2.88
X5.1574Y-2.9174
X5.1598Y-2.5899
X5.1598Y-2.9801
X5.16Y-3.01
X5.2026Y-2.64
X5.2026Y-2.74
X5.2026Y-2.84
X5.2026Y-2.94
X5.2574Y-2.6174
X5.2574Y-2.68
X5.2574Y-2.7174
X5.2574Y-2.78
X5.2574Y-2.8174
X5.2574Y-2.88
X5.2574Y-2.9174
X5.2598Y-2.5899
X5.2598Y-2.9801
X5.26Y-3.01
X5.3026Y-2.64
X5.3026Y-2.74
X5.3026Y-2.84
X5.3026Y-2.94
X5.3574Y-2.6174
X5.3574Y-2.68
X5.3574Y-2.7174
X5.3574Y-2.78
X5.3574Y-2.8174
X5.3574Y-2.88
X5.3574Y-2.9174
X5.3598Y-2.5899
X5.3598Y-2.9801
X5.36Y-3.01
X5.4Y-3.125
X5.4026Y-2.64
X5.4026Y-2.74
X5.4026Y-2.84
X5.4026Y-2.94
X5.4574Y-2.6174
X5.4574Y-2.68
X5.4574Y-2.7174
X5.4574Y-2.78
X5.4574Y-2.8174
X5.4574Y-2.88
X5.4574Y-2.9174
X5.4598Y-2.5899
X5.4598Y-2.9801
X5.46Y-3.01
X5.5026Y-2.64
X5.5026Y-2.74
X5.5026Y-2.84
X5.5026Y-2.94
X5.56Y-2.59
X5.56Y-2.62
X5.56Y-2.68
X5.56Y-2.72
X5.56Y-2.78
X5.56Y-2.82
X5.56Y-2.88
X5.56Y-2.92
X5.56Y-2.98
X5.56Y-3.01
T2
X4.075Y-3.0
X4.0767Y-2.8337
T3
X3.8Y-2.55
X3.8Y-2.65
X3.8Y-2.75
X3.8Y-2.85
X3.8Y-2.95
X3.8Y-3.05
T0
M30
