%TF.GenerationSoftware,KiCad,Pcbnew,5.1.6-c6e7f7d~87~ubuntu18.04.1*%
%TF.CreationDate,2020-09-19T20:19:40+02:00*%
%TF.ProjectId,rgbpmod,72676270-6d6f-4642-9e6b-696361645f70,rev?*%
%TF.SameCoordinates,Original*%
%TF.FileFunction,Legend,Bot*%
%TF.FilePolarity,Positive*%
%FSLAX46Y46*%
G04 Gerber Fmt 4.6, Leading zero omitted, Abs format (unit mm)*
G04 Created by KiCad (PCBNEW 5.1.6-c6e7f7d~87~ubuntu18.04.1) date 2020-09-19 20:19:40*
%MOMM*%
%LPD*%
G01*
G04 APERTURE LIST*
%ADD10C,0.120000*%
%ADD11C,0.150000*%
G04 APERTURE END LIST*
D10*
X152908000Y-78740000D02*
X153162000Y-78740000D01*
X150495000Y-78232000D02*
G75*
G03*
X150495000Y-78232000I-127000J0D01*
G01*
X150368000Y-74676000D02*
X150368000Y-74168000D01*
X150368000Y-67564000D02*
X150368000Y-67056000D01*
X152908000Y-64516000D02*
X153162000Y-64516000D01*
X150495000Y-67564000D02*
G75*
G03*
X150495000Y-67564000I-127000J0D01*
G01*
X150368000Y-78232000D02*
X150368000Y-77724000D01*
X152908000Y-68072000D02*
X153162000Y-68072000D01*
X150495000Y-71120000D02*
G75*
G03*
X150495000Y-71120000I-127000J0D01*
G01*
X152908000Y-71628000D02*
X153162000Y-71628000D01*
X150495000Y-74676000D02*
G75*
G03*
X150495000Y-74676000I-127000J0D01*
G01*
X152908000Y-75184000D02*
X153162000Y-75184000D01*
X150495000Y-64008000D02*
G75*
G03*
X150495000Y-64008000I-127000J0D01*
G01*
X150368000Y-64008000D02*
X150368000Y-63500000D01*
X150368000Y-71120000D02*
X150368000Y-70612000D01*
X104140000Y-78232000D02*
X153162000Y-78232000D01*
X104140000Y-74676000D02*
X153162000Y-74676000D01*
X104140000Y-71120000D02*
X153162000Y-71120000D01*
X104140000Y-67564000D02*
X153162000Y-67564000D01*
X104140000Y-64008000D02*
X153162000Y-64008000D01*
X107188000Y-81280000D02*
X107188000Y-60960000D01*
X110744000Y-81280000D02*
X110744000Y-60960000D01*
X114300000Y-81280000D02*
X114300000Y-60960000D01*
X117856000Y-81280000D02*
X117856000Y-60960000D01*
X121412000Y-81280000D02*
X121412000Y-60960000D01*
X124968000Y-60960000D02*
X124968000Y-81280000D01*
X128524000Y-81280000D02*
X128524000Y-60960000D01*
X132080000Y-60960000D02*
X132080000Y-81280000D01*
X135636000Y-81280000D02*
X135636000Y-60960000D01*
X139192000Y-60960000D02*
X139192000Y-81280000D01*
X142748000Y-60960000D02*
X142748000Y-81280000D01*
X146304000Y-60960000D02*
X146304000Y-81280000D01*
X149860000Y-60960000D02*
X149860000Y-81280000D01*
X135763000Y-78740000D02*
G75*
G03*
X135763000Y-78740000I-127000J0D01*
G01*
X120904000Y-78740000D02*
X121412000Y-78740000D01*
X139319000Y-78740000D02*
G75*
G03*
X139319000Y-78740000I-127000J0D01*
G01*
X145796000Y-78740000D02*
X146304000Y-78740000D01*
X124460000Y-78740000D02*
X124968000Y-78740000D01*
X138684000Y-78740000D02*
X139192000Y-78740000D01*
X135128000Y-78740000D02*
X135636000Y-78740000D01*
X149352000Y-78740000D02*
X149860000Y-78740000D01*
X132207000Y-78740000D02*
G75*
G03*
X132207000Y-78740000I-127000J0D01*
G01*
X131572000Y-78740000D02*
X132080000Y-78740000D01*
X125095000Y-78740000D02*
G75*
G03*
X125095000Y-78740000I-127000J0D01*
G01*
X117983000Y-78740000D02*
G75*
G03*
X117983000Y-78740000I-127000J0D01*
G01*
X128651000Y-78740000D02*
G75*
G03*
X128651000Y-78740000I-127000J0D01*
G01*
X113792000Y-78740000D02*
X114300000Y-78740000D01*
X114427000Y-78740000D02*
G75*
G03*
X114427000Y-78740000I-127000J0D01*
G01*
X142875000Y-78740000D02*
G75*
G03*
X142875000Y-78740000I-127000J0D01*
G01*
X142240000Y-78740000D02*
X142748000Y-78740000D01*
X107315000Y-78740000D02*
G75*
G03*
X107315000Y-78740000I-127000J0D01*
G01*
X146431000Y-78740000D02*
G75*
G03*
X146431000Y-78740000I-127000J0D01*
G01*
X128016000Y-78740000D02*
X128524000Y-78740000D01*
X117348000Y-78740000D02*
X117856000Y-78740000D01*
X106680000Y-78740000D02*
X107188000Y-78740000D01*
X149987000Y-78740000D02*
G75*
G03*
X149987000Y-78740000I-127000J0D01*
G01*
X110871000Y-78740000D02*
G75*
G03*
X110871000Y-78740000I-127000J0D01*
G01*
X110236000Y-78740000D02*
X110744000Y-78740000D01*
X121539000Y-78740000D02*
G75*
G03*
X121539000Y-78740000I-127000J0D01*
G01*
X125476000Y-78232000D02*
X125476000Y-77724000D01*
X121920000Y-78232000D02*
X121920000Y-77724000D01*
X135763000Y-75184000D02*
G75*
G03*
X135763000Y-75184000I-127000J0D01*
G01*
X129032000Y-78232000D02*
X129032000Y-77724000D01*
X136144000Y-78232000D02*
X136144000Y-77724000D01*
X114935000Y-78232000D02*
G75*
G03*
X114935000Y-78232000I-127000J0D01*
G01*
X120904000Y-75184000D02*
X121412000Y-75184000D01*
X104267000Y-78232000D02*
G75*
G03*
X104267000Y-78232000I-127000J0D01*
G01*
X104140000Y-78232000D02*
X104140000Y-77724000D01*
X139319000Y-75184000D02*
G75*
G03*
X139319000Y-75184000I-127000J0D01*
G01*
X145796000Y-75184000D02*
X146304000Y-75184000D01*
X124460000Y-75184000D02*
X124968000Y-75184000D01*
X138684000Y-75184000D02*
X139192000Y-75184000D01*
X135128000Y-75184000D02*
X135636000Y-75184000D01*
X149352000Y-75184000D02*
X149860000Y-75184000D01*
X132207000Y-75184000D02*
G75*
G03*
X132207000Y-75184000I-127000J0D01*
G01*
X139700000Y-78232000D02*
X139700000Y-77724000D01*
X107696000Y-78232000D02*
X107696000Y-77724000D01*
X131572000Y-75184000D02*
X132080000Y-75184000D01*
X125095000Y-75184000D02*
G75*
G03*
X125095000Y-75184000I-127000J0D01*
G01*
X117983000Y-75184000D02*
G75*
G03*
X117983000Y-75184000I-127000J0D01*
G01*
X143256000Y-78232000D02*
X143256000Y-77724000D01*
X128651000Y-75184000D02*
G75*
G03*
X128651000Y-75184000I-127000J0D01*
G01*
X136271000Y-78232000D02*
G75*
G03*
X136271000Y-78232000I-127000J0D01*
G01*
X113792000Y-75184000D02*
X114300000Y-75184000D01*
X114427000Y-75184000D02*
G75*
G03*
X114427000Y-75184000I-127000J0D01*
G01*
X111379000Y-78232000D02*
G75*
G03*
X111379000Y-78232000I-127000J0D01*
G01*
X114808000Y-78232000D02*
X114808000Y-77724000D01*
X118491000Y-78232000D02*
G75*
G03*
X118491000Y-78232000I-127000J0D01*
G01*
X142875000Y-75184000D02*
G75*
G03*
X142875000Y-75184000I-127000J0D01*
G01*
X111252000Y-78232000D02*
X111252000Y-77724000D01*
X122047000Y-78232000D02*
G75*
G03*
X122047000Y-78232000I-127000J0D01*
G01*
X142240000Y-75184000D02*
X142748000Y-75184000D01*
X107315000Y-75184000D02*
G75*
G03*
X107315000Y-75184000I-127000J0D01*
G01*
X146431000Y-75184000D02*
G75*
G03*
X146431000Y-75184000I-127000J0D01*
G01*
X128016000Y-75184000D02*
X128524000Y-75184000D01*
X132588000Y-78232000D02*
X132588000Y-77724000D01*
X117348000Y-75184000D02*
X117856000Y-75184000D01*
X106680000Y-75184000D02*
X107188000Y-75184000D01*
X125603000Y-78232000D02*
G75*
G03*
X125603000Y-78232000I-127000J0D01*
G01*
X149987000Y-75184000D02*
G75*
G03*
X149987000Y-75184000I-127000J0D01*
G01*
X110871000Y-75184000D02*
G75*
G03*
X110871000Y-75184000I-127000J0D01*
G01*
X139827000Y-78232000D02*
G75*
G03*
X139827000Y-78232000I-127000J0D01*
G01*
X107823000Y-78232000D02*
G75*
G03*
X107823000Y-78232000I-127000J0D01*
G01*
X110236000Y-75184000D02*
X110744000Y-75184000D01*
X132715000Y-78232000D02*
G75*
G03*
X132715000Y-78232000I-127000J0D01*
G01*
X118364000Y-78232000D02*
X118364000Y-77724000D01*
X129159000Y-78232000D02*
G75*
G03*
X129159000Y-78232000I-127000J0D01*
G01*
X121539000Y-75184000D02*
G75*
G03*
X121539000Y-75184000I-127000J0D01*
G01*
X143383000Y-78232000D02*
G75*
G03*
X143383000Y-78232000I-127000J0D01*
G01*
X146939000Y-78232000D02*
G75*
G03*
X146939000Y-78232000I-127000J0D01*
G01*
X146812000Y-78232000D02*
X146812000Y-77724000D01*
X125476000Y-74676000D02*
X125476000Y-74168000D01*
X121920000Y-74676000D02*
X121920000Y-74168000D01*
X135763000Y-71628000D02*
G75*
G03*
X135763000Y-71628000I-127000J0D01*
G01*
X129032000Y-74676000D02*
X129032000Y-74168000D01*
X136144000Y-74676000D02*
X136144000Y-74168000D01*
X114935000Y-74676000D02*
G75*
G03*
X114935000Y-74676000I-127000J0D01*
G01*
X120904000Y-71628000D02*
X121412000Y-71628000D01*
X104267000Y-74676000D02*
G75*
G03*
X104267000Y-74676000I-127000J0D01*
G01*
X104140000Y-74676000D02*
X104140000Y-74168000D01*
X139319000Y-71628000D02*
G75*
G03*
X139319000Y-71628000I-127000J0D01*
G01*
X145796000Y-71628000D02*
X146304000Y-71628000D01*
X124460000Y-71628000D02*
X124968000Y-71628000D01*
X138684000Y-71628000D02*
X139192000Y-71628000D01*
X135128000Y-71628000D02*
X135636000Y-71628000D01*
X149352000Y-71628000D02*
X149860000Y-71628000D01*
X132207000Y-71628000D02*
G75*
G03*
X132207000Y-71628000I-127000J0D01*
G01*
X139700000Y-74676000D02*
X139700000Y-74168000D01*
X107696000Y-74676000D02*
X107696000Y-74168000D01*
X131572000Y-71628000D02*
X132080000Y-71628000D01*
X125095000Y-71628000D02*
G75*
G03*
X125095000Y-71628000I-127000J0D01*
G01*
X117983000Y-71628000D02*
G75*
G03*
X117983000Y-71628000I-127000J0D01*
G01*
X143256000Y-74676000D02*
X143256000Y-74168000D01*
X128651000Y-71628000D02*
G75*
G03*
X128651000Y-71628000I-127000J0D01*
G01*
X136271000Y-74676000D02*
G75*
G03*
X136271000Y-74676000I-127000J0D01*
G01*
X113792000Y-71628000D02*
X114300000Y-71628000D01*
X114427000Y-71628000D02*
G75*
G03*
X114427000Y-71628000I-127000J0D01*
G01*
X111379000Y-74676000D02*
G75*
G03*
X111379000Y-74676000I-127000J0D01*
G01*
X114808000Y-74676000D02*
X114808000Y-74168000D01*
X118491000Y-74676000D02*
G75*
G03*
X118491000Y-74676000I-127000J0D01*
G01*
X142875000Y-71628000D02*
G75*
G03*
X142875000Y-71628000I-127000J0D01*
G01*
X111252000Y-74676000D02*
X111252000Y-74168000D01*
X122047000Y-74676000D02*
G75*
G03*
X122047000Y-74676000I-127000J0D01*
G01*
X142240000Y-71628000D02*
X142748000Y-71628000D01*
X107315000Y-71628000D02*
G75*
G03*
X107315000Y-71628000I-127000J0D01*
G01*
X146431000Y-71628000D02*
G75*
G03*
X146431000Y-71628000I-127000J0D01*
G01*
X128016000Y-71628000D02*
X128524000Y-71628000D01*
X132588000Y-74676000D02*
X132588000Y-74168000D01*
X117348000Y-71628000D02*
X117856000Y-71628000D01*
X106680000Y-71628000D02*
X107188000Y-71628000D01*
X125603000Y-74676000D02*
G75*
G03*
X125603000Y-74676000I-127000J0D01*
G01*
X149987000Y-71628000D02*
G75*
G03*
X149987000Y-71628000I-127000J0D01*
G01*
X110871000Y-71628000D02*
G75*
G03*
X110871000Y-71628000I-127000J0D01*
G01*
X139827000Y-74676000D02*
G75*
G03*
X139827000Y-74676000I-127000J0D01*
G01*
X107823000Y-74676000D02*
G75*
G03*
X107823000Y-74676000I-127000J0D01*
G01*
X110236000Y-71628000D02*
X110744000Y-71628000D01*
X132715000Y-74676000D02*
G75*
G03*
X132715000Y-74676000I-127000J0D01*
G01*
X118364000Y-74676000D02*
X118364000Y-74168000D01*
X129159000Y-74676000D02*
G75*
G03*
X129159000Y-74676000I-127000J0D01*
G01*
X121539000Y-71628000D02*
G75*
G03*
X121539000Y-71628000I-127000J0D01*
G01*
X143383000Y-74676000D02*
G75*
G03*
X143383000Y-74676000I-127000J0D01*
G01*
X146939000Y-74676000D02*
G75*
G03*
X146939000Y-74676000I-127000J0D01*
G01*
X146812000Y-74676000D02*
X146812000Y-74168000D01*
X125476000Y-71120000D02*
X125476000Y-70612000D01*
X121920000Y-71120000D02*
X121920000Y-70612000D01*
X135763000Y-68072000D02*
G75*
G03*
X135763000Y-68072000I-127000J0D01*
G01*
X129032000Y-71120000D02*
X129032000Y-70612000D01*
X136144000Y-71120000D02*
X136144000Y-70612000D01*
X114935000Y-71120000D02*
G75*
G03*
X114935000Y-71120000I-127000J0D01*
G01*
X120904000Y-68072000D02*
X121412000Y-68072000D01*
X104267000Y-71120000D02*
G75*
G03*
X104267000Y-71120000I-127000J0D01*
G01*
X104140000Y-71120000D02*
X104140000Y-70612000D01*
X139319000Y-68072000D02*
G75*
G03*
X139319000Y-68072000I-127000J0D01*
G01*
X145796000Y-68072000D02*
X146304000Y-68072000D01*
X124460000Y-68072000D02*
X124968000Y-68072000D01*
X138684000Y-68072000D02*
X139192000Y-68072000D01*
X135128000Y-68072000D02*
X135636000Y-68072000D01*
X149352000Y-68072000D02*
X149860000Y-68072000D01*
X132207000Y-68072000D02*
G75*
G03*
X132207000Y-68072000I-127000J0D01*
G01*
X139700000Y-71120000D02*
X139700000Y-70612000D01*
X107696000Y-71120000D02*
X107696000Y-70612000D01*
X131572000Y-68072000D02*
X132080000Y-68072000D01*
X125095000Y-68072000D02*
G75*
G03*
X125095000Y-68072000I-127000J0D01*
G01*
X117983000Y-68072000D02*
G75*
G03*
X117983000Y-68072000I-127000J0D01*
G01*
X143256000Y-71120000D02*
X143256000Y-70612000D01*
X128651000Y-68072000D02*
G75*
G03*
X128651000Y-68072000I-127000J0D01*
G01*
X136271000Y-71120000D02*
G75*
G03*
X136271000Y-71120000I-127000J0D01*
G01*
X113792000Y-68072000D02*
X114300000Y-68072000D01*
X114427000Y-68072000D02*
G75*
G03*
X114427000Y-68072000I-127000J0D01*
G01*
X111379000Y-71120000D02*
G75*
G03*
X111379000Y-71120000I-127000J0D01*
G01*
X114808000Y-71120000D02*
X114808000Y-70612000D01*
X118491000Y-71120000D02*
G75*
G03*
X118491000Y-71120000I-127000J0D01*
G01*
X142875000Y-68072000D02*
G75*
G03*
X142875000Y-68072000I-127000J0D01*
G01*
X111252000Y-71120000D02*
X111252000Y-70612000D01*
X122047000Y-71120000D02*
G75*
G03*
X122047000Y-71120000I-127000J0D01*
G01*
X142240000Y-68072000D02*
X142748000Y-68072000D01*
X107315000Y-68072000D02*
G75*
G03*
X107315000Y-68072000I-127000J0D01*
G01*
X146431000Y-68072000D02*
G75*
G03*
X146431000Y-68072000I-127000J0D01*
G01*
X128016000Y-68072000D02*
X128524000Y-68072000D01*
X132588000Y-71120000D02*
X132588000Y-70612000D01*
X117348000Y-68072000D02*
X117856000Y-68072000D01*
X106680000Y-68072000D02*
X107188000Y-68072000D01*
X125603000Y-71120000D02*
G75*
G03*
X125603000Y-71120000I-127000J0D01*
G01*
X149987000Y-68072000D02*
G75*
G03*
X149987000Y-68072000I-127000J0D01*
G01*
X110871000Y-68072000D02*
G75*
G03*
X110871000Y-68072000I-127000J0D01*
G01*
X139827000Y-71120000D02*
G75*
G03*
X139827000Y-71120000I-127000J0D01*
G01*
X107823000Y-71120000D02*
G75*
G03*
X107823000Y-71120000I-127000J0D01*
G01*
X110236000Y-68072000D02*
X110744000Y-68072000D01*
X132715000Y-71120000D02*
G75*
G03*
X132715000Y-71120000I-127000J0D01*
G01*
X118364000Y-71120000D02*
X118364000Y-70612000D01*
X129159000Y-71120000D02*
G75*
G03*
X129159000Y-71120000I-127000J0D01*
G01*
X121539000Y-68072000D02*
G75*
G03*
X121539000Y-68072000I-127000J0D01*
G01*
X143383000Y-71120000D02*
G75*
G03*
X143383000Y-71120000I-127000J0D01*
G01*
X146939000Y-71120000D02*
G75*
G03*
X146939000Y-71120000I-127000J0D01*
G01*
X146812000Y-71120000D02*
X146812000Y-70612000D01*
X125476000Y-67564000D02*
X125476000Y-67056000D01*
X121920000Y-67564000D02*
X121920000Y-67056000D01*
X135763000Y-64516000D02*
G75*
G03*
X135763000Y-64516000I-127000J0D01*
G01*
X129032000Y-67564000D02*
X129032000Y-67056000D01*
X136144000Y-67564000D02*
X136144000Y-67056000D01*
X114935000Y-67564000D02*
G75*
G03*
X114935000Y-67564000I-127000J0D01*
G01*
X120904000Y-64516000D02*
X121412000Y-64516000D01*
X104267000Y-67564000D02*
G75*
G03*
X104267000Y-67564000I-127000J0D01*
G01*
X104140000Y-67564000D02*
X104140000Y-67056000D01*
X139319000Y-64516000D02*
G75*
G03*
X139319000Y-64516000I-127000J0D01*
G01*
X145796000Y-64516000D02*
X146304000Y-64516000D01*
X124460000Y-64516000D02*
X124968000Y-64516000D01*
X138684000Y-64516000D02*
X139192000Y-64516000D01*
X135128000Y-64516000D02*
X135636000Y-64516000D01*
X149352000Y-64516000D02*
X149860000Y-64516000D01*
X132207000Y-64516000D02*
G75*
G03*
X132207000Y-64516000I-127000J0D01*
G01*
X139700000Y-67564000D02*
X139700000Y-67056000D01*
X107696000Y-67564000D02*
X107696000Y-67056000D01*
X131572000Y-64516000D02*
X132080000Y-64516000D01*
X125095000Y-64516000D02*
G75*
G03*
X125095000Y-64516000I-127000J0D01*
G01*
X117983000Y-64516000D02*
G75*
G03*
X117983000Y-64516000I-127000J0D01*
G01*
X143256000Y-67564000D02*
X143256000Y-67056000D01*
X128651000Y-64516000D02*
G75*
G03*
X128651000Y-64516000I-127000J0D01*
G01*
X136271000Y-67564000D02*
G75*
G03*
X136271000Y-67564000I-127000J0D01*
G01*
X113792000Y-64516000D02*
X114300000Y-64516000D01*
X114427000Y-64516000D02*
G75*
G03*
X114427000Y-64516000I-127000J0D01*
G01*
X111379000Y-67564000D02*
G75*
G03*
X111379000Y-67564000I-127000J0D01*
G01*
X114808000Y-67564000D02*
X114808000Y-67056000D01*
X118491000Y-67564000D02*
G75*
G03*
X118491000Y-67564000I-127000J0D01*
G01*
X142875000Y-64516000D02*
G75*
G03*
X142875000Y-64516000I-127000J0D01*
G01*
X111252000Y-67564000D02*
X111252000Y-67056000D01*
X122047000Y-67564000D02*
G75*
G03*
X122047000Y-67564000I-127000J0D01*
G01*
X142240000Y-64516000D02*
X142748000Y-64516000D01*
X107315000Y-64516000D02*
G75*
G03*
X107315000Y-64516000I-127000J0D01*
G01*
X146431000Y-64516000D02*
G75*
G03*
X146431000Y-64516000I-127000J0D01*
G01*
X128016000Y-64516000D02*
X128524000Y-64516000D01*
X132588000Y-67564000D02*
X132588000Y-67056000D01*
X117348000Y-64516000D02*
X117856000Y-64516000D01*
X106680000Y-64516000D02*
X107188000Y-64516000D01*
X125603000Y-67564000D02*
G75*
G03*
X125603000Y-67564000I-127000J0D01*
G01*
X149987000Y-64516000D02*
G75*
G03*
X149987000Y-64516000I-127000J0D01*
G01*
X110871000Y-64516000D02*
G75*
G03*
X110871000Y-64516000I-127000J0D01*
G01*
X139827000Y-67564000D02*
G75*
G03*
X139827000Y-67564000I-127000J0D01*
G01*
X107823000Y-67564000D02*
G75*
G03*
X107823000Y-67564000I-127000J0D01*
G01*
X110236000Y-64516000D02*
X110744000Y-64516000D01*
X132715000Y-67564000D02*
G75*
G03*
X132715000Y-67564000I-127000J0D01*
G01*
X118364000Y-67564000D02*
X118364000Y-67056000D01*
X129159000Y-67564000D02*
G75*
G03*
X129159000Y-67564000I-127000J0D01*
G01*
X121539000Y-64516000D02*
G75*
G03*
X121539000Y-64516000I-127000J0D01*
G01*
X143383000Y-67564000D02*
G75*
G03*
X143383000Y-67564000I-127000J0D01*
G01*
X146939000Y-67564000D02*
G75*
G03*
X146939000Y-67564000I-127000J0D01*
G01*
X146812000Y-67564000D02*
X146812000Y-67056000D01*
X104140000Y-64008000D02*
X104140000Y-63500000D01*
X104267000Y-64008000D02*
G75*
G03*
X104267000Y-64008000I-127000J0D01*
G01*
X107696000Y-64008000D02*
X107696000Y-63500000D01*
X107823000Y-64008000D02*
G75*
G03*
X107823000Y-64008000I-127000J0D01*
G01*
X111252000Y-64008000D02*
X111252000Y-63500000D01*
X111379000Y-64008000D02*
G75*
G03*
X111379000Y-64008000I-127000J0D01*
G01*
X114808000Y-64008000D02*
X114808000Y-63500000D01*
X114935000Y-64008000D02*
G75*
G03*
X114935000Y-64008000I-127000J0D01*
G01*
X118364000Y-64008000D02*
X118364000Y-63500000D01*
X118491000Y-64008000D02*
G75*
G03*
X118491000Y-64008000I-127000J0D01*
G01*
X121920000Y-64008000D02*
X121920000Y-63500000D01*
X122047000Y-64008000D02*
G75*
G03*
X122047000Y-64008000I-127000J0D01*
G01*
X125476000Y-64008000D02*
X125476000Y-63500000D01*
X125603000Y-64008000D02*
G75*
G03*
X125603000Y-64008000I-127000J0D01*
G01*
X129032000Y-64008000D02*
X129032000Y-63500000D01*
X129159000Y-64008000D02*
G75*
G03*
X129159000Y-64008000I-127000J0D01*
G01*
X132588000Y-64008000D02*
X132588000Y-63500000D01*
X132715000Y-64008000D02*
G75*
G03*
X132715000Y-64008000I-127000J0D01*
G01*
X136144000Y-64008000D02*
X136144000Y-63500000D01*
X136271000Y-64008000D02*
G75*
G03*
X136271000Y-64008000I-127000J0D01*
G01*
X139700000Y-64008000D02*
X139700000Y-63500000D01*
X139827000Y-64008000D02*
G75*
G03*
X139827000Y-64008000I-127000J0D01*
G01*
X146812000Y-64008000D02*
X146812000Y-63500000D01*
X146939000Y-64008000D02*
G75*
G03*
X146939000Y-64008000I-127000J0D01*
G01*
X143383000Y-64008000D02*
G75*
G03*
X143383000Y-64008000I-127000J0D01*
G01*
X143256000Y-64008000D02*
X143256000Y-63500000D01*
X103632000Y-78740000D02*
X93980000Y-78740000D01*
X103632000Y-76200000D02*
X93980000Y-76200000D01*
X103632000Y-73660000D02*
X93980000Y-73660000D01*
X103632000Y-71120000D02*
X93980000Y-71120000D01*
X103632000Y-68580000D02*
X93980000Y-68580000D01*
X103632000Y-66040000D02*
X93980000Y-66040000D01*
X103632000Y-63500000D02*
X93980000Y-63500000D01*
X98044000Y-60960000D02*
X98044000Y-81280000D01*
X103632000Y-60960000D02*
X103632000Y-81280000D01*
D11*
X99631666Y-78017619D02*
X99965000Y-77017619D01*
X100298333Y-78017619D01*
X101203095Y-77112857D02*
X101155476Y-77065238D01*
X101012619Y-77017619D01*
X100917380Y-77017619D01*
X100774523Y-77065238D01*
X100679285Y-77160476D01*
X100631666Y-77255714D01*
X100584047Y-77446190D01*
X100584047Y-77589047D01*
X100631666Y-77779523D01*
X100679285Y-77874761D01*
X100774523Y-77970000D01*
X100917380Y-78017619D01*
X101012619Y-78017619D01*
X101155476Y-77970000D01*
X101203095Y-77922380D01*
X102203095Y-77112857D02*
X102155476Y-77065238D01*
X102012619Y-77017619D01*
X101917380Y-77017619D01*
X101774523Y-77065238D01*
X101679285Y-77160476D01*
X101631666Y-77255714D01*
X101584047Y-77446190D01*
X101584047Y-77589047D01*
X101631666Y-77779523D01*
X101679285Y-77874761D01*
X101774523Y-77970000D01*
X101917380Y-78017619D01*
X102012619Y-78017619D01*
X102155476Y-77970000D01*
X102203095Y-77922380D01*
X100203095Y-75430000D02*
X100107857Y-75477619D01*
X99965000Y-75477619D01*
X99822142Y-75430000D01*
X99726904Y-75334761D01*
X99679285Y-75239523D01*
X99631666Y-75049047D01*
X99631666Y-74906190D01*
X99679285Y-74715714D01*
X99726904Y-74620476D01*
X99822142Y-74525238D01*
X99965000Y-74477619D01*
X100060238Y-74477619D01*
X100203095Y-74525238D01*
X100250714Y-74572857D01*
X100250714Y-74906190D01*
X100060238Y-74906190D01*
X100679285Y-74477619D02*
X100679285Y-75477619D01*
X101250714Y-74477619D01*
X101250714Y-75477619D01*
X101726904Y-74477619D02*
X101726904Y-75477619D01*
X101965000Y-75477619D01*
X102107857Y-75430000D01*
X102203095Y-75334761D01*
X102250714Y-75239523D01*
X102298333Y-75049047D01*
X102298333Y-74906190D01*
X102250714Y-74715714D01*
X102203095Y-74620476D01*
X102107857Y-74525238D01*
X101965000Y-74477619D01*
X101726904Y-74477619D01*
X99631666Y-71985238D02*
X99774523Y-71937619D01*
X100012619Y-71937619D01*
X100107857Y-71985238D01*
X100155476Y-72032857D01*
X100203095Y-72128095D01*
X100203095Y-72223333D01*
X100155476Y-72318571D01*
X100107857Y-72366190D01*
X100012619Y-72413809D01*
X99822142Y-72461428D01*
X99726904Y-72509047D01*
X99679285Y-72556666D01*
X99631666Y-72651904D01*
X99631666Y-72747142D01*
X99679285Y-72842380D01*
X99726904Y-72890000D01*
X99822142Y-72937619D01*
X100060238Y-72937619D01*
X100203095Y-72890000D01*
X100536428Y-72937619D02*
X100774523Y-71937619D01*
X100965000Y-72651904D01*
X101155476Y-71937619D01*
X101393571Y-72937619D01*
X101726904Y-72842380D02*
X101774523Y-72890000D01*
X101869761Y-72937619D01*
X102107857Y-72937619D01*
X102203095Y-72890000D01*
X102250714Y-72842380D01*
X102298333Y-72747142D01*
X102298333Y-72651904D01*
X102250714Y-72509047D01*
X101679285Y-71937619D01*
X102298333Y-71937619D01*
X99631666Y-69445238D02*
X99774523Y-69397619D01*
X100012619Y-69397619D01*
X100107857Y-69445238D01*
X100155476Y-69492857D01*
X100203095Y-69588095D01*
X100203095Y-69683333D01*
X100155476Y-69778571D01*
X100107857Y-69826190D01*
X100012619Y-69873809D01*
X99822142Y-69921428D01*
X99726904Y-69969047D01*
X99679285Y-70016666D01*
X99631666Y-70111904D01*
X99631666Y-70207142D01*
X99679285Y-70302380D01*
X99726904Y-70350000D01*
X99822142Y-70397619D01*
X100060238Y-70397619D01*
X100203095Y-70350000D01*
X100536428Y-70397619D02*
X100774523Y-69397619D01*
X100965000Y-70111904D01*
X101155476Y-69397619D01*
X101393571Y-70397619D01*
X102298333Y-69397619D02*
X101726904Y-69397619D01*
X102012619Y-69397619D02*
X102012619Y-70397619D01*
X101917380Y-70254761D01*
X101822142Y-70159523D01*
X101726904Y-70111904D01*
X100369761Y-66952857D02*
X100322142Y-66905238D01*
X100179285Y-66857619D01*
X100084047Y-66857619D01*
X99941190Y-66905238D01*
X99845952Y-67000476D01*
X99798333Y-67095714D01*
X99750714Y-67286190D01*
X99750714Y-67429047D01*
X99798333Y-67619523D01*
X99845952Y-67714761D01*
X99941190Y-67810000D01*
X100084047Y-67857619D01*
X100179285Y-67857619D01*
X100322142Y-67810000D01*
X100369761Y-67762380D01*
X101274523Y-66857619D02*
X100798333Y-66857619D01*
X100798333Y-67857619D01*
X101607857Y-66857619D02*
X101607857Y-67857619D01*
X102179285Y-66857619D02*
X101750714Y-67429047D01*
X102179285Y-67857619D02*
X101607857Y-67286190D01*
X99941190Y-64317619D02*
X99941190Y-65317619D01*
X100179285Y-65317619D01*
X100322142Y-65270000D01*
X100417380Y-65174761D01*
X100465000Y-65079523D01*
X100512619Y-64889047D01*
X100512619Y-64746190D01*
X100465000Y-64555714D01*
X100417380Y-64460476D01*
X100322142Y-64365238D01*
X100179285Y-64317619D01*
X99941190Y-64317619D01*
X100941190Y-64317619D02*
X100941190Y-65317619D01*
X101417380Y-64317619D02*
X101417380Y-65317619D01*
X101988809Y-64317619D01*
X101988809Y-65317619D01*
%TO.C,REF\u002A\u002A*%
X152146000Y-65278000D02*
X151638000Y-64770000D01*
X151638000Y-64770000D02*
X151130000Y-66294000D01*
X151130000Y-66294000D02*
X152654000Y-65786000D01*
X152654000Y-65786000D02*
X152146000Y-65278000D01*
X152146000Y-65278000D02*
X152908000Y-64516000D01*
X151130000Y-66294000D02*
X150622000Y-65786000D01*
X151130000Y-66294000D02*
X151638000Y-66802000D01*
X151130000Y-66294000D02*
X150368000Y-67056000D01*
X152654000Y-66040000D02*
X152654000Y-66802000D01*
X152654000Y-66802000D02*
X152908000Y-66548000D01*
X152908000Y-66548000D02*
X152400000Y-66548000D01*
X152400000Y-66548000D02*
X152654000Y-66802000D01*
X152146000Y-66294000D02*
X152146000Y-67056000D01*
X152146000Y-67056000D02*
X152400000Y-66802000D01*
X152400000Y-66802000D02*
X151892000Y-66802000D01*
X151892000Y-66802000D02*
X152146000Y-67056000D01*
X152146000Y-72390000D02*
X151638000Y-71882000D01*
X151638000Y-71882000D02*
X151130000Y-73406000D01*
X151130000Y-73406000D02*
X152654000Y-72898000D01*
X152654000Y-72898000D02*
X152146000Y-72390000D01*
X152146000Y-72390000D02*
X152908000Y-71628000D01*
X151130000Y-73406000D02*
X150622000Y-72898000D01*
X151130000Y-73406000D02*
X151638000Y-73914000D01*
X151130000Y-73406000D02*
X150368000Y-74168000D01*
X152654000Y-73152000D02*
X152654000Y-73914000D01*
X152654000Y-73914000D02*
X152908000Y-73660000D01*
X152908000Y-73660000D02*
X152400000Y-73660000D01*
X152400000Y-73660000D02*
X152654000Y-73914000D01*
X152146000Y-73406000D02*
X152146000Y-74168000D01*
X152146000Y-74168000D02*
X152400000Y-73914000D01*
X152400000Y-73914000D02*
X151892000Y-73914000D01*
X151892000Y-73914000D02*
X152146000Y-74168000D01*
X152146000Y-68834000D02*
X151638000Y-68326000D01*
X151638000Y-68326000D02*
X151130000Y-69850000D01*
X151130000Y-69850000D02*
X152654000Y-69342000D01*
X152654000Y-69342000D02*
X152146000Y-68834000D01*
X152146000Y-68834000D02*
X152908000Y-68072000D01*
X151130000Y-69850000D02*
X150622000Y-69342000D01*
X151130000Y-69850000D02*
X151638000Y-70358000D01*
X151130000Y-69850000D02*
X150368000Y-70612000D01*
X152654000Y-69596000D02*
X152654000Y-70358000D01*
X152654000Y-70358000D02*
X152908000Y-70104000D01*
X152908000Y-70104000D02*
X152400000Y-70104000D01*
X152400000Y-70104000D02*
X152654000Y-70358000D01*
X152146000Y-69850000D02*
X152146000Y-70612000D01*
X152146000Y-70612000D02*
X152400000Y-70358000D01*
X152400000Y-70358000D02*
X151892000Y-70358000D01*
X151892000Y-70358000D02*
X152146000Y-70612000D01*
X152146000Y-61722000D02*
X151638000Y-61214000D01*
X151638000Y-61214000D02*
X151130000Y-62738000D01*
X151130000Y-62738000D02*
X152654000Y-62230000D01*
X152654000Y-62230000D02*
X152146000Y-61722000D01*
X152146000Y-61722000D02*
X152908000Y-60960000D01*
X151130000Y-62738000D02*
X150622000Y-62230000D01*
X151130000Y-62738000D02*
X151638000Y-63246000D01*
X151130000Y-62738000D02*
X150368000Y-63500000D01*
X152654000Y-62484000D02*
X152654000Y-63246000D01*
X152654000Y-63246000D02*
X152908000Y-62992000D01*
X152908000Y-62992000D02*
X152400000Y-62992000D01*
X152400000Y-62992000D02*
X152654000Y-63246000D01*
X152146000Y-62738000D02*
X152146000Y-63500000D01*
X152146000Y-63500000D02*
X152400000Y-63246000D01*
X152400000Y-63246000D02*
X151892000Y-63246000D01*
X151892000Y-63246000D02*
X152146000Y-63500000D01*
X152146000Y-79502000D02*
X151638000Y-78994000D01*
X151638000Y-78994000D02*
X151130000Y-80518000D01*
X151130000Y-80518000D02*
X152654000Y-80010000D01*
X152654000Y-80010000D02*
X152146000Y-79502000D01*
X152146000Y-79502000D02*
X152908000Y-78740000D01*
X151130000Y-80518000D02*
X150622000Y-80010000D01*
X151130000Y-80518000D02*
X151638000Y-81026000D01*
X151130000Y-80518000D02*
X150368000Y-81280000D01*
X152654000Y-80264000D02*
X152654000Y-81026000D01*
X152654000Y-81026000D02*
X152908000Y-80772000D01*
X152908000Y-80772000D02*
X152400000Y-80772000D01*
X152400000Y-80772000D02*
X152654000Y-81026000D01*
X152146000Y-80518000D02*
X152146000Y-81280000D01*
X152146000Y-81280000D02*
X152400000Y-81026000D01*
X152400000Y-81026000D02*
X151892000Y-81026000D01*
X151892000Y-81026000D02*
X152146000Y-81280000D01*
X152146000Y-75946000D02*
X151638000Y-75438000D01*
X151638000Y-75438000D02*
X151130000Y-76962000D01*
X151130000Y-76962000D02*
X152654000Y-76454000D01*
X152654000Y-76454000D02*
X152146000Y-75946000D01*
X152146000Y-75946000D02*
X152908000Y-75184000D01*
X151130000Y-76962000D02*
X150622000Y-76454000D01*
X151130000Y-76962000D02*
X151638000Y-77470000D01*
X151130000Y-76962000D02*
X150368000Y-77724000D01*
X152654000Y-76708000D02*
X152654000Y-77470000D01*
X152654000Y-77470000D02*
X152908000Y-77216000D01*
X152908000Y-77216000D02*
X152400000Y-77216000D01*
X152400000Y-77216000D02*
X152654000Y-77470000D01*
X152146000Y-76962000D02*
X152146000Y-77724000D01*
X152146000Y-77724000D02*
X152400000Y-77470000D01*
X152400000Y-77470000D02*
X151892000Y-77470000D01*
X151892000Y-77470000D02*
X152146000Y-77724000D01*
X137922000Y-79502000D02*
X137414000Y-78994000D01*
X137414000Y-78994000D02*
X136906000Y-80518000D01*
X136906000Y-80518000D02*
X138430000Y-80010000D01*
X138430000Y-80010000D02*
X137922000Y-79502000D01*
X137922000Y-79502000D02*
X138684000Y-78740000D01*
X136906000Y-80518000D02*
X136398000Y-80010000D01*
X136906000Y-80518000D02*
X137414000Y-81026000D01*
X136906000Y-80518000D02*
X136144000Y-81280000D01*
X138430000Y-80264000D02*
X138430000Y-81026000D01*
X138430000Y-81026000D02*
X138684000Y-80772000D01*
X138684000Y-80772000D02*
X138176000Y-80772000D01*
X138176000Y-80772000D02*
X138430000Y-81026000D01*
X137922000Y-80518000D02*
X137922000Y-81280000D01*
X137922000Y-81280000D02*
X138176000Y-81026000D01*
X138176000Y-81026000D02*
X137668000Y-81026000D01*
X137668000Y-81026000D02*
X137922000Y-81280000D01*
X134366000Y-79502000D02*
X133858000Y-78994000D01*
X133858000Y-78994000D02*
X133350000Y-80518000D01*
X133350000Y-80518000D02*
X134874000Y-80010000D01*
X134874000Y-80010000D02*
X134366000Y-79502000D01*
X134366000Y-79502000D02*
X135128000Y-78740000D01*
X133350000Y-80518000D02*
X132842000Y-80010000D01*
X133350000Y-80518000D02*
X133858000Y-81026000D01*
X133350000Y-80518000D02*
X132588000Y-81280000D01*
X134874000Y-80264000D02*
X134874000Y-81026000D01*
X134874000Y-81026000D02*
X135128000Y-80772000D01*
X135128000Y-80772000D02*
X134620000Y-80772000D01*
X134620000Y-80772000D02*
X134874000Y-81026000D01*
X134366000Y-80518000D02*
X134366000Y-81280000D01*
X134366000Y-81280000D02*
X134620000Y-81026000D01*
X134620000Y-81026000D02*
X134112000Y-81026000D01*
X134112000Y-81026000D02*
X134366000Y-81280000D01*
X130810000Y-79502000D02*
X130302000Y-78994000D01*
X130302000Y-78994000D02*
X129794000Y-80518000D01*
X129794000Y-80518000D02*
X131318000Y-80010000D01*
X131318000Y-80010000D02*
X130810000Y-79502000D01*
X130810000Y-79502000D02*
X131572000Y-78740000D01*
X129794000Y-80518000D02*
X129286000Y-80010000D01*
X129794000Y-80518000D02*
X130302000Y-81026000D01*
X129794000Y-80518000D02*
X129032000Y-81280000D01*
X131318000Y-80264000D02*
X131318000Y-81026000D01*
X131318000Y-81026000D02*
X131572000Y-80772000D01*
X131572000Y-80772000D02*
X131064000Y-80772000D01*
X131064000Y-80772000D02*
X131318000Y-81026000D01*
X130810000Y-80518000D02*
X130810000Y-81280000D01*
X130810000Y-81280000D02*
X131064000Y-81026000D01*
X131064000Y-81026000D02*
X130556000Y-81026000D01*
X130556000Y-81026000D02*
X130810000Y-81280000D01*
X120142000Y-79502000D02*
X119634000Y-78994000D01*
X119634000Y-78994000D02*
X119126000Y-80518000D01*
X119126000Y-80518000D02*
X120650000Y-80010000D01*
X120650000Y-80010000D02*
X120142000Y-79502000D01*
X120142000Y-79502000D02*
X120904000Y-78740000D01*
X119126000Y-80518000D02*
X118618000Y-80010000D01*
X119126000Y-80518000D02*
X119634000Y-81026000D01*
X119126000Y-80518000D02*
X118364000Y-81280000D01*
X120650000Y-80264000D02*
X120650000Y-81026000D01*
X120650000Y-81026000D02*
X120904000Y-80772000D01*
X120904000Y-80772000D02*
X120396000Y-80772000D01*
X120396000Y-80772000D02*
X120650000Y-81026000D01*
X120142000Y-80518000D02*
X120142000Y-81280000D01*
X120142000Y-81280000D02*
X120396000Y-81026000D01*
X120396000Y-81026000D02*
X119888000Y-81026000D01*
X119888000Y-81026000D02*
X120142000Y-81280000D01*
X105918000Y-79502000D02*
X105410000Y-78994000D01*
X105410000Y-78994000D02*
X104902000Y-80518000D01*
X104902000Y-80518000D02*
X106426000Y-80010000D01*
X106426000Y-80010000D02*
X105918000Y-79502000D01*
X105918000Y-79502000D02*
X106680000Y-78740000D01*
X104902000Y-80518000D02*
X104394000Y-80010000D01*
X104902000Y-80518000D02*
X105410000Y-81026000D01*
X104902000Y-80518000D02*
X104140000Y-81280000D01*
X106426000Y-80264000D02*
X106426000Y-81026000D01*
X106426000Y-81026000D02*
X106680000Y-80772000D01*
X106680000Y-80772000D02*
X106172000Y-80772000D01*
X106172000Y-80772000D02*
X106426000Y-81026000D01*
X105918000Y-80518000D02*
X105918000Y-81280000D01*
X105918000Y-81280000D02*
X106172000Y-81026000D01*
X106172000Y-81026000D02*
X105664000Y-81026000D01*
X105664000Y-81026000D02*
X105918000Y-81280000D01*
X148590000Y-79502000D02*
X148082000Y-78994000D01*
X148082000Y-78994000D02*
X147574000Y-80518000D01*
X147574000Y-80518000D02*
X149098000Y-80010000D01*
X149098000Y-80010000D02*
X148590000Y-79502000D01*
X148590000Y-79502000D02*
X149352000Y-78740000D01*
X147574000Y-80518000D02*
X147066000Y-80010000D01*
X147574000Y-80518000D02*
X148082000Y-81026000D01*
X147574000Y-80518000D02*
X146812000Y-81280000D01*
X149098000Y-80264000D02*
X149098000Y-81026000D01*
X149098000Y-81026000D02*
X149352000Y-80772000D01*
X149352000Y-80772000D02*
X148844000Y-80772000D01*
X148844000Y-80772000D02*
X149098000Y-81026000D01*
X148590000Y-80518000D02*
X148590000Y-81280000D01*
X148590000Y-81280000D02*
X148844000Y-81026000D01*
X148844000Y-81026000D02*
X148336000Y-81026000D01*
X148336000Y-81026000D02*
X148590000Y-81280000D01*
X109474000Y-79502000D02*
X108966000Y-78994000D01*
X108966000Y-78994000D02*
X108458000Y-80518000D01*
X108458000Y-80518000D02*
X109982000Y-80010000D01*
X109982000Y-80010000D02*
X109474000Y-79502000D01*
X109474000Y-79502000D02*
X110236000Y-78740000D01*
X108458000Y-80518000D02*
X107950000Y-80010000D01*
X108458000Y-80518000D02*
X108966000Y-81026000D01*
X108458000Y-80518000D02*
X107696000Y-81280000D01*
X109982000Y-80264000D02*
X109982000Y-81026000D01*
X109982000Y-81026000D02*
X110236000Y-80772000D01*
X110236000Y-80772000D02*
X109728000Y-80772000D01*
X109728000Y-80772000D02*
X109982000Y-81026000D01*
X109474000Y-80518000D02*
X109474000Y-81280000D01*
X109474000Y-81280000D02*
X109728000Y-81026000D01*
X109728000Y-81026000D02*
X109220000Y-81026000D01*
X109220000Y-81026000D02*
X109474000Y-81280000D01*
X123698000Y-79502000D02*
X123190000Y-78994000D01*
X123190000Y-78994000D02*
X122682000Y-80518000D01*
X122682000Y-80518000D02*
X124206000Y-80010000D01*
X124206000Y-80010000D02*
X123698000Y-79502000D01*
X123698000Y-79502000D02*
X124460000Y-78740000D01*
X122682000Y-80518000D02*
X122174000Y-80010000D01*
X122682000Y-80518000D02*
X123190000Y-81026000D01*
X122682000Y-80518000D02*
X121920000Y-81280000D01*
X124206000Y-80264000D02*
X124206000Y-81026000D01*
X124206000Y-81026000D02*
X124460000Y-80772000D01*
X124460000Y-80772000D02*
X123952000Y-80772000D01*
X123952000Y-80772000D02*
X124206000Y-81026000D01*
X123698000Y-80518000D02*
X123698000Y-81280000D01*
X123698000Y-81280000D02*
X123952000Y-81026000D01*
X123952000Y-81026000D02*
X123444000Y-81026000D01*
X123444000Y-81026000D02*
X123698000Y-81280000D01*
X127254000Y-79502000D02*
X126746000Y-78994000D01*
X126746000Y-78994000D02*
X126238000Y-80518000D01*
X126238000Y-80518000D02*
X127762000Y-80010000D01*
X127762000Y-80010000D02*
X127254000Y-79502000D01*
X127254000Y-79502000D02*
X128016000Y-78740000D01*
X126238000Y-80518000D02*
X125730000Y-80010000D01*
X126238000Y-80518000D02*
X126746000Y-81026000D01*
X126238000Y-80518000D02*
X125476000Y-81280000D01*
X127762000Y-80264000D02*
X127762000Y-81026000D01*
X127762000Y-81026000D02*
X128016000Y-80772000D01*
X128016000Y-80772000D02*
X127508000Y-80772000D01*
X127508000Y-80772000D02*
X127762000Y-81026000D01*
X127254000Y-80518000D02*
X127254000Y-81280000D01*
X127254000Y-81280000D02*
X127508000Y-81026000D01*
X127508000Y-81026000D02*
X127000000Y-81026000D01*
X127000000Y-81026000D02*
X127254000Y-81280000D01*
X141478000Y-79502000D02*
X140970000Y-78994000D01*
X140970000Y-78994000D02*
X140462000Y-80518000D01*
X140462000Y-80518000D02*
X141986000Y-80010000D01*
X141986000Y-80010000D02*
X141478000Y-79502000D01*
X141478000Y-79502000D02*
X142240000Y-78740000D01*
X140462000Y-80518000D02*
X139954000Y-80010000D01*
X140462000Y-80518000D02*
X140970000Y-81026000D01*
X140462000Y-80518000D02*
X139700000Y-81280000D01*
X141986000Y-80264000D02*
X141986000Y-81026000D01*
X141986000Y-81026000D02*
X142240000Y-80772000D01*
X142240000Y-80772000D02*
X141732000Y-80772000D01*
X141732000Y-80772000D02*
X141986000Y-81026000D01*
X141478000Y-80518000D02*
X141478000Y-81280000D01*
X141478000Y-81280000D02*
X141732000Y-81026000D01*
X141732000Y-81026000D02*
X141224000Y-81026000D01*
X141224000Y-81026000D02*
X141478000Y-81280000D01*
X113030000Y-79502000D02*
X112522000Y-78994000D01*
X112522000Y-78994000D02*
X112014000Y-80518000D01*
X112014000Y-80518000D02*
X113538000Y-80010000D01*
X113538000Y-80010000D02*
X113030000Y-79502000D01*
X113030000Y-79502000D02*
X113792000Y-78740000D01*
X112014000Y-80518000D02*
X111506000Y-80010000D01*
X112014000Y-80518000D02*
X112522000Y-81026000D01*
X112014000Y-80518000D02*
X111252000Y-81280000D01*
X113538000Y-80264000D02*
X113538000Y-81026000D01*
X113538000Y-81026000D02*
X113792000Y-80772000D01*
X113792000Y-80772000D02*
X113284000Y-80772000D01*
X113284000Y-80772000D02*
X113538000Y-81026000D01*
X113030000Y-80518000D02*
X113030000Y-81280000D01*
X113030000Y-81280000D02*
X113284000Y-81026000D01*
X113284000Y-81026000D02*
X112776000Y-81026000D01*
X112776000Y-81026000D02*
X113030000Y-81280000D01*
X145034000Y-79502000D02*
X144526000Y-78994000D01*
X144526000Y-78994000D02*
X144018000Y-80518000D01*
X144018000Y-80518000D02*
X145542000Y-80010000D01*
X145542000Y-80010000D02*
X145034000Y-79502000D01*
X145034000Y-79502000D02*
X145796000Y-78740000D01*
X144018000Y-80518000D02*
X143510000Y-80010000D01*
X144018000Y-80518000D02*
X144526000Y-81026000D01*
X144018000Y-80518000D02*
X143256000Y-81280000D01*
X145542000Y-80264000D02*
X145542000Y-81026000D01*
X145542000Y-81026000D02*
X145796000Y-80772000D01*
X145796000Y-80772000D02*
X145288000Y-80772000D01*
X145288000Y-80772000D02*
X145542000Y-81026000D01*
X145034000Y-80518000D02*
X145034000Y-81280000D01*
X145034000Y-81280000D02*
X145288000Y-81026000D01*
X145288000Y-81026000D02*
X144780000Y-81026000D01*
X144780000Y-81026000D02*
X145034000Y-81280000D01*
X116586000Y-79502000D02*
X116078000Y-78994000D01*
X116078000Y-78994000D02*
X115570000Y-80518000D01*
X115570000Y-80518000D02*
X117094000Y-80010000D01*
X117094000Y-80010000D02*
X116586000Y-79502000D01*
X116586000Y-79502000D02*
X117348000Y-78740000D01*
X115570000Y-80518000D02*
X115062000Y-80010000D01*
X115570000Y-80518000D02*
X116078000Y-81026000D01*
X115570000Y-80518000D02*
X114808000Y-81280000D01*
X117094000Y-80264000D02*
X117094000Y-81026000D01*
X117094000Y-81026000D02*
X117348000Y-80772000D01*
X117348000Y-80772000D02*
X116840000Y-80772000D01*
X116840000Y-80772000D02*
X117094000Y-81026000D01*
X116586000Y-80518000D02*
X116586000Y-81280000D01*
X116586000Y-81280000D02*
X116840000Y-81026000D01*
X116840000Y-81026000D02*
X116332000Y-81026000D01*
X116332000Y-81026000D02*
X116586000Y-81280000D01*
X137922000Y-75946000D02*
X137414000Y-75438000D01*
X137414000Y-75438000D02*
X136906000Y-76962000D01*
X136906000Y-76962000D02*
X138430000Y-76454000D01*
X138430000Y-76454000D02*
X137922000Y-75946000D01*
X137922000Y-75946000D02*
X138684000Y-75184000D01*
X136906000Y-76962000D02*
X136398000Y-76454000D01*
X136906000Y-76962000D02*
X137414000Y-77470000D01*
X136906000Y-76962000D02*
X136144000Y-77724000D01*
X138430000Y-76708000D02*
X138430000Y-77470000D01*
X138430000Y-77470000D02*
X138684000Y-77216000D01*
X138684000Y-77216000D02*
X138176000Y-77216000D01*
X138176000Y-77216000D02*
X138430000Y-77470000D01*
X137922000Y-76962000D02*
X137922000Y-77724000D01*
X137922000Y-77724000D02*
X138176000Y-77470000D01*
X138176000Y-77470000D02*
X137668000Y-77470000D01*
X137668000Y-77470000D02*
X137922000Y-77724000D01*
X134366000Y-75946000D02*
X133858000Y-75438000D01*
X133858000Y-75438000D02*
X133350000Y-76962000D01*
X133350000Y-76962000D02*
X134874000Y-76454000D01*
X134874000Y-76454000D02*
X134366000Y-75946000D01*
X134366000Y-75946000D02*
X135128000Y-75184000D01*
X133350000Y-76962000D02*
X132842000Y-76454000D01*
X133350000Y-76962000D02*
X133858000Y-77470000D01*
X133350000Y-76962000D02*
X132588000Y-77724000D01*
X134874000Y-76708000D02*
X134874000Y-77470000D01*
X134874000Y-77470000D02*
X135128000Y-77216000D01*
X135128000Y-77216000D02*
X134620000Y-77216000D01*
X134620000Y-77216000D02*
X134874000Y-77470000D01*
X134366000Y-76962000D02*
X134366000Y-77724000D01*
X134366000Y-77724000D02*
X134620000Y-77470000D01*
X134620000Y-77470000D02*
X134112000Y-77470000D01*
X134112000Y-77470000D02*
X134366000Y-77724000D01*
X130810000Y-75946000D02*
X130302000Y-75438000D01*
X130302000Y-75438000D02*
X129794000Y-76962000D01*
X129794000Y-76962000D02*
X131318000Y-76454000D01*
X131318000Y-76454000D02*
X130810000Y-75946000D01*
X130810000Y-75946000D02*
X131572000Y-75184000D01*
X129794000Y-76962000D02*
X129286000Y-76454000D01*
X129794000Y-76962000D02*
X130302000Y-77470000D01*
X129794000Y-76962000D02*
X129032000Y-77724000D01*
X131318000Y-76708000D02*
X131318000Y-77470000D01*
X131318000Y-77470000D02*
X131572000Y-77216000D01*
X131572000Y-77216000D02*
X131064000Y-77216000D01*
X131064000Y-77216000D02*
X131318000Y-77470000D01*
X130810000Y-76962000D02*
X130810000Y-77724000D01*
X130810000Y-77724000D02*
X131064000Y-77470000D01*
X131064000Y-77470000D02*
X130556000Y-77470000D01*
X130556000Y-77470000D02*
X130810000Y-77724000D01*
X120142000Y-75946000D02*
X119634000Y-75438000D01*
X119634000Y-75438000D02*
X119126000Y-76962000D01*
X119126000Y-76962000D02*
X120650000Y-76454000D01*
X120650000Y-76454000D02*
X120142000Y-75946000D01*
X120142000Y-75946000D02*
X120904000Y-75184000D01*
X119126000Y-76962000D02*
X118618000Y-76454000D01*
X119126000Y-76962000D02*
X119634000Y-77470000D01*
X119126000Y-76962000D02*
X118364000Y-77724000D01*
X120650000Y-76708000D02*
X120650000Y-77470000D01*
X120650000Y-77470000D02*
X120904000Y-77216000D01*
X120904000Y-77216000D02*
X120396000Y-77216000D01*
X120396000Y-77216000D02*
X120650000Y-77470000D01*
X120142000Y-76962000D02*
X120142000Y-77724000D01*
X120142000Y-77724000D02*
X120396000Y-77470000D01*
X120396000Y-77470000D02*
X119888000Y-77470000D01*
X119888000Y-77470000D02*
X120142000Y-77724000D01*
X105918000Y-75946000D02*
X105410000Y-75438000D01*
X105410000Y-75438000D02*
X104902000Y-76962000D01*
X104902000Y-76962000D02*
X106426000Y-76454000D01*
X106426000Y-76454000D02*
X105918000Y-75946000D01*
X105918000Y-75946000D02*
X106680000Y-75184000D01*
X104902000Y-76962000D02*
X104394000Y-76454000D01*
X104902000Y-76962000D02*
X105410000Y-77470000D01*
X104902000Y-76962000D02*
X104140000Y-77724000D01*
X106426000Y-76708000D02*
X106426000Y-77470000D01*
X106426000Y-77470000D02*
X106680000Y-77216000D01*
X106680000Y-77216000D02*
X106172000Y-77216000D01*
X106172000Y-77216000D02*
X106426000Y-77470000D01*
X105918000Y-76962000D02*
X105918000Y-77724000D01*
X105918000Y-77724000D02*
X106172000Y-77470000D01*
X106172000Y-77470000D02*
X105664000Y-77470000D01*
X105664000Y-77470000D02*
X105918000Y-77724000D01*
X148590000Y-75946000D02*
X148082000Y-75438000D01*
X148082000Y-75438000D02*
X147574000Y-76962000D01*
X147574000Y-76962000D02*
X149098000Y-76454000D01*
X149098000Y-76454000D02*
X148590000Y-75946000D01*
X148590000Y-75946000D02*
X149352000Y-75184000D01*
X147574000Y-76962000D02*
X147066000Y-76454000D01*
X147574000Y-76962000D02*
X148082000Y-77470000D01*
X147574000Y-76962000D02*
X146812000Y-77724000D01*
X149098000Y-76708000D02*
X149098000Y-77470000D01*
X149098000Y-77470000D02*
X149352000Y-77216000D01*
X149352000Y-77216000D02*
X148844000Y-77216000D01*
X148844000Y-77216000D02*
X149098000Y-77470000D01*
X148590000Y-76962000D02*
X148590000Y-77724000D01*
X148590000Y-77724000D02*
X148844000Y-77470000D01*
X148844000Y-77470000D02*
X148336000Y-77470000D01*
X148336000Y-77470000D02*
X148590000Y-77724000D01*
X109474000Y-75946000D02*
X108966000Y-75438000D01*
X108966000Y-75438000D02*
X108458000Y-76962000D01*
X108458000Y-76962000D02*
X109982000Y-76454000D01*
X109982000Y-76454000D02*
X109474000Y-75946000D01*
X109474000Y-75946000D02*
X110236000Y-75184000D01*
X108458000Y-76962000D02*
X107950000Y-76454000D01*
X108458000Y-76962000D02*
X108966000Y-77470000D01*
X108458000Y-76962000D02*
X107696000Y-77724000D01*
X109982000Y-76708000D02*
X109982000Y-77470000D01*
X109982000Y-77470000D02*
X110236000Y-77216000D01*
X110236000Y-77216000D02*
X109728000Y-77216000D01*
X109728000Y-77216000D02*
X109982000Y-77470000D01*
X109474000Y-76962000D02*
X109474000Y-77724000D01*
X109474000Y-77724000D02*
X109728000Y-77470000D01*
X109728000Y-77470000D02*
X109220000Y-77470000D01*
X109220000Y-77470000D02*
X109474000Y-77724000D01*
X123698000Y-75946000D02*
X123190000Y-75438000D01*
X123190000Y-75438000D02*
X122682000Y-76962000D01*
X122682000Y-76962000D02*
X124206000Y-76454000D01*
X124206000Y-76454000D02*
X123698000Y-75946000D01*
X123698000Y-75946000D02*
X124460000Y-75184000D01*
X122682000Y-76962000D02*
X122174000Y-76454000D01*
X122682000Y-76962000D02*
X123190000Y-77470000D01*
X122682000Y-76962000D02*
X121920000Y-77724000D01*
X124206000Y-76708000D02*
X124206000Y-77470000D01*
X124206000Y-77470000D02*
X124460000Y-77216000D01*
X124460000Y-77216000D02*
X123952000Y-77216000D01*
X123952000Y-77216000D02*
X124206000Y-77470000D01*
X123698000Y-76962000D02*
X123698000Y-77724000D01*
X123698000Y-77724000D02*
X123952000Y-77470000D01*
X123952000Y-77470000D02*
X123444000Y-77470000D01*
X123444000Y-77470000D02*
X123698000Y-77724000D01*
X127254000Y-75946000D02*
X126746000Y-75438000D01*
X126746000Y-75438000D02*
X126238000Y-76962000D01*
X126238000Y-76962000D02*
X127762000Y-76454000D01*
X127762000Y-76454000D02*
X127254000Y-75946000D01*
X127254000Y-75946000D02*
X128016000Y-75184000D01*
X126238000Y-76962000D02*
X125730000Y-76454000D01*
X126238000Y-76962000D02*
X126746000Y-77470000D01*
X126238000Y-76962000D02*
X125476000Y-77724000D01*
X127762000Y-76708000D02*
X127762000Y-77470000D01*
X127762000Y-77470000D02*
X128016000Y-77216000D01*
X128016000Y-77216000D02*
X127508000Y-77216000D01*
X127508000Y-77216000D02*
X127762000Y-77470000D01*
X127254000Y-76962000D02*
X127254000Y-77724000D01*
X127254000Y-77724000D02*
X127508000Y-77470000D01*
X127508000Y-77470000D02*
X127000000Y-77470000D01*
X127000000Y-77470000D02*
X127254000Y-77724000D01*
X141478000Y-75946000D02*
X140970000Y-75438000D01*
X140970000Y-75438000D02*
X140462000Y-76962000D01*
X140462000Y-76962000D02*
X141986000Y-76454000D01*
X141986000Y-76454000D02*
X141478000Y-75946000D01*
X141478000Y-75946000D02*
X142240000Y-75184000D01*
X140462000Y-76962000D02*
X139954000Y-76454000D01*
X140462000Y-76962000D02*
X140970000Y-77470000D01*
X140462000Y-76962000D02*
X139700000Y-77724000D01*
X141986000Y-76708000D02*
X141986000Y-77470000D01*
X141986000Y-77470000D02*
X142240000Y-77216000D01*
X142240000Y-77216000D02*
X141732000Y-77216000D01*
X141732000Y-77216000D02*
X141986000Y-77470000D01*
X141478000Y-76962000D02*
X141478000Y-77724000D01*
X141478000Y-77724000D02*
X141732000Y-77470000D01*
X141732000Y-77470000D02*
X141224000Y-77470000D01*
X141224000Y-77470000D02*
X141478000Y-77724000D01*
X113030000Y-75946000D02*
X112522000Y-75438000D01*
X112522000Y-75438000D02*
X112014000Y-76962000D01*
X112014000Y-76962000D02*
X113538000Y-76454000D01*
X113538000Y-76454000D02*
X113030000Y-75946000D01*
X113030000Y-75946000D02*
X113792000Y-75184000D01*
X112014000Y-76962000D02*
X111506000Y-76454000D01*
X112014000Y-76962000D02*
X112522000Y-77470000D01*
X112014000Y-76962000D02*
X111252000Y-77724000D01*
X113538000Y-76708000D02*
X113538000Y-77470000D01*
X113538000Y-77470000D02*
X113792000Y-77216000D01*
X113792000Y-77216000D02*
X113284000Y-77216000D01*
X113284000Y-77216000D02*
X113538000Y-77470000D01*
X113030000Y-76962000D02*
X113030000Y-77724000D01*
X113030000Y-77724000D02*
X113284000Y-77470000D01*
X113284000Y-77470000D02*
X112776000Y-77470000D01*
X112776000Y-77470000D02*
X113030000Y-77724000D01*
X145034000Y-75946000D02*
X144526000Y-75438000D01*
X144526000Y-75438000D02*
X144018000Y-76962000D01*
X144018000Y-76962000D02*
X145542000Y-76454000D01*
X145542000Y-76454000D02*
X145034000Y-75946000D01*
X145034000Y-75946000D02*
X145796000Y-75184000D01*
X144018000Y-76962000D02*
X143510000Y-76454000D01*
X144018000Y-76962000D02*
X144526000Y-77470000D01*
X144018000Y-76962000D02*
X143256000Y-77724000D01*
X145542000Y-76708000D02*
X145542000Y-77470000D01*
X145542000Y-77470000D02*
X145796000Y-77216000D01*
X145796000Y-77216000D02*
X145288000Y-77216000D01*
X145288000Y-77216000D02*
X145542000Y-77470000D01*
X145034000Y-76962000D02*
X145034000Y-77724000D01*
X145034000Y-77724000D02*
X145288000Y-77470000D01*
X145288000Y-77470000D02*
X144780000Y-77470000D01*
X144780000Y-77470000D02*
X145034000Y-77724000D01*
X116586000Y-75946000D02*
X116078000Y-75438000D01*
X116078000Y-75438000D02*
X115570000Y-76962000D01*
X115570000Y-76962000D02*
X117094000Y-76454000D01*
X117094000Y-76454000D02*
X116586000Y-75946000D01*
X116586000Y-75946000D02*
X117348000Y-75184000D01*
X115570000Y-76962000D02*
X115062000Y-76454000D01*
X115570000Y-76962000D02*
X116078000Y-77470000D01*
X115570000Y-76962000D02*
X114808000Y-77724000D01*
X117094000Y-76708000D02*
X117094000Y-77470000D01*
X117094000Y-77470000D02*
X117348000Y-77216000D01*
X117348000Y-77216000D02*
X116840000Y-77216000D01*
X116840000Y-77216000D02*
X117094000Y-77470000D01*
X116586000Y-76962000D02*
X116586000Y-77724000D01*
X116586000Y-77724000D02*
X116840000Y-77470000D01*
X116840000Y-77470000D02*
X116332000Y-77470000D01*
X116332000Y-77470000D02*
X116586000Y-77724000D01*
X137922000Y-72390000D02*
X137414000Y-71882000D01*
X137414000Y-71882000D02*
X136906000Y-73406000D01*
X136906000Y-73406000D02*
X138430000Y-72898000D01*
X138430000Y-72898000D02*
X137922000Y-72390000D01*
X137922000Y-72390000D02*
X138684000Y-71628000D01*
X136906000Y-73406000D02*
X136398000Y-72898000D01*
X136906000Y-73406000D02*
X137414000Y-73914000D01*
X136906000Y-73406000D02*
X136144000Y-74168000D01*
X138430000Y-73152000D02*
X138430000Y-73914000D01*
X138430000Y-73914000D02*
X138684000Y-73660000D01*
X138684000Y-73660000D02*
X138176000Y-73660000D01*
X138176000Y-73660000D02*
X138430000Y-73914000D01*
X137922000Y-73406000D02*
X137922000Y-74168000D01*
X137922000Y-74168000D02*
X138176000Y-73914000D01*
X138176000Y-73914000D02*
X137668000Y-73914000D01*
X137668000Y-73914000D02*
X137922000Y-74168000D01*
X134366000Y-72390000D02*
X133858000Y-71882000D01*
X133858000Y-71882000D02*
X133350000Y-73406000D01*
X133350000Y-73406000D02*
X134874000Y-72898000D01*
X134874000Y-72898000D02*
X134366000Y-72390000D01*
X134366000Y-72390000D02*
X135128000Y-71628000D01*
X133350000Y-73406000D02*
X132842000Y-72898000D01*
X133350000Y-73406000D02*
X133858000Y-73914000D01*
X133350000Y-73406000D02*
X132588000Y-74168000D01*
X134874000Y-73152000D02*
X134874000Y-73914000D01*
X134874000Y-73914000D02*
X135128000Y-73660000D01*
X135128000Y-73660000D02*
X134620000Y-73660000D01*
X134620000Y-73660000D02*
X134874000Y-73914000D01*
X134366000Y-73406000D02*
X134366000Y-74168000D01*
X134366000Y-74168000D02*
X134620000Y-73914000D01*
X134620000Y-73914000D02*
X134112000Y-73914000D01*
X134112000Y-73914000D02*
X134366000Y-74168000D01*
X130810000Y-72390000D02*
X130302000Y-71882000D01*
X130302000Y-71882000D02*
X129794000Y-73406000D01*
X129794000Y-73406000D02*
X131318000Y-72898000D01*
X131318000Y-72898000D02*
X130810000Y-72390000D01*
X130810000Y-72390000D02*
X131572000Y-71628000D01*
X129794000Y-73406000D02*
X129286000Y-72898000D01*
X129794000Y-73406000D02*
X130302000Y-73914000D01*
X129794000Y-73406000D02*
X129032000Y-74168000D01*
X131318000Y-73152000D02*
X131318000Y-73914000D01*
X131318000Y-73914000D02*
X131572000Y-73660000D01*
X131572000Y-73660000D02*
X131064000Y-73660000D01*
X131064000Y-73660000D02*
X131318000Y-73914000D01*
X130810000Y-73406000D02*
X130810000Y-74168000D01*
X130810000Y-74168000D02*
X131064000Y-73914000D01*
X131064000Y-73914000D02*
X130556000Y-73914000D01*
X130556000Y-73914000D02*
X130810000Y-74168000D01*
X120142000Y-72390000D02*
X119634000Y-71882000D01*
X119634000Y-71882000D02*
X119126000Y-73406000D01*
X119126000Y-73406000D02*
X120650000Y-72898000D01*
X120650000Y-72898000D02*
X120142000Y-72390000D01*
X120142000Y-72390000D02*
X120904000Y-71628000D01*
X119126000Y-73406000D02*
X118618000Y-72898000D01*
X119126000Y-73406000D02*
X119634000Y-73914000D01*
X119126000Y-73406000D02*
X118364000Y-74168000D01*
X120650000Y-73152000D02*
X120650000Y-73914000D01*
X120650000Y-73914000D02*
X120904000Y-73660000D01*
X120904000Y-73660000D02*
X120396000Y-73660000D01*
X120396000Y-73660000D02*
X120650000Y-73914000D01*
X120142000Y-73406000D02*
X120142000Y-74168000D01*
X120142000Y-74168000D02*
X120396000Y-73914000D01*
X120396000Y-73914000D02*
X119888000Y-73914000D01*
X119888000Y-73914000D02*
X120142000Y-74168000D01*
X105918000Y-72390000D02*
X105410000Y-71882000D01*
X105410000Y-71882000D02*
X104902000Y-73406000D01*
X104902000Y-73406000D02*
X106426000Y-72898000D01*
X106426000Y-72898000D02*
X105918000Y-72390000D01*
X105918000Y-72390000D02*
X106680000Y-71628000D01*
X104902000Y-73406000D02*
X104394000Y-72898000D01*
X104902000Y-73406000D02*
X105410000Y-73914000D01*
X104902000Y-73406000D02*
X104140000Y-74168000D01*
X106426000Y-73152000D02*
X106426000Y-73914000D01*
X106426000Y-73914000D02*
X106680000Y-73660000D01*
X106680000Y-73660000D02*
X106172000Y-73660000D01*
X106172000Y-73660000D02*
X106426000Y-73914000D01*
X105918000Y-73406000D02*
X105918000Y-74168000D01*
X105918000Y-74168000D02*
X106172000Y-73914000D01*
X106172000Y-73914000D02*
X105664000Y-73914000D01*
X105664000Y-73914000D02*
X105918000Y-74168000D01*
X148590000Y-72390000D02*
X148082000Y-71882000D01*
X148082000Y-71882000D02*
X147574000Y-73406000D01*
X147574000Y-73406000D02*
X149098000Y-72898000D01*
X149098000Y-72898000D02*
X148590000Y-72390000D01*
X148590000Y-72390000D02*
X149352000Y-71628000D01*
X147574000Y-73406000D02*
X147066000Y-72898000D01*
X147574000Y-73406000D02*
X148082000Y-73914000D01*
X147574000Y-73406000D02*
X146812000Y-74168000D01*
X149098000Y-73152000D02*
X149098000Y-73914000D01*
X149098000Y-73914000D02*
X149352000Y-73660000D01*
X149352000Y-73660000D02*
X148844000Y-73660000D01*
X148844000Y-73660000D02*
X149098000Y-73914000D01*
X148590000Y-73406000D02*
X148590000Y-74168000D01*
X148590000Y-74168000D02*
X148844000Y-73914000D01*
X148844000Y-73914000D02*
X148336000Y-73914000D01*
X148336000Y-73914000D02*
X148590000Y-74168000D01*
X109474000Y-72390000D02*
X108966000Y-71882000D01*
X108966000Y-71882000D02*
X108458000Y-73406000D01*
X108458000Y-73406000D02*
X109982000Y-72898000D01*
X109982000Y-72898000D02*
X109474000Y-72390000D01*
X109474000Y-72390000D02*
X110236000Y-71628000D01*
X108458000Y-73406000D02*
X107950000Y-72898000D01*
X108458000Y-73406000D02*
X108966000Y-73914000D01*
X108458000Y-73406000D02*
X107696000Y-74168000D01*
X109982000Y-73152000D02*
X109982000Y-73914000D01*
X109982000Y-73914000D02*
X110236000Y-73660000D01*
X110236000Y-73660000D02*
X109728000Y-73660000D01*
X109728000Y-73660000D02*
X109982000Y-73914000D01*
X109474000Y-73406000D02*
X109474000Y-74168000D01*
X109474000Y-74168000D02*
X109728000Y-73914000D01*
X109728000Y-73914000D02*
X109220000Y-73914000D01*
X109220000Y-73914000D02*
X109474000Y-74168000D01*
X123698000Y-72390000D02*
X123190000Y-71882000D01*
X123190000Y-71882000D02*
X122682000Y-73406000D01*
X122682000Y-73406000D02*
X124206000Y-72898000D01*
X124206000Y-72898000D02*
X123698000Y-72390000D01*
X123698000Y-72390000D02*
X124460000Y-71628000D01*
X122682000Y-73406000D02*
X122174000Y-72898000D01*
X122682000Y-73406000D02*
X123190000Y-73914000D01*
X122682000Y-73406000D02*
X121920000Y-74168000D01*
X124206000Y-73152000D02*
X124206000Y-73914000D01*
X124206000Y-73914000D02*
X124460000Y-73660000D01*
X124460000Y-73660000D02*
X123952000Y-73660000D01*
X123952000Y-73660000D02*
X124206000Y-73914000D01*
X123698000Y-73406000D02*
X123698000Y-74168000D01*
X123698000Y-74168000D02*
X123952000Y-73914000D01*
X123952000Y-73914000D02*
X123444000Y-73914000D01*
X123444000Y-73914000D02*
X123698000Y-74168000D01*
X127254000Y-72390000D02*
X126746000Y-71882000D01*
X126746000Y-71882000D02*
X126238000Y-73406000D01*
X126238000Y-73406000D02*
X127762000Y-72898000D01*
X127762000Y-72898000D02*
X127254000Y-72390000D01*
X127254000Y-72390000D02*
X128016000Y-71628000D01*
X126238000Y-73406000D02*
X125730000Y-72898000D01*
X126238000Y-73406000D02*
X126746000Y-73914000D01*
X126238000Y-73406000D02*
X125476000Y-74168000D01*
X127762000Y-73152000D02*
X127762000Y-73914000D01*
X127762000Y-73914000D02*
X128016000Y-73660000D01*
X128016000Y-73660000D02*
X127508000Y-73660000D01*
X127508000Y-73660000D02*
X127762000Y-73914000D01*
X127254000Y-73406000D02*
X127254000Y-74168000D01*
X127254000Y-74168000D02*
X127508000Y-73914000D01*
X127508000Y-73914000D02*
X127000000Y-73914000D01*
X127000000Y-73914000D02*
X127254000Y-74168000D01*
X141478000Y-72390000D02*
X140970000Y-71882000D01*
X140970000Y-71882000D02*
X140462000Y-73406000D01*
X140462000Y-73406000D02*
X141986000Y-72898000D01*
X141986000Y-72898000D02*
X141478000Y-72390000D01*
X141478000Y-72390000D02*
X142240000Y-71628000D01*
X140462000Y-73406000D02*
X139954000Y-72898000D01*
X140462000Y-73406000D02*
X140970000Y-73914000D01*
X140462000Y-73406000D02*
X139700000Y-74168000D01*
X141986000Y-73152000D02*
X141986000Y-73914000D01*
X141986000Y-73914000D02*
X142240000Y-73660000D01*
X142240000Y-73660000D02*
X141732000Y-73660000D01*
X141732000Y-73660000D02*
X141986000Y-73914000D01*
X141478000Y-73406000D02*
X141478000Y-74168000D01*
X141478000Y-74168000D02*
X141732000Y-73914000D01*
X141732000Y-73914000D02*
X141224000Y-73914000D01*
X141224000Y-73914000D02*
X141478000Y-74168000D01*
X113030000Y-72390000D02*
X112522000Y-71882000D01*
X112522000Y-71882000D02*
X112014000Y-73406000D01*
X112014000Y-73406000D02*
X113538000Y-72898000D01*
X113538000Y-72898000D02*
X113030000Y-72390000D01*
X113030000Y-72390000D02*
X113792000Y-71628000D01*
X112014000Y-73406000D02*
X111506000Y-72898000D01*
X112014000Y-73406000D02*
X112522000Y-73914000D01*
X112014000Y-73406000D02*
X111252000Y-74168000D01*
X113538000Y-73152000D02*
X113538000Y-73914000D01*
X113538000Y-73914000D02*
X113792000Y-73660000D01*
X113792000Y-73660000D02*
X113284000Y-73660000D01*
X113284000Y-73660000D02*
X113538000Y-73914000D01*
X113030000Y-73406000D02*
X113030000Y-74168000D01*
X113030000Y-74168000D02*
X113284000Y-73914000D01*
X113284000Y-73914000D02*
X112776000Y-73914000D01*
X112776000Y-73914000D02*
X113030000Y-74168000D01*
X145034000Y-72390000D02*
X144526000Y-71882000D01*
X144526000Y-71882000D02*
X144018000Y-73406000D01*
X144018000Y-73406000D02*
X145542000Y-72898000D01*
X145542000Y-72898000D02*
X145034000Y-72390000D01*
X145034000Y-72390000D02*
X145796000Y-71628000D01*
X144018000Y-73406000D02*
X143510000Y-72898000D01*
X144018000Y-73406000D02*
X144526000Y-73914000D01*
X144018000Y-73406000D02*
X143256000Y-74168000D01*
X145542000Y-73152000D02*
X145542000Y-73914000D01*
X145542000Y-73914000D02*
X145796000Y-73660000D01*
X145796000Y-73660000D02*
X145288000Y-73660000D01*
X145288000Y-73660000D02*
X145542000Y-73914000D01*
X145034000Y-73406000D02*
X145034000Y-74168000D01*
X145034000Y-74168000D02*
X145288000Y-73914000D01*
X145288000Y-73914000D02*
X144780000Y-73914000D01*
X144780000Y-73914000D02*
X145034000Y-74168000D01*
X116586000Y-72390000D02*
X116078000Y-71882000D01*
X116078000Y-71882000D02*
X115570000Y-73406000D01*
X115570000Y-73406000D02*
X117094000Y-72898000D01*
X117094000Y-72898000D02*
X116586000Y-72390000D01*
X116586000Y-72390000D02*
X117348000Y-71628000D01*
X115570000Y-73406000D02*
X115062000Y-72898000D01*
X115570000Y-73406000D02*
X116078000Y-73914000D01*
X115570000Y-73406000D02*
X114808000Y-74168000D01*
X117094000Y-73152000D02*
X117094000Y-73914000D01*
X117094000Y-73914000D02*
X117348000Y-73660000D01*
X117348000Y-73660000D02*
X116840000Y-73660000D01*
X116840000Y-73660000D02*
X117094000Y-73914000D01*
X116586000Y-73406000D02*
X116586000Y-74168000D01*
X116586000Y-74168000D02*
X116840000Y-73914000D01*
X116840000Y-73914000D02*
X116332000Y-73914000D01*
X116332000Y-73914000D02*
X116586000Y-74168000D01*
X137922000Y-68834000D02*
X137414000Y-68326000D01*
X137414000Y-68326000D02*
X136906000Y-69850000D01*
X136906000Y-69850000D02*
X138430000Y-69342000D01*
X138430000Y-69342000D02*
X137922000Y-68834000D01*
X137922000Y-68834000D02*
X138684000Y-68072000D01*
X136906000Y-69850000D02*
X136398000Y-69342000D01*
X136906000Y-69850000D02*
X137414000Y-70358000D01*
X136906000Y-69850000D02*
X136144000Y-70612000D01*
X138430000Y-69596000D02*
X138430000Y-70358000D01*
X138430000Y-70358000D02*
X138684000Y-70104000D01*
X138684000Y-70104000D02*
X138176000Y-70104000D01*
X138176000Y-70104000D02*
X138430000Y-70358000D01*
X137922000Y-69850000D02*
X137922000Y-70612000D01*
X137922000Y-70612000D02*
X138176000Y-70358000D01*
X138176000Y-70358000D02*
X137668000Y-70358000D01*
X137668000Y-70358000D02*
X137922000Y-70612000D01*
X134366000Y-68834000D02*
X133858000Y-68326000D01*
X133858000Y-68326000D02*
X133350000Y-69850000D01*
X133350000Y-69850000D02*
X134874000Y-69342000D01*
X134874000Y-69342000D02*
X134366000Y-68834000D01*
X134366000Y-68834000D02*
X135128000Y-68072000D01*
X133350000Y-69850000D02*
X132842000Y-69342000D01*
X133350000Y-69850000D02*
X133858000Y-70358000D01*
X133350000Y-69850000D02*
X132588000Y-70612000D01*
X134874000Y-69596000D02*
X134874000Y-70358000D01*
X134874000Y-70358000D02*
X135128000Y-70104000D01*
X135128000Y-70104000D02*
X134620000Y-70104000D01*
X134620000Y-70104000D02*
X134874000Y-70358000D01*
X134366000Y-69850000D02*
X134366000Y-70612000D01*
X134366000Y-70612000D02*
X134620000Y-70358000D01*
X134620000Y-70358000D02*
X134112000Y-70358000D01*
X134112000Y-70358000D02*
X134366000Y-70612000D01*
X130810000Y-68834000D02*
X130302000Y-68326000D01*
X130302000Y-68326000D02*
X129794000Y-69850000D01*
X129794000Y-69850000D02*
X131318000Y-69342000D01*
X131318000Y-69342000D02*
X130810000Y-68834000D01*
X130810000Y-68834000D02*
X131572000Y-68072000D01*
X129794000Y-69850000D02*
X129286000Y-69342000D01*
X129794000Y-69850000D02*
X130302000Y-70358000D01*
X129794000Y-69850000D02*
X129032000Y-70612000D01*
X131318000Y-69596000D02*
X131318000Y-70358000D01*
X131318000Y-70358000D02*
X131572000Y-70104000D01*
X131572000Y-70104000D02*
X131064000Y-70104000D01*
X131064000Y-70104000D02*
X131318000Y-70358000D01*
X130810000Y-69850000D02*
X130810000Y-70612000D01*
X130810000Y-70612000D02*
X131064000Y-70358000D01*
X131064000Y-70358000D02*
X130556000Y-70358000D01*
X130556000Y-70358000D02*
X130810000Y-70612000D01*
X120142000Y-68834000D02*
X119634000Y-68326000D01*
X119634000Y-68326000D02*
X119126000Y-69850000D01*
X119126000Y-69850000D02*
X120650000Y-69342000D01*
X120650000Y-69342000D02*
X120142000Y-68834000D01*
X120142000Y-68834000D02*
X120904000Y-68072000D01*
X119126000Y-69850000D02*
X118618000Y-69342000D01*
X119126000Y-69850000D02*
X119634000Y-70358000D01*
X119126000Y-69850000D02*
X118364000Y-70612000D01*
X120650000Y-69596000D02*
X120650000Y-70358000D01*
X120650000Y-70358000D02*
X120904000Y-70104000D01*
X120904000Y-70104000D02*
X120396000Y-70104000D01*
X120396000Y-70104000D02*
X120650000Y-70358000D01*
X120142000Y-69850000D02*
X120142000Y-70612000D01*
X120142000Y-70612000D02*
X120396000Y-70358000D01*
X120396000Y-70358000D02*
X119888000Y-70358000D01*
X119888000Y-70358000D02*
X120142000Y-70612000D01*
X105918000Y-68834000D02*
X105410000Y-68326000D01*
X105410000Y-68326000D02*
X104902000Y-69850000D01*
X104902000Y-69850000D02*
X106426000Y-69342000D01*
X106426000Y-69342000D02*
X105918000Y-68834000D01*
X105918000Y-68834000D02*
X106680000Y-68072000D01*
X104902000Y-69850000D02*
X104394000Y-69342000D01*
X104902000Y-69850000D02*
X105410000Y-70358000D01*
X104902000Y-69850000D02*
X104140000Y-70612000D01*
X106426000Y-69596000D02*
X106426000Y-70358000D01*
X106426000Y-70358000D02*
X106680000Y-70104000D01*
X106680000Y-70104000D02*
X106172000Y-70104000D01*
X106172000Y-70104000D02*
X106426000Y-70358000D01*
X105918000Y-69850000D02*
X105918000Y-70612000D01*
X105918000Y-70612000D02*
X106172000Y-70358000D01*
X106172000Y-70358000D02*
X105664000Y-70358000D01*
X105664000Y-70358000D02*
X105918000Y-70612000D01*
X148590000Y-68834000D02*
X148082000Y-68326000D01*
X148082000Y-68326000D02*
X147574000Y-69850000D01*
X147574000Y-69850000D02*
X149098000Y-69342000D01*
X149098000Y-69342000D02*
X148590000Y-68834000D01*
X148590000Y-68834000D02*
X149352000Y-68072000D01*
X147574000Y-69850000D02*
X147066000Y-69342000D01*
X147574000Y-69850000D02*
X148082000Y-70358000D01*
X147574000Y-69850000D02*
X146812000Y-70612000D01*
X149098000Y-69596000D02*
X149098000Y-70358000D01*
X149098000Y-70358000D02*
X149352000Y-70104000D01*
X149352000Y-70104000D02*
X148844000Y-70104000D01*
X148844000Y-70104000D02*
X149098000Y-70358000D01*
X148590000Y-69850000D02*
X148590000Y-70612000D01*
X148590000Y-70612000D02*
X148844000Y-70358000D01*
X148844000Y-70358000D02*
X148336000Y-70358000D01*
X148336000Y-70358000D02*
X148590000Y-70612000D01*
X109474000Y-68834000D02*
X108966000Y-68326000D01*
X108966000Y-68326000D02*
X108458000Y-69850000D01*
X108458000Y-69850000D02*
X109982000Y-69342000D01*
X109982000Y-69342000D02*
X109474000Y-68834000D01*
X109474000Y-68834000D02*
X110236000Y-68072000D01*
X108458000Y-69850000D02*
X107950000Y-69342000D01*
X108458000Y-69850000D02*
X108966000Y-70358000D01*
X108458000Y-69850000D02*
X107696000Y-70612000D01*
X109982000Y-69596000D02*
X109982000Y-70358000D01*
X109982000Y-70358000D02*
X110236000Y-70104000D01*
X110236000Y-70104000D02*
X109728000Y-70104000D01*
X109728000Y-70104000D02*
X109982000Y-70358000D01*
X109474000Y-69850000D02*
X109474000Y-70612000D01*
X109474000Y-70612000D02*
X109728000Y-70358000D01*
X109728000Y-70358000D02*
X109220000Y-70358000D01*
X109220000Y-70358000D02*
X109474000Y-70612000D01*
X123698000Y-68834000D02*
X123190000Y-68326000D01*
X123190000Y-68326000D02*
X122682000Y-69850000D01*
X122682000Y-69850000D02*
X124206000Y-69342000D01*
X124206000Y-69342000D02*
X123698000Y-68834000D01*
X123698000Y-68834000D02*
X124460000Y-68072000D01*
X122682000Y-69850000D02*
X122174000Y-69342000D01*
X122682000Y-69850000D02*
X123190000Y-70358000D01*
X122682000Y-69850000D02*
X121920000Y-70612000D01*
X124206000Y-69596000D02*
X124206000Y-70358000D01*
X124206000Y-70358000D02*
X124460000Y-70104000D01*
X124460000Y-70104000D02*
X123952000Y-70104000D01*
X123952000Y-70104000D02*
X124206000Y-70358000D01*
X123698000Y-69850000D02*
X123698000Y-70612000D01*
X123698000Y-70612000D02*
X123952000Y-70358000D01*
X123952000Y-70358000D02*
X123444000Y-70358000D01*
X123444000Y-70358000D02*
X123698000Y-70612000D01*
X127254000Y-68834000D02*
X126746000Y-68326000D01*
X126746000Y-68326000D02*
X126238000Y-69850000D01*
X126238000Y-69850000D02*
X127762000Y-69342000D01*
X127762000Y-69342000D02*
X127254000Y-68834000D01*
X127254000Y-68834000D02*
X128016000Y-68072000D01*
X126238000Y-69850000D02*
X125730000Y-69342000D01*
X126238000Y-69850000D02*
X126746000Y-70358000D01*
X126238000Y-69850000D02*
X125476000Y-70612000D01*
X127762000Y-69596000D02*
X127762000Y-70358000D01*
X127762000Y-70358000D02*
X128016000Y-70104000D01*
X128016000Y-70104000D02*
X127508000Y-70104000D01*
X127508000Y-70104000D02*
X127762000Y-70358000D01*
X127254000Y-69850000D02*
X127254000Y-70612000D01*
X127254000Y-70612000D02*
X127508000Y-70358000D01*
X127508000Y-70358000D02*
X127000000Y-70358000D01*
X127000000Y-70358000D02*
X127254000Y-70612000D01*
X141478000Y-68834000D02*
X140970000Y-68326000D01*
X140970000Y-68326000D02*
X140462000Y-69850000D01*
X140462000Y-69850000D02*
X141986000Y-69342000D01*
X141986000Y-69342000D02*
X141478000Y-68834000D01*
X141478000Y-68834000D02*
X142240000Y-68072000D01*
X140462000Y-69850000D02*
X139954000Y-69342000D01*
X140462000Y-69850000D02*
X140970000Y-70358000D01*
X140462000Y-69850000D02*
X139700000Y-70612000D01*
X141986000Y-69596000D02*
X141986000Y-70358000D01*
X141986000Y-70358000D02*
X142240000Y-70104000D01*
X142240000Y-70104000D02*
X141732000Y-70104000D01*
X141732000Y-70104000D02*
X141986000Y-70358000D01*
X141478000Y-69850000D02*
X141478000Y-70612000D01*
X141478000Y-70612000D02*
X141732000Y-70358000D01*
X141732000Y-70358000D02*
X141224000Y-70358000D01*
X141224000Y-70358000D02*
X141478000Y-70612000D01*
X113030000Y-68834000D02*
X112522000Y-68326000D01*
X112522000Y-68326000D02*
X112014000Y-69850000D01*
X112014000Y-69850000D02*
X113538000Y-69342000D01*
X113538000Y-69342000D02*
X113030000Y-68834000D01*
X113030000Y-68834000D02*
X113792000Y-68072000D01*
X112014000Y-69850000D02*
X111506000Y-69342000D01*
X112014000Y-69850000D02*
X112522000Y-70358000D01*
X112014000Y-69850000D02*
X111252000Y-70612000D01*
X113538000Y-69596000D02*
X113538000Y-70358000D01*
X113538000Y-70358000D02*
X113792000Y-70104000D01*
X113792000Y-70104000D02*
X113284000Y-70104000D01*
X113284000Y-70104000D02*
X113538000Y-70358000D01*
X113030000Y-69850000D02*
X113030000Y-70612000D01*
X113030000Y-70612000D02*
X113284000Y-70358000D01*
X113284000Y-70358000D02*
X112776000Y-70358000D01*
X112776000Y-70358000D02*
X113030000Y-70612000D01*
X145034000Y-68834000D02*
X144526000Y-68326000D01*
X144526000Y-68326000D02*
X144018000Y-69850000D01*
X144018000Y-69850000D02*
X145542000Y-69342000D01*
X145542000Y-69342000D02*
X145034000Y-68834000D01*
X145034000Y-68834000D02*
X145796000Y-68072000D01*
X144018000Y-69850000D02*
X143510000Y-69342000D01*
X144018000Y-69850000D02*
X144526000Y-70358000D01*
X144018000Y-69850000D02*
X143256000Y-70612000D01*
X145542000Y-69596000D02*
X145542000Y-70358000D01*
X145542000Y-70358000D02*
X145796000Y-70104000D01*
X145796000Y-70104000D02*
X145288000Y-70104000D01*
X145288000Y-70104000D02*
X145542000Y-70358000D01*
X145034000Y-69850000D02*
X145034000Y-70612000D01*
X145034000Y-70612000D02*
X145288000Y-70358000D01*
X145288000Y-70358000D02*
X144780000Y-70358000D01*
X144780000Y-70358000D02*
X145034000Y-70612000D01*
X116586000Y-68834000D02*
X116078000Y-68326000D01*
X116078000Y-68326000D02*
X115570000Y-69850000D01*
X115570000Y-69850000D02*
X117094000Y-69342000D01*
X117094000Y-69342000D02*
X116586000Y-68834000D01*
X116586000Y-68834000D02*
X117348000Y-68072000D01*
X115570000Y-69850000D02*
X115062000Y-69342000D01*
X115570000Y-69850000D02*
X116078000Y-70358000D01*
X115570000Y-69850000D02*
X114808000Y-70612000D01*
X117094000Y-69596000D02*
X117094000Y-70358000D01*
X117094000Y-70358000D02*
X117348000Y-70104000D01*
X117348000Y-70104000D02*
X116840000Y-70104000D01*
X116840000Y-70104000D02*
X117094000Y-70358000D01*
X116586000Y-69850000D02*
X116586000Y-70612000D01*
X116586000Y-70612000D02*
X116840000Y-70358000D01*
X116840000Y-70358000D02*
X116332000Y-70358000D01*
X116332000Y-70358000D02*
X116586000Y-70612000D01*
X137922000Y-65278000D02*
X137414000Y-64770000D01*
X137414000Y-64770000D02*
X136906000Y-66294000D01*
X136906000Y-66294000D02*
X138430000Y-65786000D01*
X138430000Y-65786000D02*
X137922000Y-65278000D01*
X137922000Y-65278000D02*
X138684000Y-64516000D01*
X136906000Y-66294000D02*
X136398000Y-65786000D01*
X136906000Y-66294000D02*
X137414000Y-66802000D01*
X136906000Y-66294000D02*
X136144000Y-67056000D01*
X138430000Y-66040000D02*
X138430000Y-66802000D01*
X138430000Y-66802000D02*
X138684000Y-66548000D01*
X138684000Y-66548000D02*
X138176000Y-66548000D01*
X138176000Y-66548000D02*
X138430000Y-66802000D01*
X137922000Y-66294000D02*
X137922000Y-67056000D01*
X137922000Y-67056000D02*
X138176000Y-66802000D01*
X138176000Y-66802000D02*
X137668000Y-66802000D01*
X137668000Y-66802000D02*
X137922000Y-67056000D01*
X134366000Y-65278000D02*
X133858000Y-64770000D01*
X133858000Y-64770000D02*
X133350000Y-66294000D01*
X133350000Y-66294000D02*
X134874000Y-65786000D01*
X134874000Y-65786000D02*
X134366000Y-65278000D01*
X134366000Y-65278000D02*
X135128000Y-64516000D01*
X133350000Y-66294000D02*
X132842000Y-65786000D01*
X133350000Y-66294000D02*
X133858000Y-66802000D01*
X133350000Y-66294000D02*
X132588000Y-67056000D01*
X134874000Y-66040000D02*
X134874000Y-66802000D01*
X134874000Y-66802000D02*
X135128000Y-66548000D01*
X135128000Y-66548000D02*
X134620000Y-66548000D01*
X134620000Y-66548000D02*
X134874000Y-66802000D01*
X134366000Y-66294000D02*
X134366000Y-67056000D01*
X134366000Y-67056000D02*
X134620000Y-66802000D01*
X134620000Y-66802000D02*
X134112000Y-66802000D01*
X134112000Y-66802000D02*
X134366000Y-67056000D01*
X130810000Y-65278000D02*
X130302000Y-64770000D01*
X130302000Y-64770000D02*
X129794000Y-66294000D01*
X129794000Y-66294000D02*
X131318000Y-65786000D01*
X131318000Y-65786000D02*
X130810000Y-65278000D01*
X130810000Y-65278000D02*
X131572000Y-64516000D01*
X129794000Y-66294000D02*
X129286000Y-65786000D01*
X129794000Y-66294000D02*
X130302000Y-66802000D01*
X129794000Y-66294000D02*
X129032000Y-67056000D01*
X131318000Y-66040000D02*
X131318000Y-66802000D01*
X131318000Y-66802000D02*
X131572000Y-66548000D01*
X131572000Y-66548000D02*
X131064000Y-66548000D01*
X131064000Y-66548000D02*
X131318000Y-66802000D01*
X130810000Y-66294000D02*
X130810000Y-67056000D01*
X130810000Y-67056000D02*
X131064000Y-66802000D01*
X131064000Y-66802000D02*
X130556000Y-66802000D01*
X130556000Y-66802000D02*
X130810000Y-67056000D01*
X120142000Y-65278000D02*
X119634000Y-64770000D01*
X119634000Y-64770000D02*
X119126000Y-66294000D01*
X119126000Y-66294000D02*
X120650000Y-65786000D01*
X120650000Y-65786000D02*
X120142000Y-65278000D01*
X120142000Y-65278000D02*
X120904000Y-64516000D01*
X119126000Y-66294000D02*
X118618000Y-65786000D01*
X119126000Y-66294000D02*
X119634000Y-66802000D01*
X119126000Y-66294000D02*
X118364000Y-67056000D01*
X120650000Y-66040000D02*
X120650000Y-66802000D01*
X120650000Y-66802000D02*
X120904000Y-66548000D01*
X120904000Y-66548000D02*
X120396000Y-66548000D01*
X120396000Y-66548000D02*
X120650000Y-66802000D01*
X120142000Y-66294000D02*
X120142000Y-67056000D01*
X120142000Y-67056000D02*
X120396000Y-66802000D01*
X120396000Y-66802000D02*
X119888000Y-66802000D01*
X119888000Y-66802000D02*
X120142000Y-67056000D01*
X105918000Y-65278000D02*
X105410000Y-64770000D01*
X105410000Y-64770000D02*
X104902000Y-66294000D01*
X104902000Y-66294000D02*
X106426000Y-65786000D01*
X106426000Y-65786000D02*
X105918000Y-65278000D01*
X105918000Y-65278000D02*
X106680000Y-64516000D01*
X104902000Y-66294000D02*
X104394000Y-65786000D01*
X104902000Y-66294000D02*
X105410000Y-66802000D01*
X104902000Y-66294000D02*
X104140000Y-67056000D01*
X106426000Y-66040000D02*
X106426000Y-66802000D01*
X106426000Y-66802000D02*
X106680000Y-66548000D01*
X106680000Y-66548000D02*
X106172000Y-66548000D01*
X106172000Y-66548000D02*
X106426000Y-66802000D01*
X105918000Y-66294000D02*
X105918000Y-67056000D01*
X105918000Y-67056000D02*
X106172000Y-66802000D01*
X106172000Y-66802000D02*
X105664000Y-66802000D01*
X105664000Y-66802000D02*
X105918000Y-67056000D01*
X148590000Y-65278000D02*
X148082000Y-64770000D01*
X148082000Y-64770000D02*
X147574000Y-66294000D01*
X147574000Y-66294000D02*
X149098000Y-65786000D01*
X149098000Y-65786000D02*
X148590000Y-65278000D01*
X148590000Y-65278000D02*
X149352000Y-64516000D01*
X147574000Y-66294000D02*
X147066000Y-65786000D01*
X147574000Y-66294000D02*
X148082000Y-66802000D01*
X147574000Y-66294000D02*
X146812000Y-67056000D01*
X149098000Y-66040000D02*
X149098000Y-66802000D01*
X149098000Y-66802000D02*
X149352000Y-66548000D01*
X149352000Y-66548000D02*
X148844000Y-66548000D01*
X148844000Y-66548000D02*
X149098000Y-66802000D01*
X148590000Y-66294000D02*
X148590000Y-67056000D01*
X148590000Y-67056000D02*
X148844000Y-66802000D01*
X148844000Y-66802000D02*
X148336000Y-66802000D01*
X148336000Y-66802000D02*
X148590000Y-67056000D01*
X109474000Y-65278000D02*
X108966000Y-64770000D01*
X108966000Y-64770000D02*
X108458000Y-66294000D01*
X108458000Y-66294000D02*
X109982000Y-65786000D01*
X109982000Y-65786000D02*
X109474000Y-65278000D01*
X109474000Y-65278000D02*
X110236000Y-64516000D01*
X108458000Y-66294000D02*
X107950000Y-65786000D01*
X108458000Y-66294000D02*
X108966000Y-66802000D01*
X108458000Y-66294000D02*
X107696000Y-67056000D01*
X109982000Y-66040000D02*
X109982000Y-66802000D01*
X109982000Y-66802000D02*
X110236000Y-66548000D01*
X110236000Y-66548000D02*
X109728000Y-66548000D01*
X109728000Y-66548000D02*
X109982000Y-66802000D01*
X109474000Y-66294000D02*
X109474000Y-67056000D01*
X109474000Y-67056000D02*
X109728000Y-66802000D01*
X109728000Y-66802000D02*
X109220000Y-66802000D01*
X109220000Y-66802000D02*
X109474000Y-67056000D01*
X123698000Y-65278000D02*
X123190000Y-64770000D01*
X123190000Y-64770000D02*
X122682000Y-66294000D01*
X122682000Y-66294000D02*
X124206000Y-65786000D01*
X124206000Y-65786000D02*
X123698000Y-65278000D01*
X123698000Y-65278000D02*
X124460000Y-64516000D01*
X122682000Y-66294000D02*
X122174000Y-65786000D01*
X122682000Y-66294000D02*
X123190000Y-66802000D01*
X122682000Y-66294000D02*
X121920000Y-67056000D01*
X124206000Y-66040000D02*
X124206000Y-66802000D01*
X124206000Y-66802000D02*
X124460000Y-66548000D01*
X124460000Y-66548000D02*
X123952000Y-66548000D01*
X123952000Y-66548000D02*
X124206000Y-66802000D01*
X123698000Y-66294000D02*
X123698000Y-67056000D01*
X123698000Y-67056000D02*
X123952000Y-66802000D01*
X123952000Y-66802000D02*
X123444000Y-66802000D01*
X123444000Y-66802000D02*
X123698000Y-67056000D01*
X127254000Y-65278000D02*
X126746000Y-64770000D01*
X126746000Y-64770000D02*
X126238000Y-66294000D01*
X126238000Y-66294000D02*
X127762000Y-65786000D01*
X127762000Y-65786000D02*
X127254000Y-65278000D01*
X127254000Y-65278000D02*
X128016000Y-64516000D01*
X126238000Y-66294000D02*
X125730000Y-65786000D01*
X126238000Y-66294000D02*
X126746000Y-66802000D01*
X126238000Y-66294000D02*
X125476000Y-67056000D01*
X127762000Y-66040000D02*
X127762000Y-66802000D01*
X127762000Y-66802000D02*
X128016000Y-66548000D01*
X128016000Y-66548000D02*
X127508000Y-66548000D01*
X127508000Y-66548000D02*
X127762000Y-66802000D01*
X127254000Y-66294000D02*
X127254000Y-67056000D01*
X127254000Y-67056000D02*
X127508000Y-66802000D01*
X127508000Y-66802000D02*
X127000000Y-66802000D01*
X127000000Y-66802000D02*
X127254000Y-67056000D01*
X141478000Y-65278000D02*
X140970000Y-64770000D01*
X140970000Y-64770000D02*
X140462000Y-66294000D01*
X140462000Y-66294000D02*
X141986000Y-65786000D01*
X141986000Y-65786000D02*
X141478000Y-65278000D01*
X141478000Y-65278000D02*
X142240000Y-64516000D01*
X140462000Y-66294000D02*
X139954000Y-65786000D01*
X140462000Y-66294000D02*
X140970000Y-66802000D01*
X140462000Y-66294000D02*
X139700000Y-67056000D01*
X141986000Y-66040000D02*
X141986000Y-66802000D01*
X141986000Y-66802000D02*
X142240000Y-66548000D01*
X142240000Y-66548000D02*
X141732000Y-66548000D01*
X141732000Y-66548000D02*
X141986000Y-66802000D01*
X141478000Y-66294000D02*
X141478000Y-67056000D01*
X141478000Y-67056000D02*
X141732000Y-66802000D01*
X141732000Y-66802000D02*
X141224000Y-66802000D01*
X141224000Y-66802000D02*
X141478000Y-67056000D01*
X113030000Y-65278000D02*
X112522000Y-64770000D01*
X112522000Y-64770000D02*
X112014000Y-66294000D01*
X112014000Y-66294000D02*
X113538000Y-65786000D01*
X113538000Y-65786000D02*
X113030000Y-65278000D01*
X113030000Y-65278000D02*
X113792000Y-64516000D01*
X112014000Y-66294000D02*
X111506000Y-65786000D01*
X112014000Y-66294000D02*
X112522000Y-66802000D01*
X112014000Y-66294000D02*
X111252000Y-67056000D01*
X113538000Y-66040000D02*
X113538000Y-66802000D01*
X113538000Y-66802000D02*
X113792000Y-66548000D01*
X113792000Y-66548000D02*
X113284000Y-66548000D01*
X113284000Y-66548000D02*
X113538000Y-66802000D01*
X113030000Y-66294000D02*
X113030000Y-67056000D01*
X113030000Y-67056000D02*
X113284000Y-66802000D01*
X113284000Y-66802000D02*
X112776000Y-66802000D01*
X112776000Y-66802000D02*
X113030000Y-67056000D01*
X145034000Y-65278000D02*
X144526000Y-64770000D01*
X144526000Y-64770000D02*
X144018000Y-66294000D01*
X144018000Y-66294000D02*
X145542000Y-65786000D01*
X145542000Y-65786000D02*
X145034000Y-65278000D01*
X145034000Y-65278000D02*
X145796000Y-64516000D01*
X144018000Y-66294000D02*
X143510000Y-65786000D01*
X144018000Y-66294000D02*
X144526000Y-66802000D01*
X144018000Y-66294000D02*
X143256000Y-67056000D01*
X145542000Y-66040000D02*
X145542000Y-66802000D01*
X145542000Y-66802000D02*
X145796000Y-66548000D01*
X145796000Y-66548000D02*
X145288000Y-66548000D01*
X145288000Y-66548000D02*
X145542000Y-66802000D01*
X145034000Y-66294000D02*
X145034000Y-67056000D01*
X145034000Y-67056000D02*
X145288000Y-66802000D01*
X145288000Y-66802000D02*
X144780000Y-66802000D01*
X144780000Y-66802000D02*
X145034000Y-67056000D01*
X116586000Y-65278000D02*
X116078000Y-64770000D01*
X116078000Y-64770000D02*
X115570000Y-66294000D01*
X115570000Y-66294000D02*
X117094000Y-65786000D01*
X117094000Y-65786000D02*
X116586000Y-65278000D01*
X116586000Y-65278000D02*
X117348000Y-64516000D01*
X115570000Y-66294000D02*
X115062000Y-65786000D01*
X115570000Y-66294000D02*
X116078000Y-66802000D01*
X115570000Y-66294000D02*
X114808000Y-67056000D01*
X117094000Y-66040000D02*
X117094000Y-66802000D01*
X117094000Y-66802000D02*
X117348000Y-66548000D01*
X117348000Y-66548000D02*
X116840000Y-66548000D01*
X116840000Y-66548000D02*
X117094000Y-66802000D01*
X116586000Y-66294000D02*
X116586000Y-67056000D01*
X116586000Y-67056000D02*
X116840000Y-66802000D01*
X116840000Y-66802000D02*
X116332000Y-66802000D01*
X116332000Y-66802000D02*
X116586000Y-67056000D01*
X105918000Y-61722000D02*
X105410000Y-61214000D01*
X105410000Y-61214000D02*
X104902000Y-62738000D01*
X104902000Y-62738000D02*
X106426000Y-62230000D01*
X106426000Y-62230000D02*
X105918000Y-61722000D01*
X105918000Y-61722000D02*
X106680000Y-60960000D01*
X104902000Y-62738000D02*
X104394000Y-62230000D01*
X104902000Y-62738000D02*
X105410000Y-63246000D01*
X104902000Y-62738000D02*
X104140000Y-63500000D01*
X106426000Y-62484000D02*
X106426000Y-63246000D01*
X106426000Y-63246000D02*
X106680000Y-62992000D01*
X106680000Y-62992000D02*
X106172000Y-62992000D01*
X106172000Y-62992000D02*
X106426000Y-63246000D01*
X105918000Y-62738000D02*
X105918000Y-63500000D01*
X105918000Y-63500000D02*
X106172000Y-63246000D01*
X106172000Y-63246000D02*
X105664000Y-63246000D01*
X105664000Y-63246000D02*
X105918000Y-63500000D01*
X109474000Y-61722000D02*
X108966000Y-61214000D01*
X108966000Y-61214000D02*
X108458000Y-62738000D01*
X108458000Y-62738000D02*
X109982000Y-62230000D01*
X109982000Y-62230000D02*
X109474000Y-61722000D01*
X109474000Y-61722000D02*
X110236000Y-60960000D01*
X108458000Y-62738000D02*
X107950000Y-62230000D01*
X108458000Y-62738000D02*
X108966000Y-63246000D01*
X108458000Y-62738000D02*
X107696000Y-63500000D01*
X109982000Y-62484000D02*
X109982000Y-63246000D01*
X109982000Y-63246000D02*
X110236000Y-62992000D01*
X110236000Y-62992000D02*
X109728000Y-62992000D01*
X109728000Y-62992000D02*
X109982000Y-63246000D01*
X109474000Y-62738000D02*
X109474000Y-63500000D01*
X109474000Y-63500000D02*
X109728000Y-63246000D01*
X109728000Y-63246000D02*
X109220000Y-63246000D01*
X109220000Y-63246000D02*
X109474000Y-63500000D01*
X113030000Y-61722000D02*
X112522000Y-61214000D01*
X112522000Y-61214000D02*
X112014000Y-62738000D01*
X112014000Y-62738000D02*
X113538000Y-62230000D01*
X113538000Y-62230000D02*
X113030000Y-61722000D01*
X113030000Y-61722000D02*
X113792000Y-60960000D01*
X112014000Y-62738000D02*
X111506000Y-62230000D01*
X112014000Y-62738000D02*
X112522000Y-63246000D01*
X112014000Y-62738000D02*
X111252000Y-63500000D01*
X113538000Y-62484000D02*
X113538000Y-63246000D01*
X113538000Y-63246000D02*
X113792000Y-62992000D01*
X113792000Y-62992000D02*
X113284000Y-62992000D01*
X113284000Y-62992000D02*
X113538000Y-63246000D01*
X113030000Y-62738000D02*
X113030000Y-63500000D01*
X113030000Y-63500000D02*
X113284000Y-63246000D01*
X113284000Y-63246000D02*
X112776000Y-63246000D01*
X112776000Y-63246000D02*
X113030000Y-63500000D01*
X116586000Y-61722000D02*
X116078000Y-61214000D01*
X116078000Y-61214000D02*
X115570000Y-62738000D01*
X115570000Y-62738000D02*
X117094000Y-62230000D01*
X117094000Y-62230000D02*
X116586000Y-61722000D01*
X116586000Y-61722000D02*
X117348000Y-60960000D01*
X115570000Y-62738000D02*
X115062000Y-62230000D01*
X115570000Y-62738000D02*
X116078000Y-63246000D01*
X115570000Y-62738000D02*
X114808000Y-63500000D01*
X117094000Y-62484000D02*
X117094000Y-63246000D01*
X117094000Y-63246000D02*
X117348000Y-62992000D01*
X117348000Y-62992000D02*
X116840000Y-62992000D01*
X116840000Y-62992000D02*
X117094000Y-63246000D01*
X116586000Y-62738000D02*
X116586000Y-63500000D01*
X116586000Y-63500000D02*
X116840000Y-63246000D01*
X116840000Y-63246000D02*
X116332000Y-63246000D01*
X116332000Y-63246000D02*
X116586000Y-63500000D01*
X120142000Y-61722000D02*
X119634000Y-61214000D01*
X119634000Y-61214000D02*
X119126000Y-62738000D01*
X119126000Y-62738000D02*
X120650000Y-62230000D01*
X120650000Y-62230000D02*
X120142000Y-61722000D01*
X120142000Y-61722000D02*
X120904000Y-60960000D01*
X119126000Y-62738000D02*
X118618000Y-62230000D01*
X119126000Y-62738000D02*
X119634000Y-63246000D01*
X119126000Y-62738000D02*
X118364000Y-63500000D01*
X120650000Y-62484000D02*
X120650000Y-63246000D01*
X120650000Y-63246000D02*
X120904000Y-62992000D01*
X120904000Y-62992000D02*
X120396000Y-62992000D01*
X120396000Y-62992000D02*
X120650000Y-63246000D01*
X120142000Y-62738000D02*
X120142000Y-63500000D01*
X120142000Y-63500000D02*
X120396000Y-63246000D01*
X120396000Y-63246000D02*
X119888000Y-63246000D01*
X119888000Y-63246000D02*
X120142000Y-63500000D01*
X123698000Y-61722000D02*
X123190000Y-61214000D01*
X123190000Y-61214000D02*
X122682000Y-62738000D01*
X122682000Y-62738000D02*
X124206000Y-62230000D01*
X124206000Y-62230000D02*
X123698000Y-61722000D01*
X123698000Y-61722000D02*
X124460000Y-60960000D01*
X122682000Y-62738000D02*
X122174000Y-62230000D01*
X122682000Y-62738000D02*
X123190000Y-63246000D01*
X122682000Y-62738000D02*
X121920000Y-63500000D01*
X124206000Y-62484000D02*
X124206000Y-63246000D01*
X124206000Y-63246000D02*
X124460000Y-62992000D01*
X124460000Y-62992000D02*
X123952000Y-62992000D01*
X123952000Y-62992000D02*
X124206000Y-63246000D01*
X123698000Y-62738000D02*
X123698000Y-63500000D01*
X123698000Y-63500000D02*
X123952000Y-63246000D01*
X123952000Y-63246000D02*
X123444000Y-63246000D01*
X123444000Y-63246000D02*
X123698000Y-63500000D01*
X127254000Y-61722000D02*
X126746000Y-61214000D01*
X126746000Y-61214000D02*
X126238000Y-62738000D01*
X126238000Y-62738000D02*
X127762000Y-62230000D01*
X127762000Y-62230000D02*
X127254000Y-61722000D01*
X127254000Y-61722000D02*
X128016000Y-60960000D01*
X126238000Y-62738000D02*
X125730000Y-62230000D01*
X126238000Y-62738000D02*
X126746000Y-63246000D01*
X126238000Y-62738000D02*
X125476000Y-63500000D01*
X127762000Y-62484000D02*
X127762000Y-63246000D01*
X127762000Y-63246000D02*
X128016000Y-62992000D01*
X128016000Y-62992000D02*
X127508000Y-62992000D01*
X127508000Y-62992000D02*
X127762000Y-63246000D01*
X127254000Y-62738000D02*
X127254000Y-63500000D01*
X127254000Y-63500000D02*
X127508000Y-63246000D01*
X127508000Y-63246000D02*
X127000000Y-63246000D01*
X127000000Y-63246000D02*
X127254000Y-63500000D01*
X130810000Y-61722000D02*
X130302000Y-61214000D01*
X130302000Y-61214000D02*
X129794000Y-62738000D01*
X129794000Y-62738000D02*
X131318000Y-62230000D01*
X131318000Y-62230000D02*
X130810000Y-61722000D01*
X130810000Y-61722000D02*
X131572000Y-60960000D01*
X129794000Y-62738000D02*
X129286000Y-62230000D01*
X129794000Y-62738000D02*
X130302000Y-63246000D01*
X129794000Y-62738000D02*
X129032000Y-63500000D01*
X131318000Y-62484000D02*
X131318000Y-63246000D01*
X131318000Y-63246000D02*
X131572000Y-62992000D01*
X131572000Y-62992000D02*
X131064000Y-62992000D01*
X131064000Y-62992000D02*
X131318000Y-63246000D01*
X130810000Y-62738000D02*
X130810000Y-63500000D01*
X130810000Y-63500000D02*
X131064000Y-63246000D01*
X131064000Y-63246000D02*
X130556000Y-63246000D01*
X130556000Y-63246000D02*
X130810000Y-63500000D01*
X134366000Y-61722000D02*
X133858000Y-61214000D01*
X133858000Y-61214000D02*
X133350000Y-62738000D01*
X133350000Y-62738000D02*
X134874000Y-62230000D01*
X134874000Y-62230000D02*
X134366000Y-61722000D01*
X134366000Y-61722000D02*
X135128000Y-60960000D01*
X133350000Y-62738000D02*
X132842000Y-62230000D01*
X133350000Y-62738000D02*
X133858000Y-63246000D01*
X133350000Y-62738000D02*
X132588000Y-63500000D01*
X134874000Y-62484000D02*
X134874000Y-63246000D01*
X134874000Y-63246000D02*
X135128000Y-62992000D01*
X135128000Y-62992000D02*
X134620000Y-62992000D01*
X134620000Y-62992000D02*
X134874000Y-63246000D01*
X134366000Y-62738000D02*
X134366000Y-63500000D01*
X134366000Y-63500000D02*
X134620000Y-63246000D01*
X134620000Y-63246000D02*
X134112000Y-63246000D01*
X134112000Y-63246000D02*
X134366000Y-63500000D01*
X137922000Y-61722000D02*
X137414000Y-61214000D01*
X137414000Y-61214000D02*
X136906000Y-62738000D01*
X136906000Y-62738000D02*
X138430000Y-62230000D01*
X138430000Y-62230000D02*
X137922000Y-61722000D01*
X137922000Y-61722000D02*
X138684000Y-60960000D01*
X136906000Y-62738000D02*
X136398000Y-62230000D01*
X136906000Y-62738000D02*
X137414000Y-63246000D01*
X136906000Y-62738000D02*
X136144000Y-63500000D01*
X138430000Y-62484000D02*
X138430000Y-63246000D01*
X138430000Y-63246000D02*
X138684000Y-62992000D01*
X138684000Y-62992000D02*
X138176000Y-62992000D01*
X138176000Y-62992000D02*
X138430000Y-63246000D01*
X137922000Y-62738000D02*
X137922000Y-63500000D01*
X137922000Y-63500000D02*
X138176000Y-63246000D01*
X138176000Y-63246000D02*
X137668000Y-63246000D01*
X137668000Y-63246000D02*
X137922000Y-63500000D01*
X141478000Y-61722000D02*
X140970000Y-61214000D01*
X140970000Y-61214000D02*
X140462000Y-62738000D01*
X140462000Y-62738000D02*
X141986000Y-62230000D01*
X141986000Y-62230000D02*
X141478000Y-61722000D01*
X141478000Y-61722000D02*
X142240000Y-60960000D01*
X140462000Y-62738000D02*
X139954000Y-62230000D01*
X140462000Y-62738000D02*
X140970000Y-63246000D01*
X140462000Y-62738000D02*
X139700000Y-63500000D01*
X141986000Y-62484000D02*
X141986000Y-63246000D01*
X141986000Y-63246000D02*
X142240000Y-62992000D01*
X142240000Y-62992000D02*
X141732000Y-62992000D01*
X141732000Y-62992000D02*
X141986000Y-63246000D01*
X141478000Y-62738000D02*
X141478000Y-63500000D01*
X141478000Y-63500000D02*
X141732000Y-63246000D01*
X141732000Y-63246000D02*
X141224000Y-63246000D01*
X141224000Y-63246000D02*
X141478000Y-63500000D01*
X148590000Y-61722000D02*
X148082000Y-61214000D01*
X148082000Y-61214000D02*
X147574000Y-62738000D01*
X147574000Y-62738000D02*
X149098000Y-62230000D01*
X149098000Y-62230000D02*
X148590000Y-61722000D01*
X148590000Y-61722000D02*
X149352000Y-60960000D01*
X147574000Y-62738000D02*
X147066000Y-62230000D01*
X147574000Y-62738000D02*
X148082000Y-63246000D01*
X147574000Y-62738000D02*
X146812000Y-63500000D01*
X149098000Y-62484000D02*
X149098000Y-63246000D01*
X149098000Y-63246000D02*
X149352000Y-62992000D01*
X149352000Y-62992000D02*
X148844000Y-62992000D01*
X148844000Y-62992000D02*
X149098000Y-63246000D01*
X148590000Y-62738000D02*
X148590000Y-63500000D01*
X148590000Y-63500000D02*
X148844000Y-63246000D01*
X148844000Y-63246000D02*
X148336000Y-63246000D01*
X148336000Y-63246000D02*
X148590000Y-63500000D01*
X145034000Y-61722000D02*
X144526000Y-61214000D01*
X144526000Y-61214000D02*
X144018000Y-62738000D01*
X144018000Y-62738000D02*
X145542000Y-62230000D01*
X145542000Y-62230000D02*
X145034000Y-61722000D01*
X145034000Y-61722000D02*
X145796000Y-60960000D01*
X144018000Y-62738000D02*
X143510000Y-62230000D01*
X144018000Y-62738000D02*
X144526000Y-63246000D01*
X144018000Y-62738000D02*
X143256000Y-63500000D01*
X145542000Y-62484000D02*
X145542000Y-63246000D01*
X145542000Y-63246000D02*
X145796000Y-62992000D01*
X145796000Y-62992000D02*
X145288000Y-62992000D01*
X145288000Y-62992000D02*
X145542000Y-63246000D01*
X145034000Y-62738000D02*
X145034000Y-63500000D01*
X145034000Y-63500000D02*
X145288000Y-63246000D01*
X145288000Y-63246000D02*
X144780000Y-63246000D01*
X144780000Y-63246000D02*
X145034000Y-63500000D01*
%TD*%
M02*
