%TF.GenerationSoftware,KiCad,Pcbnew,5.1.6-c6e7f7d~87~ubuntu18.04.1*%
%TF.CreationDate,2020-09-19T20:19:40+02:00*%
%TF.ProjectId,rgbpmod,72676270-6d6f-4642-9e6b-696361645f70,rev?*%
%TF.SameCoordinates,Original*%
%TF.FileFunction,Copper,L1,Top*%
%TF.FilePolarity,Positive*%
%FSLAX46Y46*%
G04 Gerber Fmt 4.6, Leading zero omitted, Abs format (unit mm)*
G04 Created by KiCad (PCBNEW 5.1.6-c6e7f7d~87~ubuntu18.04.1) date 2020-09-19 20:19:40*
%MOMM*%
%LPD*%
G01*
G04 APERTURE LIST*
%TA.AperFunction,SMDPad,CuDef*%
%ADD10R,0.450000X0.450000*%
%TD*%
%TA.AperFunction,ComponentPad*%
%ADD11R,1.700000X1.700000*%
%TD*%
%TA.AperFunction,ComponentPad*%
%ADD12O,1.700000X1.700000*%
%TD*%
%TA.AperFunction,ViaPad*%
%ADD13C,0.800000*%
%TD*%
%TA.AperFunction,ViaPad*%
%ADD14C,0.500000*%
%TD*%
%TA.AperFunction,Conductor*%
%ADD15C,0.500000*%
%TD*%
%TA.AperFunction,Conductor*%
%ADD16C,0.250000*%
%TD*%
G04 APERTURE END LIST*
%TO.P,C1,2*%
%TO.N,VCC*%
%TA.AperFunction,SMDPad,CuDef*%
G36*
G01*
X134435000Y-79831250D02*
X134435000Y-78918750D01*
G75*
G02*
X134678750Y-78675000I243750J0D01*
G01*
X135166250Y-78675000D01*
G75*
G02*
X135410000Y-78918750I0J-243750D01*
G01*
X135410000Y-79831250D01*
G75*
G02*
X135166250Y-80075000I-243750J0D01*
G01*
X134678750Y-80075000D01*
G75*
G02*
X134435000Y-79831250I0J243750D01*
G01*
G37*
%TD.AperFunction*%
%TO.P,C1,1*%
%TO.N,BTN1*%
%TA.AperFunction,SMDPad,CuDef*%
G36*
G01*
X132560000Y-79831250D02*
X132560000Y-78918750D01*
G75*
G02*
X132803750Y-78675000I243750J0D01*
G01*
X133291250Y-78675000D01*
G75*
G02*
X133535000Y-78918750I0J-243750D01*
G01*
X133535000Y-79831250D01*
G75*
G02*
X133291250Y-80075000I-243750J0D01*
G01*
X132803750Y-80075000D01*
G75*
G02*
X132560000Y-79831250I0J243750D01*
G01*
G37*
%TD.AperFunction*%
%TD*%
%TO.P,C2,1*%
%TO.N,BTN2*%
%TA.AperFunction,SMDPad,CuDef*%
G36*
G01*
X137640000Y-79831250D02*
X137640000Y-78918750D01*
G75*
G02*
X137883750Y-78675000I243750J0D01*
G01*
X138371250Y-78675000D01*
G75*
G02*
X138615000Y-78918750I0J-243750D01*
G01*
X138615000Y-79831250D01*
G75*
G02*
X138371250Y-80075000I-243750J0D01*
G01*
X137883750Y-80075000D01*
G75*
G02*
X137640000Y-79831250I0J243750D01*
G01*
G37*
%TD.AperFunction*%
%TO.P,C2,2*%
%TO.N,VCC*%
%TA.AperFunction,SMDPad,CuDef*%
G36*
G01*
X139515000Y-79831250D02*
X139515000Y-78918750D01*
G75*
G02*
X139758750Y-78675000I243750J0D01*
G01*
X140246250Y-78675000D01*
G75*
G02*
X140490000Y-78918750I0J-243750D01*
G01*
X140490000Y-79831250D01*
G75*
G02*
X140246250Y-80075000I-243750J0D01*
G01*
X139758750Y-80075000D01*
G75*
G02*
X139515000Y-79831250I0J243750D01*
G01*
G37*
%TD.AperFunction*%
%TD*%
D10*
%TO.P,D1,1*%
%TO.N,SEG1*%
X122043000Y-65655000D03*
%TO.P,D1,2*%
%TO.N,GRID1*%
X122813000Y-65655000D03*
%TO.P,D1,3*%
%TO.N,GRID2*%
X122813000Y-66425000D03*
%TO.P,D1,4*%
%TO.N,GRID3*%
X122043000Y-66425000D03*
%TD*%
%TO.P,D2,4*%
%TO.N,GRID6*%
X122043000Y-68925000D03*
%TO.P,D2,3*%
%TO.N,GRID5*%
X122813000Y-68925000D03*
%TO.P,D2,2*%
%TO.N,GRID4*%
X122813000Y-68155000D03*
%TO.P,D2,1*%
%TO.N,SEG1*%
X122043000Y-68155000D03*
%TD*%
%TO.P,D3,1*%
%TO.N,SEG1*%
X122043000Y-70735000D03*
%TO.P,D3,2*%
%TO.N,GRID7*%
X122813000Y-70735000D03*
%TO.P,D3,3*%
%TO.N,GRID8*%
X122813000Y-71505000D03*
%TO.P,D3,4*%
%TO.N,GRID9*%
X122043000Y-71505000D03*
%TD*%
%TO.P,D4,4*%
%TO.N,GRID12*%
X122043000Y-74045000D03*
%TO.P,D4,3*%
%TO.N,GRID11*%
X122813000Y-74045000D03*
%TO.P,D4,2*%
%TO.N,GRID10*%
X122813000Y-73275000D03*
%TO.P,D4,1*%
%TO.N,SEG1*%
X122043000Y-73275000D03*
%TD*%
%TO.P,D5,1*%
%TO.N,SEG1*%
X122043000Y-75815000D03*
%TO.P,D5,2*%
%TO.N,GRID13*%
X122813000Y-75815000D03*
%TO.P,D5,3*%
%TO.N,GRID14*%
X122813000Y-76585000D03*
%TO.P,D5,4*%
%TO.N,GRID15*%
X122043000Y-76585000D03*
%TD*%
%TO.P,D6,4*%
%TO.N,GRID3*%
X124583000Y-66425000D03*
%TO.P,D6,3*%
%TO.N,GRID2*%
X125353000Y-66425000D03*
%TO.P,D6,2*%
%TO.N,GRID1*%
X125353000Y-65655000D03*
%TO.P,D6,1*%
%TO.N,SEG2*%
X124583000Y-65655000D03*
%TD*%
%TO.P,D7,1*%
%TO.N,SEG2*%
X124583000Y-68195000D03*
%TO.P,D7,2*%
%TO.N,GRID4*%
X125353000Y-68195000D03*
%TO.P,D7,3*%
%TO.N,GRID5*%
X125353000Y-68965000D03*
%TO.P,D7,4*%
%TO.N,GRID6*%
X124583000Y-68965000D03*
%TD*%
%TO.P,D8,1*%
%TO.N,SEG2*%
X124583000Y-70735000D03*
%TO.P,D8,2*%
%TO.N,GRID7*%
X125353000Y-70735000D03*
%TO.P,D8,3*%
%TO.N,GRID8*%
X125353000Y-71505000D03*
%TO.P,D8,4*%
%TO.N,GRID9*%
X124583000Y-71505000D03*
%TD*%
%TO.P,D9,4*%
%TO.N,GRID12*%
X124583000Y-74045000D03*
%TO.P,D9,3*%
%TO.N,GRID11*%
X125353000Y-74045000D03*
%TO.P,D9,2*%
%TO.N,GRID10*%
X125353000Y-73275000D03*
%TO.P,D9,1*%
%TO.N,SEG2*%
X124583000Y-73275000D03*
%TD*%
%TO.P,D10,4*%
%TO.N,GRID15*%
X124583000Y-76585000D03*
%TO.P,D10,3*%
%TO.N,GRID14*%
X125353000Y-76585000D03*
%TO.P,D10,2*%
%TO.N,GRID13*%
X125353000Y-75815000D03*
%TO.P,D10,1*%
%TO.N,SEG2*%
X124583000Y-75815000D03*
%TD*%
%TO.P,D11,4*%
%TO.N,GRID3*%
X127123000Y-66425000D03*
%TO.P,D11,3*%
%TO.N,GRID2*%
X127893000Y-66425000D03*
%TO.P,D11,2*%
%TO.N,GRID1*%
X127893000Y-65655000D03*
%TO.P,D11,1*%
%TO.N,SEG3*%
X127123000Y-65655000D03*
%TD*%
%TO.P,D12,1*%
%TO.N,SEG3*%
X127123000Y-68195000D03*
%TO.P,D12,2*%
%TO.N,GRID4*%
X127893000Y-68195000D03*
%TO.P,D12,3*%
%TO.N,GRID5*%
X127893000Y-68965000D03*
%TO.P,D12,4*%
%TO.N,GRID6*%
X127123000Y-68965000D03*
%TD*%
%TO.P,D13,4*%
%TO.N,GRID9*%
X127123000Y-71505000D03*
%TO.P,D13,3*%
%TO.N,GRID8*%
X127893000Y-71505000D03*
%TO.P,D13,2*%
%TO.N,GRID7*%
X127893000Y-70735000D03*
%TO.P,D13,1*%
%TO.N,SEG3*%
X127123000Y-70735000D03*
%TD*%
%TO.P,D14,1*%
%TO.N,SEG3*%
X127123000Y-73275000D03*
%TO.P,D14,2*%
%TO.N,GRID10*%
X127893000Y-73275000D03*
%TO.P,D14,3*%
%TO.N,GRID11*%
X127893000Y-74045000D03*
%TO.P,D14,4*%
%TO.N,GRID12*%
X127123000Y-74045000D03*
%TD*%
%TO.P,D15,1*%
%TO.N,SEG3*%
X127123000Y-75815000D03*
%TO.P,D15,2*%
%TO.N,GRID13*%
X127893000Y-75815000D03*
%TO.P,D15,3*%
%TO.N,GRID14*%
X127893000Y-76585000D03*
%TO.P,D15,4*%
%TO.N,GRID15*%
X127123000Y-76585000D03*
%TD*%
%TO.P,D16,4*%
%TO.N,GRID3*%
X129663000Y-66425000D03*
%TO.P,D16,3*%
%TO.N,GRID2*%
X130433000Y-66425000D03*
%TO.P,D16,2*%
%TO.N,GRID1*%
X130433000Y-65655000D03*
%TO.P,D16,1*%
%TO.N,SEG4*%
X129663000Y-65655000D03*
%TD*%
%TO.P,D17,1*%
%TO.N,SEG4*%
X129663000Y-68195000D03*
%TO.P,D17,2*%
%TO.N,GRID4*%
X130433000Y-68195000D03*
%TO.P,D17,3*%
%TO.N,GRID5*%
X130433000Y-68965000D03*
%TO.P,D17,4*%
%TO.N,GRID6*%
X129663000Y-68965000D03*
%TD*%
%TO.P,D18,4*%
%TO.N,GRID9*%
X129663000Y-71505000D03*
%TO.P,D18,3*%
%TO.N,GRID8*%
X130433000Y-71505000D03*
%TO.P,D18,2*%
%TO.N,GRID7*%
X130433000Y-70735000D03*
%TO.P,D18,1*%
%TO.N,SEG4*%
X129663000Y-70735000D03*
%TD*%
%TO.P,D19,1*%
%TO.N,SEG4*%
X129663000Y-73275000D03*
%TO.P,D19,2*%
%TO.N,GRID10*%
X130433000Y-73275000D03*
%TO.P,D19,3*%
%TO.N,GRID11*%
X130433000Y-74045000D03*
%TO.P,D19,4*%
%TO.N,GRID12*%
X129663000Y-74045000D03*
%TD*%
%TO.P,D20,4*%
%TO.N,GRID15*%
X129663000Y-76585000D03*
%TO.P,D20,3*%
%TO.N,GRID14*%
X130433000Y-76585000D03*
%TO.P,D20,2*%
%TO.N,GRID13*%
X130433000Y-75815000D03*
%TO.P,D20,1*%
%TO.N,SEG4*%
X129663000Y-75815000D03*
%TD*%
%TO.P,D21,4*%
%TO.N,GRID3*%
X132203000Y-66425000D03*
%TO.P,D21,3*%
%TO.N,GRID2*%
X132973000Y-66425000D03*
%TO.P,D21,2*%
%TO.N,GRID1*%
X132973000Y-65655000D03*
%TO.P,D21,1*%
%TO.N,SEG5*%
X132203000Y-65655000D03*
%TD*%
%TO.P,D22,4*%
%TO.N,GRID6*%
X132203000Y-68965000D03*
%TO.P,D22,3*%
%TO.N,GRID5*%
X132973000Y-68965000D03*
%TO.P,D22,2*%
%TO.N,GRID4*%
X132973000Y-68195000D03*
%TO.P,D22,1*%
%TO.N,SEG5*%
X132203000Y-68195000D03*
%TD*%
%TO.P,D23,4*%
%TO.N,GRID9*%
X132203000Y-71505000D03*
%TO.P,D23,3*%
%TO.N,GRID8*%
X132973000Y-71505000D03*
%TO.P,D23,2*%
%TO.N,GRID7*%
X132973000Y-70735000D03*
%TO.P,D23,1*%
%TO.N,SEG5*%
X132203000Y-70735000D03*
%TD*%
%TO.P,D24,1*%
%TO.N,SEG5*%
X132203000Y-73275000D03*
%TO.P,D24,2*%
%TO.N,GRID10*%
X132973000Y-73275000D03*
%TO.P,D24,3*%
%TO.N,GRID11*%
X132973000Y-74045000D03*
%TO.P,D24,4*%
%TO.N,GRID12*%
X132203000Y-74045000D03*
%TD*%
%TO.P,D25,1*%
%TO.N,SEG5*%
X132203000Y-75815000D03*
%TO.P,D25,2*%
%TO.N,GRID13*%
X132973000Y-75815000D03*
%TO.P,D25,3*%
%TO.N,GRID14*%
X132973000Y-76585000D03*
%TO.P,D25,4*%
%TO.N,GRID15*%
X132203000Y-76585000D03*
%TD*%
%TO.P,D26,4*%
%TO.N,GRID3*%
X134743000Y-66425000D03*
%TO.P,D26,3*%
%TO.N,GRID2*%
X135513000Y-66425000D03*
%TO.P,D26,2*%
%TO.N,GRID1*%
X135513000Y-65655000D03*
%TO.P,D26,1*%
%TO.N,SEG6*%
X134743000Y-65655000D03*
%TD*%
%TO.P,D27,1*%
%TO.N,SEG6*%
X134743000Y-68195000D03*
%TO.P,D27,2*%
%TO.N,GRID4*%
X135513000Y-68195000D03*
%TO.P,D27,3*%
%TO.N,GRID5*%
X135513000Y-68965000D03*
%TO.P,D27,4*%
%TO.N,GRID6*%
X134743000Y-68965000D03*
%TD*%
%TO.P,D28,4*%
%TO.N,GRID9*%
X134743000Y-71505000D03*
%TO.P,D28,3*%
%TO.N,GRID8*%
X135513000Y-71505000D03*
%TO.P,D28,2*%
%TO.N,GRID7*%
X135513000Y-70735000D03*
%TO.P,D28,1*%
%TO.N,SEG6*%
X134743000Y-70735000D03*
%TD*%
%TO.P,D29,1*%
%TO.N,SEG6*%
X134743000Y-73275000D03*
%TO.P,D29,2*%
%TO.N,GRID10*%
X135513000Y-73275000D03*
%TO.P,D29,3*%
%TO.N,GRID11*%
X135513000Y-74045000D03*
%TO.P,D29,4*%
%TO.N,GRID12*%
X134743000Y-74045000D03*
%TD*%
%TO.P,D30,4*%
%TO.N,GRID15*%
X134743000Y-76585000D03*
%TO.P,D30,3*%
%TO.N,GRID14*%
X135513000Y-76585000D03*
%TO.P,D30,2*%
%TO.N,GRID13*%
X135513000Y-75815000D03*
%TO.P,D30,1*%
%TO.N,SEG6*%
X134743000Y-75815000D03*
%TD*%
%TO.P,D31,4*%
%TO.N,GRID3*%
X137283000Y-66425000D03*
%TO.P,D31,3*%
%TO.N,GRID2*%
X138053000Y-66425000D03*
%TO.P,D31,2*%
%TO.N,GRID1*%
X138053000Y-65655000D03*
%TO.P,D31,1*%
%TO.N,SEG7*%
X137283000Y-65655000D03*
%TD*%
%TO.P,D32,1*%
%TO.N,SEG7*%
X137283000Y-68195000D03*
%TO.P,D32,2*%
%TO.N,GRID4*%
X138053000Y-68195000D03*
%TO.P,D32,3*%
%TO.N,GRID5*%
X138053000Y-68965000D03*
%TO.P,D32,4*%
%TO.N,GRID6*%
X137283000Y-68965000D03*
%TD*%
%TO.P,D33,4*%
%TO.N,GRID9*%
X137283000Y-71505000D03*
%TO.P,D33,3*%
%TO.N,GRID8*%
X138053000Y-71505000D03*
%TO.P,D33,2*%
%TO.N,GRID7*%
X138053000Y-70735000D03*
%TO.P,D33,1*%
%TO.N,SEG7*%
X137283000Y-70735000D03*
%TD*%
%TO.P,D34,1*%
%TO.N,SEG7*%
X137283000Y-73275000D03*
%TO.P,D34,2*%
%TO.N,GRID10*%
X138053000Y-73275000D03*
%TO.P,D34,3*%
%TO.N,GRID11*%
X138053000Y-74045000D03*
%TO.P,D34,4*%
%TO.N,GRID12*%
X137283000Y-74045000D03*
%TD*%
%TO.P,D35,1*%
%TO.N,SEG7*%
X137283000Y-75815000D03*
%TO.P,D35,2*%
%TO.N,GRID13*%
X138053000Y-75815000D03*
%TO.P,D35,3*%
%TO.N,GRID14*%
X138053000Y-76585000D03*
%TO.P,D35,4*%
%TO.N,GRID15*%
X137283000Y-76585000D03*
%TD*%
%TO.P,D36,1*%
%TO.N,SEG8*%
X139823000Y-65655000D03*
%TO.P,D36,2*%
%TO.N,GRID1*%
X140593000Y-65655000D03*
%TO.P,D36,3*%
%TO.N,GRID2*%
X140593000Y-66425000D03*
%TO.P,D36,4*%
%TO.N,GRID3*%
X139823000Y-66425000D03*
%TD*%
%TO.P,D37,1*%
%TO.N,SEG8*%
X139823000Y-68195000D03*
%TO.P,D37,2*%
%TO.N,GRID4*%
X140593000Y-68195000D03*
%TO.P,D37,3*%
%TO.N,GRID5*%
X140593000Y-68965000D03*
%TO.P,D37,4*%
%TO.N,GRID6*%
X139823000Y-68965000D03*
%TD*%
%TO.P,D38,4*%
%TO.N,GRID9*%
X139823000Y-71505000D03*
%TO.P,D38,3*%
%TO.N,GRID8*%
X140593000Y-71505000D03*
%TO.P,D38,2*%
%TO.N,GRID7*%
X140593000Y-70735000D03*
%TO.P,D38,1*%
%TO.N,SEG8*%
X139823000Y-70735000D03*
%TD*%
%TO.P,D39,1*%
%TO.N,SEG8*%
X139823000Y-73275000D03*
%TO.P,D39,2*%
%TO.N,GRID10*%
X140593000Y-73275000D03*
%TO.P,D39,3*%
%TO.N,GRID11*%
X140593000Y-74045000D03*
%TO.P,D39,4*%
%TO.N,GRID12*%
X139823000Y-74045000D03*
%TD*%
%TO.P,D40,4*%
%TO.N,GRID15*%
X139823000Y-76585000D03*
%TO.P,D40,3*%
%TO.N,GRID14*%
X140593000Y-76585000D03*
%TO.P,D40,2*%
%TO.N,GRID13*%
X140593000Y-75815000D03*
%TO.P,D40,1*%
%TO.N,SEG8*%
X139823000Y-75815000D03*
%TD*%
D11*
%TO.P,J1,1*%
%TO.N,DIN*%
X96520000Y-64770000D03*
D12*
%TO.P,J1,2*%
%TO.N,SCLK*%
X96520000Y-67310000D03*
%TO.P,J1,3*%
%TO.N,BTN1*%
X96520000Y-69850000D03*
%TO.P,J1,4*%
%TO.N,BTN2*%
X96520000Y-72390000D03*
%TO.P,J1,5*%
%TO.N,GND*%
X96520000Y-74930000D03*
%TO.P,J1,6*%
%TO.N,VCC*%
X96520000Y-77470000D03*
%TD*%
%TO.P,R1,2*%
%TO.N,BTN1*%
%TA.AperFunction,SMDPad,CuDef*%
G36*
G01*
X124275000Y-79831250D02*
X124275000Y-78918750D01*
G75*
G02*
X124518750Y-78675000I243750J0D01*
G01*
X125006250Y-78675000D01*
G75*
G02*
X125250000Y-78918750I0J-243750D01*
G01*
X125250000Y-79831250D01*
G75*
G02*
X125006250Y-80075000I-243750J0D01*
G01*
X124518750Y-80075000D01*
G75*
G02*
X124275000Y-79831250I0J243750D01*
G01*
G37*
%TD.AperFunction*%
%TO.P,R1,1*%
%TO.N,GND*%
%TA.AperFunction,SMDPad,CuDef*%
G36*
G01*
X122400000Y-79831250D02*
X122400000Y-78918750D01*
G75*
G02*
X122643750Y-78675000I243750J0D01*
G01*
X123131250Y-78675000D01*
G75*
G02*
X123375000Y-78918750I0J-243750D01*
G01*
X123375000Y-79831250D01*
G75*
G02*
X123131250Y-80075000I-243750J0D01*
G01*
X122643750Y-80075000D01*
G75*
G02*
X122400000Y-79831250I0J243750D01*
G01*
G37*
%TD.AperFunction*%
%TD*%
%TO.P,R2,2*%
%TO.N,BTN2*%
%TA.AperFunction,SMDPad,CuDef*%
G36*
G01*
X129355000Y-79831250D02*
X129355000Y-78918750D01*
G75*
G02*
X129598750Y-78675000I243750J0D01*
G01*
X130086250Y-78675000D01*
G75*
G02*
X130330000Y-78918750I0J-243750D01*
G01*
X130330000Y-79831250D01*
G75*
G02*
X130086250Y-80075000I-243750J0D01*
G01*
X129598750Y-80075000D01*
G75*
G02*
X129355000Y-79831250I0J243750D01*
G01*
G37*
%TD.AperFunction*%
%TO.P,R2,1*%
%TO.N,GND*%
%TA.AperFunction,SMDPad,CuDef*%
G36*
G01*
X127480000Y-79831250D02*
X127480000Y-78918750D01*
G75*
G02*
X127723750Y-78675000I243750J0D01*
G01*
X128211250Y-78675000D01*
G75*
G02*
X128455000Y-78918750I0J-243750D01*
G01*
X128455000Y-79831250D01*
G75*
G02*
X128211250Y-80075000I-243750J0D01*
G01*
X127723750Y-80075000D01*
G75*
G02*
X127480000Y-79831250I0J243750D01*
G01*
G37*
%TD.AperFunction*%
%TD*%
%TO.P,R3,1*%
%TO.N,VCC*%
%TA.AperFunction,SMDPad,CuDef*%
G36*
G01*
X100810000Y-65226250D02*
X100810000Y-64313750D01*
G75*
G02*
X101053750Y-64070000I243750J0D01*
G01*
X101541250Y-64070000D01*
G75*
G02*
X101785000Y-64313750I0J-243750D01*
G01*
X101785000Y-65226250D01*
G75*
G02*
X101541250Y-65470000I-243750J0D01*
G01*
X101053750Y-65470000D01*
G75*
G02*
X100810000Y-65226250I0J243750D01*
G01*
G37*
%TD.AperFunction*%
%TO.P,R3,2*%
%TO.N,DIN*%
%TA.AperFunction,SMDPad,CuDef*%
G36*
G01*
X102685000Y-65226250D02*
X102685000Y-64313750D01*
G75*
G02*
X102928750Y-64070000I243750J0D01*
G01*
X103416250Y-64070000D01*
G75*
G02*
X103660000Y-64313750I0J-243750D01*
G01*
X103660000Y-65226250D01*
G75*
G02*
X103416250Y-65470000I-243750J0D01*
G01*
X102928750Y-65470000D01*
G75*
G02*
X102685000Y-65226250I0J243750D01*
G01*
G37*
%TD.AperFunction*%
%TD*%
%TO.P,R4,1*%
%TO.N,VCC*%
%TA.AperFunction,SMDPad,CuDef*%
G36*
G01*
X100810000Y-67766250D02*
X100810000Y-66853750D01*
G75*
G02*
X101053750Y-66610000I243750J0D01*
G01*
X101541250Y-66610000D01*
G75*
G02*
X101785000Y-66853750I0J-243750D01*
G01*
X101785000Y-67766250D01*
G75*
G02*
X101541250Y-68010000I-243750J0D01*
G01*
X101053750Y-68010000D01*
G75*
G02*
X100810000Y-67766250I0J243750D01*
G01*
G37*
%TD.AperFunction*%
%TO.P,R4,2*%
%TO.N,SCLK*%
%TA.AperFunction,SMDPad,CuDef*%
G36*
G01*
X102685000Y-67766250D02*
X102685000Y-66853750D01*
G75*
G02*
X102928750Y-66610000I243750J0D01*
G01*
X103416250Y-66610000D01*
G75*
G02*
X103660000Y-66853750I0J-243750D01*
G01*
X103660000Y-67766250D01*
G75*
G02*
X103416250Y-68010000I-243750J0D01*
G01*
X102928750Y-68010000D01*
G75*
G02*
X102685000Y-67766250I0J243750D01*
G01*
G37*
%TD.AperFunction*%
%TD*%
%TO.P,SW1,1*%
%TO.N,VCC*%
%TA.AperFunction,SMDPad,CuDef*%
G36*
G01*
X142685000Y-66060000D02*
X142685000Y-65560000D01*
G75*
G02*
X142935000Y-65310000I250000J0D01*
G01*
X144435000Y-65310000D01*
G75*
G02*
X144685000Y-65560000I0J-250000D01*
G01*
X144685000Y-66060000D01*
G75*
G02*
X144435000Y-66310000I-250000J0D01*
G01*
X142935000Y-66310000D01*
G75*
G02*
X142685000Y-66060000I0J250000D01*
G01*
G37*
%TD.AperFunction*%
%TO.P,SW1,2*%
%TO.N,BTN1*%
%TA.AperFunction,SMDPad,CuDef*%
G36*
G01*
X142685000Y-69060000D02*
X142685000Y-68560000D01*
G75*
G02*
X142935000Y-68310000I250000J0D01*
G01*
X144435000Y-68310000D01*
G75*
G02*
X144685000Y-68560000I0J-250000D01*
G01*
X144685000Y-69060000D01*
G75*
G02*
X144435000Y-69310000I-250000J0D01*
G01*
X142935000Y-69310000D01*
G75*
G02*
X142685000Y-69060000I0J250000D01*
G01*
G37*
%TD.AperFunction*%
%TO.P,SW1,1*%
%TO.N,VCC*%
%TA.AperFunction,SMDPad,CuDef*%
G36*
G01*
X148685000Y-66060000D02*
X148685000Y-65560000D01*
G75*
G02*
X148935000Y-65310000I250000J0D01*
G01*
X150435000Y-65310000D01*
G75*
G02*
X150685000Y-65560000I0J-250000D01*
G01*
X150685000Y-66060000D01*
G75*
G02*
X150435000Y-66310000I-250000J0D01*
G01*
X148935000Y-66310000D01*
G75*
G02*
X148685000Y-66060000I0J250000D01*
G01*
G37*
%TD.AperFunction*%
%TO.P,SW1,2*%
%TO.N,BTN1*%
%TA.AperFunction,SMDPad,CuDef*%
G36*
G01*
X148685000Y-69060000D02*
X148685000Y-68560000D01*
G75*
G02*
X148935000Y-68310000I250000J0D01*
G01*
X150435000Y-68310000D01*
G75*
G02*
X150685000Y-68560000I0J-250000D01*
G01*
X150685000Y-69060000D01*
G75*
G02*
X150435000Y-69310000I-250000J0D01*
G01*
X148935000Y-69310000D01*
G75*
G02*
X148685000Y-69060000I0J250000D01*
G01*
G37*
%TD.AperFunction*%
%TD*%
%TO.P,SW2,2*%
%TO.N,BTN2*%
%TA.AperFunction,SMDPad,CuDef*%
G36*
G01*
X148685000Y-76680000D02*
X148685000Y-76180000D01*
G75*
G02*
X148935000Y-75930000I250000J0D01*
G01*
X150435000Y-75930000D01*
G75*
G02*
X150685000Y-76180000I0J-250000D01*
G01*
X150685000Y-76680000D01*
G75*
G02*
X150435000Y-76930000I-250000J0D01*
G01*
X148935000Y-76930000D01*
G75*
G02*
X148685000Y-76680000I0J250000D01*
G01*
G37*
%TD.AperFunction*%
%TO.P,SW2,1*%
%TO.N,VCC*%
%TA.AperFunction,SMDPad,CuDef*%
G36*
G01*
X148685000Y-73680000D02*
X148685000Y-73180000D01*
G75*
G02*
X148935000Y-72930000I250000J0D01*
G01*
X150435000Y-72930000D01*
G75*
G02*
X150685000Y-73180000I0J-250000D01*
G01*
X150685000Y-73680000D01*
G75*
G02*
X150435000Y-73930000I-250000J0D01*
G01*
X148935000Y-73930000D01*
G75*
G02*
X148685000Y-73680000I0J250000D01*
G01*
G37*
%TD.AperFunction*%
%TO.P,SW2,2*%
%TO.N,BTN2*%
%TA.AperFunction,SMDPad,CuDef*%
G36*
G01*
X142685000Y-76680000D02*
X142685000Y-76180000D01*
G75*
G02*
X142935000Y-75930000I250000J0D01*
G01*
X144435000Y-75930000D01*
G75*
G02*
X144685000Y-76180000I0J-250000D01*
G01*
X144685000Y-76680000D01*
G75*
G02*
X144435000Y-76930000I-250000J0D01*
G01*
X142935000Y-76930000D01*
G75*
G02*
X142685000Y-76680000I0J250000D01*
G01*
G37*
%TD.AperFunction*%
%TO.P,SW2,1*%
%TO.N,VCC*%
%TA.AperFunction,SMDPad,CuDef*%
G36*
G01*
X142685000Y-73680000D02*
X142685000Y-73180000D01*
G75*
G02*
X142935000Y-72930000I250000J0D01*
G01*
X144435000Y-72930000D01*
G75*
G02*
X144685000Y-73180000I0J-250000D01*
G01*
X144685000Y-73680000D01*
G75*
G02*
X144435000Y-73930000I-250000J0D01*
G01*
X142935000Y-73930000D01*
G75*
G02*
X142685000Y-73680000I0J250000D01*
G01*
G37*
%TD.AperFunction*%
%TD*%
%TO.P,U1,1*%
%TO.N,GRID12*%
%TA.AperFunction,SMDPad,CuDef*%
G36*
G01*
X117435000Y-79225000D02*
X117435000Y-79525000D01*
G75*
G02*
X117285000Y-79675000I-150000J0D01*
G01*
X115535000Y-79675000D01*
G75*
G02*
X115385000Y-79525000I0J150000D01*
G01*
X115385000Y-79225000D01*
G75*
G02*
X115535000Y-79075000I150000J0D01*
G01*
X117285000Y-79075000D01*
G75*
G02*
X117435000Y-79225000I0J-150000D01*
G01*
G37*
%TD.AperFunction*%
%TO.P,U1,2*%
%TO.N,GRID13*%
%TA.AperFunction,SMDPad,CuDef*%
G36*
G01*
X117435000Y-77955000D02*
X117435000Y-78255000D01*
G75*
G02*
X117285000Y-78405000I-150000J0D01*
G01*
X115535000Y-78405000D01*
G75*
G02*
X115385000Y-78255000I0J150000D01*
G01*
X115385000Y-77955000D01*
G75*
G02*
X115535000Y-77805000I150000J0D01*
G01*
X117285000Y-77805000D01*
G75*
G02*
X117435000Y-77955000I0J-150000D01*
G01*
G37*
%TD.AperFunction*%
%TO.P,U1,3*%
%TO.N,GRID14*%
%TA.AperFunction,SMDPad,CuDef*%
G36*
G01*
X117435000Y-76685000D02*
X117435000Y-76985000D01*
G75*
G02*
X117285000Y-77135000I-150000J0D01*
G01*
X115535000Y-77135000D01*
G75*
G02*
X115385000Y-76985000I0J150000D01*
G01*
X115385000Y-76685000D01*
G75*
G02*
X115535000Y-76535000I150000J0D01*
G01*
X117285000Y-76535000D01*
G75*
G02*
X117435000Y-76685000I0J-150000D01*
G01*
G37*
%TD.AperFunction*%
%TO.P,U1,4*%
%TO.N,GRID15*%
%TA.AperFunction,SMDPad,CuDef*%
G36*
G01*
X117435000Y-75415000D02*
X117435000Y-75715000D01*
G75*
G02*
X117285000Y-75865000I-150000J0D01*
G01*
X115535000Y-75865000D01*
G75*
G02*
X115385000Y-75715000I0J150000D01*
G01*
X115385000Y-75415000D01*
G75*
G02*
X115535000Y-75265000I150000J0D01*
G01*
X117285000Y-75265000D01*
G75*
G02*
X117435000Y-75415000I0J-150000D01*
G01*
G37*
%TD.AperFunction*%
%TO.P,U1,5*%
%TO.N,Net-(U1-Pad5)*%
%TA.AperFunction,SMDPad,CuDef*%
G36*
G01*
X117435000Y-74145000D02*
X117435000Y-74445000D01*
G75*
G02*
X117285000Y-74595000I-150000J0D01*
G01*
X115535000Y-74595000D01*
G75*
G02*
X115385000Y-74445000I0J150000D01*
G01*
X115385000Y-74145000D01*
G75*
G02*
X115535000Y-73995000I150000J0D01*
G01*
X117285000Y-73995000D01*
G75*
G02*
X117435000Y-74145000I0J-150000D01*
G01*
G37*
%TD.AperFunction*%
%TO.P,U1,6*%
%TO.N,GND*%
%TA.AperFunction,SMDPad,CuDef*%
G36*
G01*
X117435000Y-72875000D02*
X117435000Y-73175000D01*
G75*
G02*
X117285000Y-73325000I-150000J0D01*
G01*
X115535000Y-73325000D01*
G75*
G02*
X115385000Y-73175000I0J150000D01*
G01*
X115385000Y-72875000D01*
G75*
G02*
X115535000Y-72725000I150000J0D01*
G01*
X117285000Y-72725000D01*
G75*
G02*
X117435000Y-72875000I0J-150000D01*
G01*
G37*
%TD.AperFunction*%
%TO.P,U1,7*%
%TO.N,DIN*%
%TA.AperFunction,SMDPad,CuDef*%
G36*
G01*
X117435000Y-71605000D02*
X117435000Y-71905000D01*
G75*
G02*
X117285000Y-72055000I-150000J0D01*
G01*
X115535000Y-72055000D01*
G75*
G02*
X115385000Y-71905000I0J150000D01*
G01*
X115385000Y-71605000D01*
G75*
G02*
X115535000Y-71455000I150000J0D01*
G01*
X117285000Y-71455000D01*
G75*
G02*
X117435000Y-71605000I0J-150000D01*
G01*
G37*
%TD.AperFunction*%
%TO.P,U1,8*%
%TO.N,SCLK*%
%TA.AperFunction,SMDPad,CuDef*%
G36*
G01*
X117435000Y-70335000D02*
X117435000Y-70635000D01*
G75*
G02*
X117285000Y-70785000I-150000J0D01*
G01*
X115535000Y-70785000D01*
G75*
G02*
X115385000Y-70635000I0J150000D01*
G01*
X115385000Y-70335000D01*
G75*
G02*
X115535000Y-70185000I150000J0D01*
G01*
X117285000Y-70185000D01*
G75*
G02*
X117435000Y-70335000I0J-150000D01*
G01*
G37*
%TD.AperFunction*%
%TO.P,U1,9*%
%TO.N,SEG1*%
%TA.AperFunction,SMDPad,CuDef*%
G36*
G01*
X117435000Y-69065000D02*
X117435000Y-69365000D01*
G75*
G02*
X117285000Y-69515000I-150000J0D01*
G01*
X115535000Y-69515000D01*
G75*
G02*
X115385000Y-69365000I0J150000D01*
G01*
X115385000Y-69065000D01*
G75*
G02*
X115535000Y-68915000I150000J0D01*
G01*
X117285000Y-68915000D01*
G75*
G02*
X117435000Y-69065000I0J-150000D01*
G01*
G37*
%TD.AperFunction*%
%TO.P,U1,10*%
%TO.N,SEG2*%
%TA.AperFunction,SMDPad,CuDef*%
G36*
G01*
X117435000Y-67795000D02*
X117435000Y-68095000D01*
G75*
G02*
X117285000Y-68245000I-150000J0D01*
G01*
X115535000Y-68245000D01*
G75*
G02*
X115385000Y-68095000I0J150000D01*
G01*
X115385000Y-67795000D01*
G75*
G02*
X115535000Y-67645000I150000J0D01*
G01*
X117285000Y-67645000D01*
G75*
G02*
X117435000Y-67795000I0J-150000D01*
G01*
G37*
%TD.AperFunction*%
%TO.P,U1,11*%
%TO.N,SEG3*%
%TA.AperFunction,SMDPad,CuDef*%
G36*
G01*
X117435000Y-66525000D02*
X117435000Y-66825000D01*
G75*
G02*
X117285000Y-66975000I-150000J0D01*
G01*
X115535000Y-66975000D01*
G75*
G02*
X115385000Y-66825000I0J150000D01*
G01*
X115385000Y-66525000D01*
G75*
G02*
X115535000Y-66375000I150000J0D01*
G01*
X117285000Y-66375000D01*
G75*
G02*
X117435000Y-66525000I0J-150000D01*
G01*
G37*
%TD.AperFunction*%
%TO.P,U1,12*%
%TO.N,SEG4*%
%TA.AperFunction,SMDPad,CuDef*%
G36*
G01*
X117435000Y-65255000D02*
X117435000Y-65555000D01*
G75*
G02*
X117285000Y-65705000I-150000J0D01*
G01*
X115535000Y-65705000D01*
G75*
G02*
X115385000Y-65555000I0J150000D01*
G01*
X115385000Y-65255000D01*
G75*
G02*
X115535000Y-65105000I150000J0D01*
G01*
X117285000Y-65105000D01*
G75*
G02*
X117435000Y-65255000I0J-150000D01*
G01*
G37*
%TD.AperFunction*%
%TO.P,U1,13*%
%TO.N,SEG5*%
%TA.AperFunction,SMDPad,CuDef*%
G36*
G01*
X117435000Y-63985000D02*
X117435000Y-64285000D01*
G75*
G02*
X117285000Y-64435000I-150000J0D01*
G01*
X115535000Y-64435000D01*
G75*
G02*
X115385000Y-64285000I0J150000D01*
G01*
X115385000Y-63985000D01*
G75*
G02*
X115535000Y-63835000I150000J0D01*
G01*
X117285000Y-63835000D01*
G75*
G02*
X117435000Y-63985000I0J-150000D01*
G01*
G37*
%TD.AperFunction*%
%TO.P,U1,14*%
%TO.N,SEG6*%
%TA.AperFunction,SMDPad,CuDef*%
G36*
G01*
X117435000Y-62715000D02*
X117435000Y-63015000D01*
G75*
G02*
X117285000Y-63165000I-150000J0D01*
G01*
X115535000Y-63165000D01*
G75*
G02*
X115385000Y-63015000I0J150000D01*
G01*
X115385000Y-62715000D01*
G75*
G02*
X115535000Y-62565000I150000J0D01*
G01*
X117285000Y-62565000D01*
G75*
G02*
X117435000Y-62715000I0J-150000D01*
G01*
G37*
%TD.AperFunction*%
%TO.P,U1,15*%
%TO.N,SEG7*%
%TA.AperFunction,SMDPad,CuDef*%
G36*
G01*
X108135000Y-62715000D02*
X108135000Y-63015000D01*
G75*
G02*
X107985000Y-63165000I-150000J0D01*
G01*
X106235000Y-63165000D01*
G75*
G02*
X106085000Y-63015000I0J150000D01*
G01*
X106085000Y-62715000D01*
G75*
G02*
X106235000Y-62565000I150000J0D01*
G01*
X107985000Y-62565000D01*
G75*
G02*
X108135000Y-62715000I0J-150000D01*
G01*
G37*
%TD.AperFunction*%
%TO.P,U1,16*%
%TO.N,SEG8*%
%TA.AperFunction,SMDPad,CuDef*%
G36*
G01*
X108135000Y-63985000D02*
X108135000Y-64285000D01*
G75*
G02*
X107985000Y-64435000I-150000J0D01*
G01*
X106235000Y-64435000D01*
G75*
G02*
X106085000Y-64285000I0J150000D01*
G01*
X106085000Y-63985000D01*
G75*
G02*
X106235000Y-63835000I150000J0D01*
G01*
X107985000Y-63835000D01*
G75*
G02*
X108135000Y-63985000I0J-150000D01*
G01*
G37*
%TD.AperFunction*%
%TO.P,U1,17*%
%TO.N,VCC*%
%TA.AperFunction,SMDPad,CuDef*%
G36*
G01*
X108135000Y-65255000D02*
X108135000Y-65555000D01*
G75*
G02*
X107985000Y-65705000I-150000J0D01*
G01*
X106235000Y-65705000D01*
G75*
G02*
X106085000Y-65555000I0J150000D01*
G01*
X106085000Y-65255000D01*
G75*
G02*
X106235000Y-65105000I150000J0D01*
G01*
X107985000Y-65105000D01*
G75*
G02*
X108135000Y-65255000I0J-150000D01*
G01*
G37*
%TD.AperFunction*%
%TO.P,U1,18*%
%TO.N,GRID1*%
%TA.AperFunction,SMDPad,CuDef*%
G36*
G01*
X108135000Y-66525000D02*
X108135000Y-66825000D01*
G75*
G02*
X107985000Y-66975000I-150000J0D01*
G01*
X106235000Y-66975000D01*
G75*
G02*
X106085000Y-66825000I0J150000D01*
G01*
X106085000Y-66525000D01*
G75*
G02*
X106235000Y-66375000I150000J0D01*
G01*
X107985000Y-66375000D01*
G75*
G02*
X108135000Y-66525000I0J-150000D01*
G01*
G37*
%TD.AperFunction*%
%TO.P,U1,19*%
%TO.N,GRID2*%
%TA.AperFunction,SMDPad,CuDef*%
G36*
G01*
X108135000Y-67795000D02*
X108135000Y-68095000D01*
G75*
G02*
X107985000Y-68245000I-150000J0D01*
G01*
X106235000Y-68245000D01*
G75*
G02*
X106085000Y-68095000I0J150000D01*
G01*
X106085000Y-67795000D01*
G75*
G02*
X106235000Y-67645000I150000J0D01*
G01*
X107985000Y-67645000D01*
G75*
G02*
X108135000Y-67795000I0J-150000D01*
G01*
G37*
%TD.AperFunction*%
%TO.P,U1,20*%
%TO.N,GRID3*%
%TA.AperFunction,SMDPad,CuDef*%
G36*
G01*
X108135000Y-69065000D02*
X108135000Y-69365000D01*
G75*
G02*
X107985000Y-69515000I-150000J0D01*
G01*
X106235000Y-69515000D01*
G75*
G02*
X106085000Y-69365000I0J150000D01*
G01*
X106085000Y-69065000D01*
G75*
G02*
X106235000Y-68915000I150000J0D01*
G01*
X107985000Y-68915000D01*
G75*
G02*
X108135000Y-69065000I0J-150000D01*
G01*
G37*
%TD.AperFunction*%
%TO.P,U1,21*%
%TO.N,GRID4*%
%TA.AperFunction,SMDPad,CuDef*%
G36*
G01*
X108135000Y-70335000D02*
X108135000Y-70635000D01*
G75*
G02*
X107985000Y-70785000I-150000J0D01*
G01*
X106235000Y-70785000D01*
G75*
G02*
X106085000Y-70635000I0J150000D01*
G01*
X106085000Y-70335000D01*
G75*
G02*
X106235000Y-70185000I150000J0D01*
G01*
X107985000Y-70185000D01*
G75*
G02*
X108135000Y-70335000I0J-150000D01*
G01*
G37*
%TD.AperFunction*%
%TO.P,U1,22*%
%TO.N,GRID5*%
%TA.AperFunction,SMDPad,CuDef*%
G36*
G01*
X108135000Y-71605000D02*
X108135000Y-71905000D01*
G75*
G02*
X107985000Y-72055000I-150000J0D01*
G01*
X106235000Y-72055000D01*
G75*
G02*
X106085000Y-71905000I0J150000D01*
G01*
X106085000Y-71605000D01*
G75*
G02*
X106235000Y-71455000I150000J0D01*
G01*
X107985000Y-71455000D01*
G75*
G02*
X108135000Y-71605000I0J-150000D01*
G01*
G37*
%TD.AperFunction*%
%TO.P,U1,23*%
%TO.N,GRID6*%
%TA.AperFunction,SMDPad,CuDef*%
G36*
G01*
X108135000Y-72875000D02*
X108135000Y-73175000D01*
G75*
G02*
X107985000Y-73325000I-150000J0D01*
G01*
X106235000Y-73325000D01*
G75*
G02*
X106085000Y-73175000I0J150000D01*
G01*
X106085000Y-72875000D01*
G75*
G02*
X106235000Y-72725000I150000J0D01*
G01*
X107985000Y-72725000D01*
G75*
G02*
X108135000Y-72875000I0J-150000D01*
G01*
G37*
%TD.AperFunction*%
%TO.P,U1,24*%
%TO.N,GRID7*%
%TA.AperFunction,SMDPad,CuDef*%
G36*
G01*
X108135000Y-74145000D02*
X108135000Y-74445000D01*
G75*
G02*
X107985000Y-74595000I-150000J0D01*
G01*
X106235000Y-74595000D01*
G75*
G02*
X106085000Y-74445000I0J150000D01*
G01*
X106085000Y-74145000D01*
G75*
G02*
X106235000Y-73995000I150000J0D01*
G01*
X107985000Y-73995000D01*
G75*
G02*
X108135000Y-74145000I0J-150000D01*
G01*
G37*
%TD.AperFunction*%
%TO.P,U1,25*%
%TO.N,GRID8*%
%TA.AperFunction,SMDPad,CuDef*%
G36*
G01*
X108135000Y-75415000D02*
X108135000Y-75715000D01*
G75*
G02*
X107985000Y-75865000I-150000J0D01*
G01*
X106235000Y-75865000D01*
G75*
G02*
X106085000Y-75715000I0J150000D01*
G01*
X106085000Y-75415000D01*
G75*
G02*
X106235000Y-75265000I150000J0D01*
G01*
X107985000Y-75265000D01*
G75*
G02*
X108135000Y-75415000I0J-150000D01*
G01*
G37*
%TD.AperFunction*%
%TO.P,U1,26*%
%TO.N,GRID9*%
%TA.AperFunction,SMDPad,CuDef*%
G36*
G01*
X108135000Y-76685000D02*
X108135000Y-76985000D01*
G75*
G02*
X107985000Y-77135000I-150000J0D01*
G01*
X106235000Y-77135000D01*
G75*
G02*
X106085000Y-76985000I0J150000D01*
G01*
X106085000Y-76685000D01*
G75*
G02*
X106235000Y-76535000I150000J0D01*
G01*
X107985000Y-76535000D01*
G75*
G02*
X108135000Y-76685000I0J-150000D01*
G01*
G37*
%TD.AperFunction*%
%TO.P,U1,27*%
%TO.N,GRID10*%
%TA.AperFunction,SMDPad,CuDef*%
G36*
G01*
X108135000Y-77955000D02*
X108135000Y-78255000D01*
G75*
G02*
X107985000Y-78405000I-150000J0D01*
G01*
X106235000Y-78405000D01*
G75*
G02*
X106085000Y-78255000I0J150000D01*
G01*
X106085000Y-77955000D01*
G75*
G02*
X106235000Y-77805000I150000J0D01*
G01*
X107985000Y-77805000D01*
G75*
G02*
X108135000Y-77955000I0J-150000D01*
G01*
G37*
%TD.AperFunction*%
%TO.P,U1,28*%
%TO.N,GRID11*%
%TA.AperFunction,SMDPad,CuDef*%
G36*
G01*
X108135000Y-79225000D02*
X108135000Y-79525000D01*
G75*
G02*
X107985000Y-79675000I-150000J0D01*
G01*
X106235000Y-79675000D01*
G75*
G02*
X106085000Y-79525000I0J150000D01*
G01*
X106085000Y-79225000D01*
G75*
G02*
X106235000Y-79075000I150000J0D01*
G01*
X107985000Y-79075000D01*
G75*
G02*
X108135000Y-79225000I0J-150000D01*
G01*
G37*
%TD.AperFunction*%
%TD*%
%TO.P,C3,1*%
%TO.N,VCC*%
%TA.AperFunction,SMDPad,CuDef*%
G36*
G01*
X102785000Y-79900000D02*
X101685000Y-79900000D01*
G75*
G02*
X101435000Y-79650000I0J250000D01*
G01*
X101435000Y-77150000D01*
G75*
G02*
X101685000Y-76900000I250000J0D01*
G01*
X102785000Y-76900000D01*
G75*
G02*
X103035000Y-77150000I0J-250000D01*
G01*
X103035000Y-79650000D01*
G75*
G02*
X102785000Y-79900000I-250000J0D01*
G01*
G37*
%TD.AperFunction*%
%TO.P,C3,2*%
%TO.N,GND*%
%TA.AperFunction,SMDPad,CuDef*%
G36*
G01*
X102785000Y-75500000D02*
X101685000Y-75500000D01*
G75*
G02*
X101435000Y-75250000I0J250000D01*
G01*
X101435000Y-72750000D01*
G75*
G02*
X101685000Y-72500000I250000J0D01*
G01*
X102785000Y-72500000D01*
G75*
G02*
X103035000Y-72750000I0J-250000D01*
G01*
X103035000Y-75250000D01*
G75*
G02*
X102785000Y-75500000I-250000J0D01*
G01*
G37*
%TD.AperFunction*%
%TD*%
%TO.P,C4,1*%
%TO.N,GND*%
%TA.AperFunction,SMDPad,CuDef*%
G36*
G01*
X100810000Y-70941250D02*
X100810000Y-70028750D01*
G75*
G02*
X101053750Y-69785000I243750J0D01*
G01*
X101541250Y-69785000D01*
G75*
G02*
X101785000Y-70028750I0J-243750D01*
G01*
X101785000Y-70941250D01*
G75*
G02*
X101541250Y-71185000I-243750J0D01*
G01*
X101053750Y-71185000D01*
G75*
G02*
X100810000Y-70941250I0J243750D01*
G01*
G37*
%TD.AperFunction*%
%TO.P,C4,2*%
%TO.N,VCC*%
%TA.AperFunction,SMDPad,CuDef*%
G36*
G01*
X102685000Y-70941250D02*
X102685000Y-70028750D01*
G75*
G02*
X102928750Y-69785000I243750J0D01*
G01*
X103416250Y-69785000D01*
G75*
G02*
X103660000Y-70028750I0J-243750D01*
G01*
X103660000Y-70941250D01*
G75*
G02*
X103416250Y-71185000I-243750J0D01*
G01*
X102928750Y-71185000D01*
G75*
G02*
X102685000Y-70941250I0J243750D01*
G01*
G37*
%TD.AperFunction*%
%TD*%
D13*
%TO.N,VCC*%
X103505000Y-76200000D03*
X103547572Y-71974980D03*
D14*
%TO.N,BTN1*%
X127635000Y-77710001D03*
X125730000Y-79375000D03*
%TO.N,BTN2*%
X130810000Y-79375000D03*
X137160000Y-79375000D03*
%TO.N,GRID1*%
X123438457Y-65781352D03*
X125977704Y-65782852D03*
X128517704Y-65782852D03*
X131057704Y-65782852D03*
X133597704Y-65782852D03*
X136137704Y-65782852D03*
X138677704Y-65782852D03*
X141224000Y-65786000D03*
X108712000Y-66802000D03*
%TO.N,GRID2*%
X123377000Y-66481000D03*
X125917000Y-66481000D03*
X128457000Y-66481000D03*
X130997000Y-66481000D03*
X133537000Y-66481000D03*
X136077000Y-66481000D03*
X138617000Y-66481000D03*
X141224000Y-66548000D03*
X108712000Y-68072000D03*
%TO.N,GRID3*%
X121987000Y-67056000D03*
X124527000Y-67056000D03*
X127067000Y-67056000D03*
X129607000Y-67056000D03*
X132147000Y-67056000D03*
X134687000Y-67056000D03*
X137227000Y-67056000D03*
X139767000Y-67056000D03*
X108712000Y-69342000D03*
%TO.N,GRID6*%
X122174000Y-69596000D03*
X124527000Y-69596000D03*
X127067000Y-69596000D03*
X129607000Y-69596000D03*
X132147000Y-69596000D03*
X134687000Y-69596000D03*
X137227000Y-69596000D03*
X139767000Y-69596000D03*
X108712000Y-73152000D03*
%TO.N,GRID5*%
X123377000Y-69021000D03*
X125917000Y-69021000D03*
X128457000Y-69021000D03*
X130997000Y-69021000D03*
X133537000Y-69021000D03*
X136077000Y-69021000D03*
X138617000Y-69021000D03*
X141224000Y-69088000D03*
X108712000Y-71882000D03*
%TO.N,GRID4*%
X123377000Y-68072000D03*
X125917000Y-68072000D03*
X128457000Y-68072000D03*
X130997000Y-68072000D03*
X133537000Y-68072000D03*
X136077000Y-68072000D03*
X138617000Y-68072000D03*
X141224000Y-68072000D03*
X108712000Y-70612000D03*
%TO.N,GRID7*%
X123377000Y-70612000D03*
X125917000Y-70612000D03*
X128457000Y-70612000D03*
X130997000Y-70612000D03*
X133537000Y-70612000D03*
X136077000Y-70612000D03*
X138617000Y-70612000D03*
X141224000Y-70612000D03*
X108712000Y-74422000D03*
%TO.N,GRID8*%
X123377000Y-71561000D03*
X125917000Y-71561000D03*
X128457000Y-71561000D03*
X130997000Y-71561000D03*
X133537000Y-71561000D03*
X136077000Y-71561000D03*
X138617000Y-71561000D03*
X141224000Y-71628000D03*
X108712000Y-75692000D03*
%TO.N,GRID9*%
X122174000Y-72136000D03*
X124527000Y-72136000D03*
X127067000Y-72136000D03*
X129607000Y-72136000D03*
X132147000Y-72136000D03*
X134687000Y-72136000D03*
X137227000Y-72136000D03*
X139767000Y-72136000D03*
X108712000Y-76962000D03*
%TO.N,GRID12*%
X122174000Y-74676000D03*
X124527000Y-74676000D03*
X127067000Y-74676000D03*
X129607000Y-74676000D03*
X132147000Y-74676000D03*
X134687000Y-74676000D03*
X137227000Y-74676000D03*
X139767000Y-74676000D03*
X117856000Y-79248000D03*
%TO.N,GRID11*%
X123377000Y-74101000D03*
X125917000Y-74101000D03*
X128457000Y-74101000D03*
X130997000Y-74101000D03*
X133537000Y-74101000D03*
X136077000Y-74101000D03*
X138617000Y-74101000D03*
X141224000Y-74168000D03*
X108712000Y-79248000D03*
%TO.N,GRID10*%
X123377000Y-73152000D03*
X125917000Y-73152000D03*
X128457000Y-73152000D03*
X130997000Y-73152000D03*
X133537000Y-73152000D03*
X136077000Y-73152000D03*
X138617000Y-73152000D03*
X141224000Y-73152000D03*
X108712000Y-78232000D03*
%TO.N,GRID13*%
X123437704Y-75695148D03*
X125977704Y-75695148D03*
X128517704Y-75695148D03*
X131057704Y-75695148D03*
X133597704Y-75695148D03*
X136137704Y-75695148D03*
X138677704Y-75695148D03*
X141224000Y-75692000D03*
X117856000Y-77724000D03*
%TO.N,GRID14*%
X123444000Y-76454000D03*
X125984000Y-76454000D03*
X128524000Y-76454000D03*
X131064000Y-76454000D03*
X133604000Y-76454000D03*
X136144000Y-76454000D03*
X138684000Y-76454000D03*
X141224000Y-76454000D03*
X118364000Y-76708000D03*
%TD*%
D15*
%TO.N,VCC*%
X101305000Y-77470000D02*
X102235000Y-78400000D01*
X96520000Y-77470000D02*
X101305000Y-77470000D01*
X101297500Y-64770000D02*
X101297500Y-67310000D01*
X101297500Y-68610000D02*
X103172500Y-70485000D01*
X101297500Y-67310000D02*
X101297500Y-68610000D01*
X101297500Y-64770000D02*
X102567500Y-63500000D01*
X106506456Y-65405000D02*
X107110000Y-65405000D01*
X104601456Y-63500000D02*
X106506456Y-65405000D01*
X102567500Y-63500000D02*
X104601456Y-63500000D01*
D16*
X133847480Y-80450020D02*
X134922500Y-79375000D01*
X114711822Y-80010000D02*
X115151842Y-80450020D01*
X102235000Y-78400000D02*
X103845000Y-80010000D01*
X115151842Y-80450020D02*
X133847480Y-80450020D01*
X103845000Y-80010000D02*
X114711822Y-80010000D01*
X138927480Y-80450020D02*
X140002500Y-79375000D01*
X133847480Y-80450020D02*
X138927480Y-80450020D01*
X151010010Y-74755010D02*
X149685000Y-73430000D01*
X151010010Y-76918180D02*
X151010010Y-74755010D01*
X140002500Y-79375000D02*
X148553190Y-79375000D01*
X148553190Y-79375000D02*
X151010010Y-76918180D01*
X151010010Y-67135010D02*
X149685000Y-65810000D01*
X151010010Y-74755010D02*
X151010010Y-67135010D01*
X149685000Y-65810000D02*
X143685000Y-65810000D01*
X149685000Y-73430000D02*
X143685000Y-73430000D01*
D15*
X102235000Y-78400000D02*
X102235000Y-77470000D01*
X102235000Y-77470000D02*
X103505000Y-76200000D01*
X103547572Y-70860072D02*
X103172500Y-70485000D01*
X103547572Y-71974980D02*
X103547572Y-70860072D01*
D16*
%TO.N,BTN1*%
X149685000Y-68810000D02*
X143685000Y-68810000D01*
X141799001Y-76730001D02*
X140943991Y-77585011D01*
X141799001Y-71904001D02*
X141799001Y-76730001D01*
X142831999Y-70871003D02*
X141799001Y-71904001D01*
X143685000Y-68810000D02*
X142831999Y-69663001D01*
X142831999Y-69663001D02*
X142831999Y-70871003D01*
X140943991Y-77585011D02*
X133869989Y-77585011D01*
X133047500Y-78407500D02*
X133047500Y-79375000D01*
X133869989Y-77585011D02*
X133047500Y-78407500D01*
X133869989Y-77585011D02*
X127759990Y-77585011D01*
X127759990Y-77585011D02*
X127635000Y-77710001D01*
X125730000Y-79375000D02*
X124762500Y-79375000D01*
%TO.N,BTN2*%
X149685000Y-76430000D02*
X143685000Y-76430000D01*
X129842500Y-79375000D02*
X130810000Y-79375000D01*
X137160000Y-79375000D02*
X138127500Y-79375000D01*
X138127500Y-79375000D02*
X139397500Y-78105000D01*
X141060412Y-78105000D02*
X142240000Y-76925412D01*
X139397500Y-78105000D02*
X141060412Y-78105000D01*
X143189588Y-76925412D02*
X143685000Y-76430000D01*
X142240000Y-76925412D02*
X143189588Y-76925412D01*
%TO.N,SEG1*%
X121789000Y-75815000D02*
X122043000Y-75815000D01*
X121412000Y-75438000D02*
X121789000Y-75815000D01*
X122043000Y-65655000D02*
X121777998Y-65655000D01*
X121777998Y-65655000D02*
X121412000Y-66020998D01*
X121535000Y-73275000D02*
X121412000Y-73152000D01*
X122043000Y-73275000D02*
X121535000Y-73275000D01*
X121412000Y-73152000D02*
X121412000Y-75438000D01*
X121543000Y-70735000D02*
X121412000Y-70866000D01*
X122043000Y-70735000D02*
X121543000Y-70735000D01*
X121412000Y-70866000D02*
X121412000Y-73152000D01*
X121495000Y-68155000D02*
X121412000Y-68072000D01*
X122043000Y-68155000D02*
X121495000Y-68155000D01*
X121412000Y-66020998D02*
X121412000Y-68072000D01*
X121031000Y-69215000D02*
X121412000Y-68834000D01*
X121412000Y-68072000D02*
X121412000Y-68834000D01*
X121412000Y-68834000D02*
X121412000Y-70866000D01*
X121031000Y-69215000D02*
X116410000Y-69215000D01*
%TO.N,GRID1*%
X122813000Y-65655000D02*
X123312105Y-65655000D01*
X123312105Y-65655000D02*
X123438457Y-65781352D01*
X125480852Y-65782852D02*
X125353000Y-65655000D01*
X125977704Y-65782852D02*
X125480852Y-65782852D01*
X128020852Y-65782852D02*
X127893000Y-65655000D01*
X128517704Y-65782852D02*
X128020852Y-65782852D01*
X130560852Y-65782852D02*
X130433000Y-65655000D01*
X131057704Y-65782852D02*
X130560852Y-65782852D01*
X133100852Y-65782852D02*
X132973000Y-65655000D01*
X133597704Y-65782852D02*
X133100852Y-65782852D01*
X135640852Y-65782852D02*
X135513000Y-65655000D01*
X136137704Y-65782852D02*
X135640852Y-65782852D01*
X138180852Y-65782852D02*
X138053000Y-65655000D01*
X138677704Y-65782852D02*
X138180852Y-65782852D01*
X140724000Y-65786000D02*
X140593000Y-65655000D01*
X141224000Y-65786000D02*
X140724000Y-65786000D01*
X107237000Y-66802000D02*
X107110000Y-66675000D01*
X108712000Y-66802000D02*
X107237000Y-66802000D01*
%TO.N,GRID2*%
X122813000Y-66425000D02*
X123321000Y-66425000D01*
X123321000Y-66425000D02*
X123377000Y-66481000D01*
X125409000Y-66481000D02*
X125353000Y-66425000D01*
X125917000Y-66481000D02*
X125409000Y-66481000D01*
X127949000Y-66481000D02*
X127893000Y-66425000D01*
X128457000Y-66481000D02*
X127949000Y-66481000D01*
X130489000Y-66481000D02*
X130433000Y-66425000D01*
X130997000Y-66481000D02*
X130489000Y-66481000D01*
X133029000Y-66481000D02*
X132973000Y-66425000D01*
X133537000Y-66481000D02*
X133029000Y-66481000D01*
X135569000Y-66481000D02*
X135513000Y-66425000D01*
X136077000Y-66481000D02*
X135569000Y-66481000D01*
X138109000Y-66481000D02*
X138053000Y-66425000D01*
X138617000Y-66481000D02*
X138109000Y-66481000D01*
X140716000Y-66548000D02*
X140593000Y-66425000D01*
X141224000Y-66548000D02*
X140716000Y-66548000D01*
X107237000Y-68072000D02*
X107110000Y-67945000D01*
X108712000Y-68072000D02*
X107237000Y-68072000D01*
%TO.N,GRID3*%
X122043000Y-66425000D02*
X122043000Y-67000000D01*
X122043000Y-67000000D02*
X121987000Y-67056000D01*
X124583000Y-67000000D02*
X124527000Y-67056000D01*
X124583000Y-66425000D02*
X124583000Y-67000000D01*
X127067000Y-66481000D02*
X127123000Y-66425000D01*
X127067000Y-67056000D02*
X127067000Y-66481000D01*
X129607000Y-66481000D02*
X129663000Y-66425000D01*
X129607000Y-67056000D02*
X129607000Y-66481000D01*
X132147000Y-66481000D02*
X132203000Y-66425000D01*
X132147000Y-67056000D02*
X132147000Y-66481000D01*
X134687000Y-66481000D02*
X134743000Y-66425000D01*
X134687000Y-67056000D02*
X134687000Y-66481000D01*
X137227000Y-66481000D02*
X137283000Y-66425000D01*
X137227000Y-67056000D02*
X137227000Y-66481000D01*
X139767000Y-66481000D02*
X139823000Y-66425000D01*
X139767000Y-67056000D02*
X139767000Y-66481000D01*
X107237000Y-69342000D02*
X107110000Y-69215000D01*
X108712000Y-69342000D02*
X107237000Y-69342000D01*
%TO.N,GRID6*%
X122043000Y-68925000D02*
X122043000Y-69465000D01*
X122043000Y-69465000D02*
X122174000Y-69596000D01*
X124527000Y-69021000D02*
X124583000Y-68965000D01*
X124527000Y-69596000D02*
X124527000Y-69021000D01*
X127067000Y-69021000D02*
X127123000Y-68965000D01*
X127067000Y-69596000D02*
X127067000Y-69021000D01*
X129607000Y-69021000D02*
X129663000Y-68965000D01*
X129607000Y-69596000D02*
X129607000Y-69021000D01*
X132147000Y-69021000D02*
X132203000Y-68965000D01*
X132147000Y-69596000D02*
X132147000Y-69021000D01*
X134687000Y-69021000D02*
X134743000Y-68965000D01*
X134687000Y-69596000D02*
X134687000Y-69021000D01*
X137227000Y-69021000D02*
X137283000Y-68965000D01*
X137227000Y-69596000D02*
X137227000Y-69021000D01*
X139767000Y-69021000D02*
X139823000Y-68965000D01*
X139767000Y-69596000D02*
X139767000Y-69021000D01*
X107237000Y-73152000D02*
X107110000Y-73025000D01*
X108712000Y-73152000D02*
X107237000Y-73152000D01*
%TO.N,GRID5*%
X122813000Y-68925000D02*
X123281000Y-68925000D01*
X123281000Y-68925000D02*
X123377000Y-69021000D01*
X125409000Y-69021000D02*
X125353000Y-68965000D01*
X125917000Y-69021000D02*
X125409000Y-69021000D01*
X127949000Y-69021000D02*
X127893000Y-68965000D01*
X128457000Y-69021000D02*
X127949000Y-69021000D01*
X130489000Y-69021000D02*
X130433000Y-68965000D01*
X130997000Y-69021000D02*
X130489000Y-69021000D01*
X133029000Y-69021000D02*
X132973000Y-68965000D01*
X133537000Y-69021000D02*
X133029000Y-69021000D01*
X135569000Y-69021000D02*
X135513000Y-68965000D01*
X136077000Y-69021000D02*
X135569000Y-69021000D01*
X138109000Y-69021000D02*
X138053000Y-68965000D01*
X138617000Y-69021000D02*
X138109000Y-69021000D01*
X140716000Y-69088000D02*
X140593000Y-68965000D01*
X141224000Y-69088000D02*
X140716000Y-69088000D01*
X107237000Y-71882000D02*
X107110000Y-71755000D01*
X108712000Y-71882000D02*
X107237000Y-71882000D01*
%TO.N,GRID4*%
X122813000Y-68155000D02*
X123294000Y-68155000D01*
X123294000Y-68155000D02*
X123377000Y-68072000D01*
X125476000Y-68072000D02*
X125353000Y-68195000D01*
X125917000Y-68072000D02*
X125476000Y-68072000D01*
X128016000Y-68072000D02*
X127893000Y-68195000D01*
X128457000Y-68072000D02*
X128016000Y-68072000D01*
X130556000Y-68072000D02*
X130433000Y-68195000D01*
X130997000Y-68072000D02*
X130556000Y-68072000D01*
X133096000Y-68072000D02*
X132973000Y-68195000D01*
X133537000Y-68072000D02*
X133096000Y-68072000D01*
X135636000Y-68072000D02*
X135513000Y-68195000D01*
X136077000Y-68072000D02*
X135636000Y-68072000D01*
X138176000Y-68072000D02*
X138053000Y-68195000D01*
X138617000Y-68072000D02*
X138176000Y-68072000D01*
X140716000Y-68072000D02*
X140593000Y-68195000D01*
X141224000Y-68072000D02*
X140716000Y-68072000D01*
X107237000Y-70612000D02*
X107110000Y-70485000D01*
X108712000Y-70612000D02*
X107237000Y-70612000D01*
%TO.N,GRID7*%
X122813000Y-70735000D02*
X123254000Y-70735000D01*
X123254000Y-70735000D02*
X123377000Y-70612000D01*
X125476000Y-70612000D02*
X125353000Y-70735000D01*
X125917000Y-70612000D02*
X125476000Y-70612000D01*
X128016000Y-70612000D02*
X127893000Y-70735000D01*
X128457000Y-70612000D02*
X128016000Y-70612000D01*
X130556000Y-70612000D02*
X130433000Y-70735000D01*
X130997000Y-70612000D02*
X130556000Y-70612000D01*
X133096000Y-70612000D02*
X132973000Y-70735000D01*
X133537000Y-70612000D02*
X133096000Y-70612000D01*
X135636000Y-70612000D02*
X135513000Y-70735000D01*
X136077000Y-70612000D02*
X135636000Y-70612000D01*
X138176000Y-70612000D02*
X138053000Y-70735000D01*
X138617000Y-70612000D02*
X138176000Y-70612000D01*
X140716000Y-70612000D02*
X140593000Y-70735000D01*
X141224000Y-70612000D02*
X140716000Y-70612000D01*
X107237000Y-74422000D02*
X107110000Y-74295000D01*
X108712000Y-74422000D02*
X107237000Y-74422000D01*
%TO.N,GRID8*%
X122813000Y-71505000D02*
X123321000Y-71505000D01*
X123321000Y-71505000D02*
X123377000Y-71561000D01*
X125409000Y-71561000D02*
X125353000Y-71505000D01*
X125917000Y-71561000D02*
X125409000Y-71561000D01*
X127949000Y-71561000D02*
X127893000Y-71505000D01*
X128457000Y-71561000D02*
X127949000Y-71561000D01*
X130489000Y-71561000D02*
X130433000Y-71505000D01*
X130997000Y-71561000D02*
X130489000Y-71561000D01*
X133029000Y-71561000D02*
X132973000Y-71505000D01*
X133537000Y-71561000D02*
X133029000Y-71561000D01*
X135569000Y-71561000D02*
X135513000Y-71505000D01*
X136077000Y-71561000D02*
X135569000Y-71561000D01*
X138109000Y-71561000D02*
X138053000Y-71505000D01*
X138617000Y-71561000D02*
X138109000Y-71561000D01*
X140716000Y-71628000D02*
X140593000Y-71505000D01*
X141224000Y-71628000D02*
X140716000Y-71628000D01*
X107237000Y-75692000D02*
X107110000Y-75565000D01*
X108712000Y-75692000D02*
X107237000Y-75692000D01*
%TO.N,GRID9*%
X122043000Y-71505000D02*
X122043000Y-72005000D01*
X122043000Y-72005000D02*
X122174000Y-72136000D01*
X124527000Y-71561000D02*
X124583000Y-71505000D01*
X124527000Y-72136000D02*
X124527000Y-71561000D01*
X127067000Y-71561000D02*
X127123000Y-71505000D01*
X127067000Y-72136000D02*
X127067000Y-71561000D01*
X129607000Y-71561000D02*
X129663000Y-71505000D01*
X129607000Y-72136000D02*
X129607000Y-71561000D01*
X132147000Y-71561000D02*
X132203000Y-71505000D01*
X132147000Y-72136000D02*
X132147000Y-71561000D01*
X134687000Y-71561000D02*
X134743000Y-71505000D01*
X134687000Y-72136000D02*
X134687000Y-71561000D01*
X137227000Y-71561000D02*
X137283000Y-71505000D01*
X137227000Y-72136000D02*
X137227000Y-71561000D01*
X139767000Y-71561000D02*
X139823000Y-71505000D01*
X139767000Y-72136000D02*
X139767000Y-71561000D01*
X107237000Y-76962000D02*
X107110000Y-76835000D01*
X108712000Y-76962000D02*
X107237000Y-76962000D01*
%TO.N,GRID12*%
X122043000Y-74045000D02*
X122043000Y-74545000D01*
X122043000Y-74545000D02*
X122174000Y-74676000D01*
X124527000Y-74101000D02*
X124583000Y-74045000D01*
X124527000Y-74676000D02*
X124527000Y-74101000D01*
X127067000Y-74101000D02*
X127123000Y-74045000D01*
X127067000Y-74676000D02*
X127067000Y-74101000D01*
X129607000Y-74101000D02*
X129663000Y-74045000D01*
X129607000Y-74676000D02*
X129607000Y-74101000D01*
X132147000Y-74101000D02*
X132203000Y-74045000D01*
X132147000Y-74676000D02*
X132147000Y-74101000D01*
X134687000Y-74101000D02*
X134743000Y-74045000D01*
X134687000Y-74676000D02*
X134687000Y-74101000D01*
X137227000Y-74101000D02*
X137283000Y-74045000D01*
X137227000Y-74676000D02*
X137227000Y-74101000D01*
X139767000Y-74101000D02*
X139823000Y-74045000D01*
X139767000Y-74676000D02*
X139767000Y-74101000D01*
X116537000Y-79248000D02*
X116410000Y-79375000D01*
X117856000Y-79248000D02*
X116537000Y-79248000D01*
%TO.N,GRID11*%
X122813000Y-74045000D02*
X123321000Y-74045000D01*
X123321000Y-74045000D02*
X123377000Y-74101000D01*
X125409000Y-74101000D02*
X125353000Y-74045000D01*
X125917000Y-74101000D02*
X125409000Y-74101000D01*
X127949000Y-74101000D02*
X127893000Y-74045000D01*
X128457000Y-74101000D02*
X127949000Y-74101000D01*
X130489000Y-74101000D02*
X130433000Y-74045000D01*
X130997000Y-74101000D02*
X130489000Y-74101000D01*
X133029000Y-74101000D02*
X132973000Y-74045000D01*
X133537000Y-74101000D02*
X133029000Y-74101000D01*
X135569000Y-74101000D02*
X135513000Y-74045000D01*
X136077000Y-74101000D02*
X135569000Y-74101000D01*
X138109000Y-74101000D02*
X138053000Y-74045000D01*
X138617000Y-74101000D02*
X138109000Y-74101000D01*
X140716000Y-74168000D02*
X140593000Y-74045000D01*
X141224000Y-74168000D02*
X140716000Y-74168000D01*
X107237000Y-79248000D02*
X107110000Y-79375000D01*
X108712000Y-79248000D02*
X107237000Y-79248000D01*
%TO.N,GRID10*%
X122813000Y-73275000D02*
X123254000Y-73275000D01*
X123254000Y-73275000D02*
X123377000Y-73152000D01*
X125476000Y-73152000D02*
X125353000Y-73275000D01*
X125917000Y-73152000D02*
X125476000Y-73152000D01*
X128016000Y-73152000D02*
X127893000Y-73275000D01*
X128457000Y-73152000D02*
X128016000Y-73152000D01*
X130556000Y-73152000D02*
X130433000Y-73275000D01*
X130997000Y-73152000D02*
X130556000Y-73152000D01*
X133096000Y-73152000D02*
X132973000Y-73275000D01*
X133537000Y-73152000D02*
X133096000Y-73152000D01*
X135636000Y-73152000D02*
X135513000Y-73275000D01*
X136077000Y-73152000D02*
X135636000Y-73152000D01*
X138176000Y-73152000D02*
X138053000Y-73275000D01*
X138617000Y-73152000D02*
X138176000Y-73152000D01*
X140716000Y-73152000D02*
X140593000Y-73275000D01*
X141224000Y-73152000D02*
X140716000Y-73152000D01*
X107237000Y-78232000D02*
X107110000Y-78105000D01*
X108712000Y-78232000D02*
X107237000Y-78232000D01*
%TO.N,GRID13*%
X122813000Y-75815000D02*
X123317852Y-75815000D01*
X123317852Y-75815000D02*
X123437704Y-75695148D01*
X125472852Y-75695148D02*
X125353000Y-75815000D01*
X125977704Y-75695148D02*
X125472852Y-75695148D01*
X128012852Y-75695148D02*
X127893000Y-75815000D01*
X128517704Y-75695148D02*
X128012852Y-75695148D01*
X130552852Y-75695148D02*
X130433000Y-75815000D01*
X131057704Y-75695148D02*
X130552852Y-75695148D01*
X133092852Y-75695148D02*
X132973000Y-75815000D01*
X133597704Y-75695148D02*
X133092852Y-75695148D01*
X135632852Y-75695148D02*
X135513000Y-75815000D01*
X136137704Y-75695148D02*
X135632852Y-75695148D01*
X138172852Y-75695148D02*
X138053000Y-75815000D01*
X138677704Y-75695148D02*
X138172852Y-75695148D01*
X140716000Y-75692000D02*
X140593000Y-75815000D01*
X141224000Y-75692000D02*
X140716000Y-75692000D01*
X117856000Y-77724000D02*
X117856000Y-77978000D01*
X117856000Y-77978000D02*
X117602000Y-78232000D01*
X117475000Y-78105000D02*
X116410000Y-78105000D01*
X117602000Y-78232000D02*
X117475000Y-78105000D01*
%TO.N,GRID14*%
X122813000Y-76585000D02*
X123313000Y-76585000D01*
X123313000Y-76585000D02*
X123444000Y-76454000D01*
X125484000Y-76454000D02*
X125353000Y-76585000D01*
X125984000Y-76454000D02*
X125484000Y-76454000D01*
X128024000Y-76454000D02*
X127893000Y-76585000D01*
X128524000Y-76454000D02*
X128024000Y-76454000D01*
X130564000Y-76454000D02*
X130433000Y-76585000D01*
X131064000Y-76454000D02*
X130564000Y-76454000D01*
X133104000Y-76454000D02*
X132973000Y-76585000D01*
X133604000Y-76454000D02*
X133104000Y-76454000D01*
X135644000Y-76454000D02*
X135513000Y-76585000D01*
X136144000Y-76454000D02*
X135644000Y-76454000D01*
X138184000Y-76454000D02*
X138053000Y-76585000D01*
X138684000Y-76454000D02*
X138184000Y-76454000D01*
X140724000Y-76454000D02*
X140593000Y-76585000D01*
X141224000Y-76454000D02*
X140724000Y-76454000D01*
X118364000Y-76708000D02*
X118110000Y-76962000D01*
X116537000Y-76962000D02*
X116410000Y-76835000D01*
X118110000Y-76962000D02*
X116537000Y-76962000D01*
%TO.N,GRID15*%
X122043000Y-76585000D02*
X122043000Y-77085000D01*
X122043000Y-77085000D02*
X122093001Y-77135001D01*
X139823000Y-76839000D02*
X139823000Y-76585000D01*
X139526999Y-77135001D02*
X139823000Y-76839000D01*
X137283000Y-76839000D02*
X136986999Y-77135001D01*
X137283000Y-76585000D02*
X137283000Y-76839000D01*
X136986999Y-77135001D02*
X139526999Y-77135001D01*
X134743000Y-76931002D02*
X134539001Y-77135001D01*
X134743000Y-76585000D02*
X134743000Y-76931002D01*
X134539001Y-77135001D02*
X136986999Y-77135001D01*
X132203000Y-76839000D02*
X131906999Y-77135001D01*
X132203000Y-76585000D02*
X132203000Y-76839000D01*
X131906999Y-77135001D02*
X134539001Y-77135001D01*
X129663000Y-76585000D02*
X129663000Y-76839000D01*
X129459001Y-77042999D02*
X129459001Y-77135001D01*
X129663000Y-76839000D02*
X129459001Y-77042999D01*
X129459001Y-77135001D02*
X131906999Y-77135001D01*
X127123000Y-76677002D02*
X126665001Y-77135001D01*
X127123000Y-76585000D02*
X127123000Y-76677002D01*
X126665001Y-77135001D02*
X129459001Y-77135001D01*
X124583000Y-76839000D02*
X124286999Y-77135001D01*
X124583000Y-76585000D02*
X124583000Y-76839000D01*
X122093001Y-77135001D02*
X124286999Y-77135001D01*
X124286999Y-77135001D02*
X126665001Y-77135001D01*
X122043000Y-76585000D02*
X121543000Y-76585000D01*
X121543000Y-76585000D02*
X120523000Y-75565000D01*
X120523000Y-75565000D02*
X116410000Y-75565000D01*
%TO.N,SEG2*%
X123952000Y-75438000D02*
X124329000Y-75815000D01*
X124329000Y-75815000D02*
X124583000Y-75815000D01*
X124583000Y-65655000D02*
X124337000Y-65655000D01*
X124337000Y-65655000D02*
X123952000Y-66040000D01*
X124075000Y-73275000D02*
X123952000Y-73152000D01*
X124583000Y-73275000D02*
X124075000Y-73275000D01*
X123952000Y-73152000D02*
X123952000Y-75438000D01*
X124075000Y-70735000D02*
X123952000Y-70612000D01*
X124583000Y-70735000D02*
X124075000Y-70735000D01*
X123952000Y-70612000D02*
X123952000Y-73152000D01*
X124075000Y-68195000D02*
X123952000Y-68072000D01*
X124583000Y-68195000D02*
X124075000Y-68195000D01*
X123952000Y-66040000D02*
X123952000Y-68072000D01*
X123952000Y-68072000D02*
X123952000Y-70612000D01*
X124583000Y-65401000D02*
X124583000Y-65655000D01*
X120523000Y-67945000D02*
X120961990Y-67506010D01*
X121638998Y-65024000D02*
X124206000Y-65024000D01*
X120961990Y-67506010D02*
X120961990Y-65701008D01*
X124206000Y-65024000D02*
X124583000Y-65401000D01*
X120961990Y-65701008D02*
X121638998Y-65024000D01*
X120523000Y-67945000D02*
X116410000Y-67945000D01*
%TO.N,SEG3*%
X126869000Y-75815000D02*
X127123000Y-75815000D01*
X127123000Y-65655000D02*
X126877000Y-65655000D01*
X126492000Y-75438000D02*
X126869000Y-75815000D01*
X126877000Y-65655000D02*
X126492000Y-66040000D01*
X126615000Y-73275000D02*
X126492000Y-73152000D01*
X127123000Y-73275000D02*
X126615000Y-73275000D01*
X126492000Y-73152000D02*
X126492000Y-75438000D01*
X126615000Y-70735000D02*
X126492000Y-70612000D01*
X127123000Y-70735000D02*
X126615000Y-70735000D01*
X126492000Y-70612000D02*
X126492000Y-73152000D01*
X126615000Y-68195000D02*
X126492000Y-68072000D01*
X127123000Y-68195000D02*
X126615000Y-68195000D01*
X126492000Y-66040000D02*
X126492000Y-68072000D01*
X126492000Y-68072000D02*
X126492000Y-70612000D01*
X120396000Y-66294000D02*
X120396000Y-65403590D01*
X127123000Y-64893000D02*
X127123000Y-65655000D01*
X120015000Y-66675000D02*
X120396000Y-66294000D01*
X120396000Y-65403590D02*
X121283590Y-64516000D01*
X121283590Y-64516000D02*
X126746000Y-64516000D01*
X126746000Y-64516000D02*
X127123000Y-64893000D01*
X120015000Y-66675000D02*
X116410000Y-66675000D01*
%TO.N,SEG4*%
X129417000Y-65655000D02*
X129663000Y-65655000D01*
X129663000Y-75815000D02*
X129409000Y-75815000D01*
X129032000Y-66040000D02*
X129417000Y-65655000D01*
X129409000Y-75815000D02*
X129032000Y-75438000D01*
X129155000Y-68195000D02*
X129032000Y-68072000D01*
X129663000Y-68195000D02*
X129155000Y-68195000D01*
X129032000Y-68072000D02*
X129032000Y-66040000D01*
X129065000Y-70612000D02*
X129032000Y-70612000D01*
X129188000Y-70735000D02*
X129065000Y-70612000D01*
X129663000Y-70735000D02*
X129188000Y-70735000D01*
X129032000Y-70612000D02*
X129032000Y-68072000D01*
X129663000Y-73275000D02*
X129155000Y-73275000D01*
X129155000Y-73275000D02*
X129032000Y-73152000D01*
X129032000Y-75438000D02*
X129032000Y-73152000D01*
X129032000Y-73152000D02*
X129032000Y-70612000D01*
X129663000Y-64385000D02*
X129663000Y-65655000D01*
X119761000Y-65405000D02*
X119945990Y-65220010D01*
X119945991Y-65217189D02*
X121155180Y-64008000D01*
X121155180Y-64008000D02*
X129286000Y-64008000D01*
X119945990Y-65220010D02*
X119945991Y-65217189D01*
X129286000Y-64008000D02*
X129663000Y-64385000D01*
X119761000Y-65405000D02*
X116410000Y-65405000D01*
%TO.N,SEG5*%
X131949000Y-75815000D02*
X132203000Y-75815000D01*
X131572000Y-75438000D02*
X131949000Y-75815000D01*
X132203000Y-65655000D02*
X131957000Y-65655000D01*
X131957000Y-65655000D02*
X131572000Y-66040000D01*
X131695000Y-73275000D02*
X131572000Y-73152000D01*
X132203000Y-73275000D02*
X131695000Y-73275000D01*
X131572000Y-73152000D02*
X131572000Y-75438000D01*
X131695000Y-70735000D02*
X131572000Y-70612000D01*
X132203000Y-70735000D02*
X131695000Y-70735000D01*
X131572000Y-70612000D02*
X131572000Y-73152000D01*
X131695000Y-68195000D02*
X131572000Y-68072000D01*
X132203000Y-68195000D02*
X131695000Y-68195000D01*
X131572000Y-66040000D02*
X131572000Y-68072000D01*
X131572000Y-68072000D02*
X131572000Y-70612000D01*
X120015000Y-64135000D02*
X120650000Y-63500000D01*
X120650000Y-63500000D02*
X131826000Y-63500000D01*
X132203000Y-63877000D02*
X132203000Y-65655000D01*
X131826000Y-63500000D02*
X132203000Y-63877000D01*
X120015000Y-64135000D02*
X116410000Y-64135000D01*
%TO.N,SEG6*%
X134489000Y-75815000D02*
X134743000Y-75815000D01*
X134112000Y-75438000D02*
X134489000Y-75815000D01*
X134743000Y-65655000D02*
X134497000Y-65655000D01*
X134497000Y-65655000D02*
X134112000Y-66040000D01*
X134743000Y-73275000D02*
X134235000Y-73275000D01*
X134235000Y-73275000D02*
X134112000Y-73152000D01*
X134112000Y-73152000D02*
X134112000Y-75438000D01*
X134235000Y-70735000D02*
X134112000Y-70612000D01*
X134743000Y-70735000D02*
X134235000Y-70735000D01*
X134112000Y-70612000D02*
X134112000Y-73152000D01*
X134235000Y-68195000D02*
X134112000Y-68072000D01*
X134743000Y-68195000D02*
X134235000Y-68195000D01*
X134112000Y-66040000D02*
X134112000Y-68072000D01*
X134112000Y-68072000D02*
X134112000Y-70612000D01*
X134743000Y-63369000D02*
X134743000Y-65655000D01*
X116410000Y-62865000D02*
X117983000Y-62865000D01*
X134366000Y-62992000D02*
X134743000Y-63369000D01*
X117983000Y-62865000D02*
X118110000Y-62992000D01*
X118110000Y-62992000D02*
X134366000Y-62992000D01*
%TO.N,SEG7*%
X137029000Y-75815000D02*
X137283000Y-75815000D01*
X136652000Y-75438000D02*
X137029000Y-75815000D01*
X137283000Y-65655000D02*
X137037000Y-65655000D01*
X137037000Y-65655000D02*
X136652000Y-66040000D01*
X136775000Y-73275000D02*
X136652000Y-73152000D01*
X137283000Y-73275000D02*
X136775000Y-73275000D01*
X136652000Y-73152000D02*
X136652000Y-75438000D01*
X137283000Y-70735000D02*
X136775000Y-70735000D01*
X136775000Y-70735000D02*
X136652000Y-70612000D01*
X136652000Y-70612000D02*
X136652000Y-73152000D01*
X136775000Y-68195000D02*
X136652000Y-68072000D01*
X137283000Y-68195000D02*
X136775000Y-68195000D01*
X136652000Y-66040000D02*
X136652000Y-68072000D01*
X136652000Y-68072000D02*
X136652000Y-70612000D01*
X137283000Y-62861000D02*
X137283000Y-65655000D01*
X136906000Y-62484000D02*
X137283000Y-62861000D01*
X118119990Y-62239990D02*
X118364000Y-62484000D01*
X107110000Y-62865000D02*
X107735010Y-62239990D01*
X107735010Y-62239990D02*
X118119990Y-62239990D01*
X136906000Y-62484000D02*
X118364000Y-62484000D01*
%TO.N,SEG8*%
X139569000Y-75815000D02*
X139823000Y-75815000D01*
X139192000Y-75438000D02*
X139569000Y-75815000D01*
X139823000Y-65655000D02*
X139577000Y-65655000D01*
X139577000Y-65655000D02*
X139192000Y-66040000D01*
X139315000Y-73275000D02*
X139192000Y-73152000D01*
X139823000Y-73275000D02*
X139315000Y-73275000D01*
X139192000Y-73152000D02*
X139192000Y-75438000D01*
X139315000Y-70735000D02*
X139192000Y-70612000D01*
X139823000Y-70735000D02*
X139315000Y-70735000D01*
X139192000Y-70612000D02*
X139192000Y-73152000D01*
X139823000Y-68195000D02*
X139315000Y-68195000D01*
X139192000Y-66040000D02*
X139192000Y-68072000D01*
X139315000Y-68195000D02*
X139192000Y-68072000D01*
X139192000Y-68072000D02*
X139192000Y-70612000D01*
X139823000Y-62353000D02*
X139823000Y-65655000D01*
X106085000Y-64135000D02*
X105759990Y-63809990D01*
X118364000Y-61722000D02*
X118618000Y-61976000D01*
X107110000Y-64135000D02*
X106085000Y-64135000D01*
X105759990Y-61880010D02*
X105918000Y-61722000D01*
X139446000Y-61976000D02*
X139823000Y-62353000D01*
X105759990Y-63809990D02*
X105759990Y-61880010D01*
X105918000Y-61722000D02*
X118364000Y-61722000D01*
X118618000Y-61976000D02*
X139446000Y-61976000D01*
D15*
%TO.N,GND*%
X101305000Y-74930000D02*
X102235000Y-74000000D01*
X96520000Y-74930000D02*
X101305000Y-74930000D01*
X102235000Y-74000000D02*
X101940000Y-74000000D01*
X101297500Y-73357500D02*
X101297500Y-70485000D01*
X101940000Y-74000000D02*
X101297500Y-73357500D01*
D16*
X108637997Y-73846999D02*
X111573001Y-73846999D01*
X108460988Y-73669990D02*
X108637997Y-73846999D01*
X102235000Y-74000000D02*
X102565010Y-73669990D01*
X102565010Y-73669990D02*
X108460988Y-73669990D01*
X112395000Y-73025000D02*
X116410000Y-73025000D01*
X111573001Y-73846999D02*
X112395000Y-73025000D01*
X103165000Y-74930000D02*
X102235000Y-74000000D01*
X115775000Y-73660000D02*
X112395000Y-73660000D01*
X116410000Y-73025000D02*
X115775000Y-73660000D01*
X111057999Y-74997001D02*
X108435999Y-74997001D01*
X112395000Y-73660000D02*
X111057999Y-74997001D01*
X108435999Y-74997001D02*
X108368998Y-74930000D01*
X108368998Y-74930000D02*
X103165000Y-74930000D01*
X122262490Y-80000010D02*
X122887500Y-79375000D01*
X115338242Y-80000010D02*
X122262490Y-80000010D01*
X111057999Y-74997001D02*
X111057999Y-75719767D01*
X111057999Y-75719767D02*
X115338242Y-80000010D01*
X122887500Y-79375000D02*
X124157500Y-78105000D01*
X126697500Y-78105000D02*
X127967500Y-79375000D01*
X124157500Y-78105000D02*
X126697500Y-78105000D01*
%TD*%
M02*
