%TF.GenerationSoftware,KiCad,Pcbnew,5.1.6-c6e7f7d~87~ubuntu18.04.1*%
%TF.CreationDate,2020-09-19T20:19:40+02:00*%
%TF.ProjectId,rgbpmod,72676270-6d6f-4642-9e6b-696361645f70,rev?*%
%TF.SameCoordinates,Original*%
%TF.FileFunction,Copper,L2,Bot*%
%TF.FilePolarity,Positive*%
%FSLAX46Y46*%
G04 Gerber Fmt 4.6, Leading zero omitted, Abs format (unit mm)*
G04 Created by KiCad (PCBNEW 5.1.6-c6e7f7d~87~ubuntu18.04.1) date 2020-09-19 20:19:40*
%MOMM*%
%LPD*%
G01*
G04 APERTURE LIST*
%TA.AperFunction,ComponentPad*%
%ADD10R,1.700000X1.700000*%
%TD*%
%TA.AperFunction,ComponentPad*%
%ADD11O,1.700000X1.700000*%
%TD*%
%TA.AperFunction,ViaPad*%
%ADD12C,0.800000*%
%TD*%
%TA.AperFunction,ViaPad*%
%ADD13C,0.500000*%
%TD*%
%TA.AperFunction,Conductor*%
%ADD14C,0.500000*%
%TD*%
%TA.AperFunction,Conductor*%
%ADD15C,0.250000*%
%TD*%
%TA.AperFunction,Conductor*%
%ADD16C,0.254000*%
%TD*%
G04 APERTURE END LIST*
D10*
%TO.P,J1,1*%
%TO.N,DIN*%
X96520000Y-64770000D03*
D11*
%TO.P,J1,2*%
%TO.N,SCLK*%
X96520000Y-67310000D03*
%TO.P,J1,3*%
%TO.N,BTN1*%
X96520000Y-69850000D03*
%TO.P,J1,4*%
%TO.N,BTN2*%
X96520000Y-72390000D03*
%TO.P,J1,5*%
%TO.N,GND*%
X96520000Y-74930000D03*
%TO.P,J1,6*%
%TO.N,VCC*%
X96520000Y-77470000D03*
%TD*%
D12*
%TO.N,VCC*%
X103505000Y-76200000D03*
X103547572Y-71974980D03*
D13*
%TO.N,BTN1*%
X127635000Y-77710001D03*
X125730000Y-79375000D03*
%TO.N,BTN2*%
X130810000Y-79375000D03*
X137160000Y-79375000D03*
%TO.N,GRID1*%
X123438457Y-65781352D03*
X125977704Y-65782852D03*
X128517704Y-65782852D03*
X131057704Y-65782852D03*
X133597704Y-65782852D03*
X136137704Y-65782852D03*
X138677704Y-65782852D03*
X141224000Y-65786000D03*
X108712000Y-66802000D03*
%TO.N,GRID2*%
X123377000Y-66481000D03*
X125917000Y-66481000D03*
X128457000Y-66481000D03*
X130997000Y-66481000D03*
X133537000Y-66481000D03*
X136077000Y-66481000D03*
X138617000Y-66481000D03*
X141224000Y-66548000D03*
X108712000Y-68072000D03*
%TO.N,GRID3*%
X121987000Y-67056000D03*
X124527000Y-67056000D03*
X127067000Y-67056000D03*
X129607000Y-67056000D03*
X132147000Y-67056000D03*
X134687000Y-67056000D03*
X137227000Y-67056000D03*
X139767000Y-67056000D03*
X108712000Y-69342000D03*
%TO.N,GRID6*%
X122174000Y-69596000D03*
X124527000Y-69596000D03*
X127067000Y-69596000D03*
X129607000Y-69596000D03*
X132147000Y-69596000D03*
X134687000Y-69596000D03*
X137227000Y-69596000D03*
X139767000Y-69596000D03*
X108712000Y-73152000D03*
%TO.N,GRID5*%
X123377000Y-69021000D03*
X125917000Y-69021000D03*
X128457000Y-69021000D03*
X130997000Y-69021000D03*
X133537000Y-69021000D03*
X136077000Y-69021000D03*
X138617000Y-69021000D03*
X141224000Y-69088000D03*
X108712000Y-71882000D03*
%TO.N,GRID4*%
X123377000Y-68072000D03*
X125917000Y-68072000D03*
X128457000Y-68072000D03*
X130997000Y-68072000D03*
X133537000Y-68072000D03*
X136077000Y-68072000D03*
X138617000Y-68072000D03*
X141224000Y-68072000D03*
X108712000Y-70612000D03*
%TO.N,GRID7*%
X123377000Y-70612000D03*
X125917000Y-70612000D03*
X128457000Y-70612000D03*
X130997000Y-70612000D03*
X133537000Y-70612000D03*
X136077000Y-70612000D03*
X138617000Y-70612000D03*
X141224000Y-70612000D03*
X108712000Y-74422000D03*
%TO.N,GRID8*%
X123377000Y-71561000D03*
X125917000Y-71561000D03*
X128457000Y-71561000D03*
X130997000Y-71561000D03*
X133537000Y-71561000D03*
X136077000Y-71561000D03*
X138617000Y-71561000D03*
X141224000Y-71628000D03*
X108712000Y-75692000D03*
%TO.N,GRID9*%
X122174000Y-72136000D03*
X124527000Y-72136000D03*
X127067000Y-72136000D03*
X129607000Y-72136000D03*
X132147000Y-72136000D03*
X134687000Y-72136000D03*
X137227000Y-72136000D03*
X139767000Y-72136000D03*
X108712000Y-76962000D03*
%TO.N,GRID12*%
X122174000Y-74676000D03*
X124527000Y-74676000D03*
X127067000Y-74676000D03*
X129607000Y-74676000D03*
X132147000Y-74676000D03*
X134687000Y-74676000D03*
X137227000Y-74676000D03*
X139767000Y-74676000D03*
X117856000Y-79248000D03*
%TO.N,GRID11*%
X123377000Y-74101000D03*
X125917000Y-74101000D03*
X128457000Y-74101000D03*
X130997000Y-74101000D03*
X133537000Y-74101000D03*
X136077000Y-74101000D03*
X138617000Y-74101000D03*
X141224000Y-74168000D03*
X108712000Y-79248000D03*
%TO.N,GRID10*%
X123377000Y-73152000D03*
X125917000Y-73152000D03*
X128457000Y-73152000D03*
X130997000Y-73152000D03*
X133537000Y-73152000D03*
X136077000Y-73152000D03*
X138617000Y-73152000D03*
X141224000Y-73152000D03*
X108712000Y-78232000D03*
%TO.N,GRID13*%
X123437704Y-75695148D03*
X125977704Y-75695148D03*
X128517704Y-75695148D03*
X131057704Y-75695148D03*
X133597704Y-75695148D03*
X136137704Y-75695148D03*
X138677704Y-75695148D03*
X141224000Y-75692000D03*
X117856000Y-77724000D03*
%TO.N,GRID14*%
X123444000Y-76454000D03*
X125984000Y-76454000D03*
X128524000Y-76454000D03*
X131064000Y-76454000D03*
X133604000Y-76454000D03*
X136144000Y-76454000D03*
X138684000Y-76454000D03*
X141224000Y-76454000D03*
X118364000Y-76708000D03*
%TD*%
D14*
%TO.N,VCC*%
X103505000Y-76200000D02*
X103505000Y-72017552D01*
X103505000Y-72017552D02*
X103547572Y-71974980D01*
D15*
%TO.N,BTN1*%
X127635000Y-77710001D02*
X125970001Y-79375000D01*
X125970001Y-79375000D02*
X125730000Y-79375000D01*
%TO.N,BTN2*%
X130810000Y-79375000D02*
X137160000Y-79375000D01*
%TO.N,GRID1*%
X123438457Y-65781352D02*
X125976204Y-65781352D01*
X125976204Y-65781352D02*
X125977704Y-65782852D01*
X125977704Y-65782852D02*
X128517704Y-65782852D01*
X128517704Y-65782852D02*
X131057704Y-65782852D01*
X131057704Y-65782852D02*
X133597704Y-65782852D01*
X133597704Y-65782852D02*
X136137704Y-65782852D01*
X136137704Y-65782852D02*
X138677704Y-65782852D01*
X138677704Y-65782852D02*
X141220852Y-65782852D01*
X141220852Y-65782852D02*
X141224000Y-65786000D01*
X121670648Y-65781352D02*
X123438457Y-65781352D01*
X120904000Y-66548000D02*
X121670648Y-65781352D01*
X120904000Y-67310000D02*
X120904000Y-66548000D01*
X108712000Y-67056000D02*
X109737011Y-68081011D01*
X108712000Y-66802000D02*
X108712000Y-67056000D01*
X109737011Y-68081011D02*
X109737011Y-69097011D01*
X110490000Y-69850000D02*
X118364000Y-69850000D01*
X109737011Y-69097011D02*
X110490000Y-69850000D01*
X118364000Y-69850000D02*
X120904000Y-67310000D01*
%TO.N,GRID2*%
X123377000Y-66481000D02*
X125917000Y-66481000D01*
X125917000Y-66481000D02*
X128457000Y-66481000D01*
X128457000Y-66481000D02*
X130997000Y-66481000D01*
X130997000Y-66481000D02*
X133537000Y-66481000D01*
X133537000Y-66481000D02*
X136077000Y-66481000D01*
X136077000Y-66481000D02*
X138617000Y-66481000D01*
X138617000Y-66481000D02*
X141157000Y-66481000D01*
X141157000Y-66481000D02*
X141224000Y-66548000D01*
X121710999Y-66480999D02*
X123377000Y-66481000D01*
X121412000Y-67564000D02*
X121412000Y-66779998D01*
X108712000Y-68326000D02*
X109287001Y-68901001D01*
X108712000Y-68072000D02*
X108712000Y-68326000D01*
X110110410Y-70358000D02*
X118618000Y-70358000D01*
X118618000Y-70358000D02*
X121412000Y-67564000D01*
X121412000Y-66779998D02*
X121710999Y-66480999D01*
X109287001Y-68901001D02*
X109287001Y-69534591D01*
X109287001Y-69534591D02*
X110110410Y-70358000D01*
%TO.N,GRID3*%
X121987000Y-67056000D02*
X124527000Y-67056000D01*
X124527000Y-67056000D02*
X127067000Y-67056000D01*
X127067000Y-67056000D02*
X129607000Y-67056000D01*
X129607000Y-67056000D02*
X132147000Y-67056000D01*
X132147000Y-67056000D02*
X134687000Y-67056000D01*
X134687000Y-67056000D02*
X137227000Y-67056000D01*
X137227000Y-67056000D02*
X139767000Y-67056000D01*
X109982000Y-70866000D02*
X108712000Y-69596000D01*
X121987000Y-67056000D02*
X121987000Y-67659178D01*
X108712000Y-69596000D02*
X108712000Y-69342000D01*
X118780178Y-70866000D02*
X109982000Y-70866000D01*
X121987000Y-67659178D02*
X118780178Y-70866000D01*
%TO.N,GRID6*%
X122174000Y-69596000D02*
X124527000Y-69596000D01*
X124527000Y-69596000D02*
X127067000Y-69596000D01*
X127067000Y-69596000D02*
X129607000Y-69596000D01*
X129607000Y-69596000D02*
X132147000Y-69596000D01*
X132147000Y-69596000D02*
X134687000Y-69596000D01*
X134687000Y-69596000D02*
X137227000Y-69596000D01*
X137227000Y-69596000D02*
X139767000Y-69596000D01*
X121158000Y-70612000D02*
X122174000Y-69596000D01*
X121158000Y-70866000D02*
X121158000Y-70612000D01*
X119634000Y-72390000D02*
X121158000Y-70866000D01*
X116586000Y-72390000D02*
X119634000Y-72390000D01*
X108712000Y-73152000D02*
X115824000Y-73152000D01*
X115824000Y-73152000D02*
X116586000Y-72390000D01*
%TO.N,GRID5*%
X123377000Y-69021000D02*
X125917000Y-69021000D01*
X125917000Y-69021000D02*
X128457000Y-69021000D01*
X128457000Y-69021000D02*
X130997000Y-69021000D01*
X130997000Y-69021000D02*
X133537000Y-69021000D01*
X133537000Y-69021000D02*
X136077000Y-69021000D01*
X136077000Y-69021000D02*
X138617000Y-69021000D01*
X138617000Y-69021000D02*
X141157000Y-69021000D01*
X141157000Y-69021000D02*
X141224000Y-69088000D01*
X121897999Y-69020999D02*
X120650000Y-70268998D01*
X123377000Y-69021000D02*
X121897999Y-69020999D01*
X120650000Y-70268998D02*
X120650000Y-70612000D01*
X120650000Y-70612000D02*
X119380000Y-71882000D01*
X119380000Y-71882000D02*
X108712000Y-71882000D01*
%TO.N,GRID4*%
X123377000Y-68072000D02*
X125917000Y-68072000D01*
X125917000Y-68072000D02*
X128457000Y-68072000D01*
X128457000Y-68072000D02*
X130997000Y-68072000D01*
X130997000Y-68072000D02*
X133537000Y-68072000D01*
X133537000Y-68072000D02*
X136077000Y-68072000D01*
X136077000Y-68072000D02*
X138617000Y-68072000D01*
X138617000Y-68072000D02*
X141224000Y-68072000D01*
X108712000Y-70612000D02*
X108712000Y-70866000D01*
X122210588Y-68072000D02*
X123377000Y-68072000D01*
X108712000Y-70866000D02*
X109220000Y-71374000D01*
X119126000Y-71374000D02*
X120142000Y-70358000D01*
X109220000Y-71374000D02*
X119126000Y-71374000D01*
X120142000Y-70358000D02*
X120142000Y-70140588D01*
X120142000Y-70140588D02*
X122210588Y-68072000D01*
%TO.N,GRID7*%
X123377000Y-70612000D02*
X125917000Y-70612000D01*
X125917000Y-70612000D02*
X128457000Y-70612000D01*
X128457000Y-70612000D02*
X130997000Y-70612000D01*
X130997000Y-70612000D02*
X133537000Y-70612000D01*
X133537000Y-70612000D02*
X136077000Y-70612000D01*
X136077000Y-70612000D02*
X138617000Y-70612000D01*
X138617000Y-70612000D02*
X141224000Y-70612000D01*
X123377000Y-70612000D02*
X121920000Y-70612000D01*
X121920000Y-70612000D02*
X121666000Y-70866000D01*
X121666000Y-70866000D02*
X121666000Y-71120000D01*
X121666000Y-71120000D02*
X119888000Y-72898000D01*
X116840000Y-72898000D02*
X115316000Y-74422000D01*
X115316000Y-74422000D02*
X108712000Y-74422000D01*
X116840000Y-72898000D02*
X119888000Y-72898000D01*
%TO.N,GRID8*%
X123377000Y-71561000D02*
X125917000Y-71561000D01*
X125917000Y-71561000D02*
X128457000Y-71561000D01*
X128457000Y-71561000D02*
X130997000Y-71561000D01*
X130997000Y-71561000D02*
X133537000Y-71561000D01*
X133537000Y-71561000D02*
X136077000Y-71561000D01*
X136077000Y-71561000D02*
X138617000Y-71561000D01*
X138617000Y-71561000D02*
X141157000Y-71561000D01*
X141157000Y-71561000D02*
X141224000Y-71628000D01*
X117094000Y-73406000D02*
X120052998Y-73406000D01*
X121897999Y-71560999D02*
X123377000Y-71561000D01*
X115062000Y-75438000D02*
X117094000Y-73406000D01*
X109474000Y-76454000D02*
X109474000Y-76962000D01*
X120052998Y-73406000D02*
X121897999Y-71560999D01*
X108712000Y-75692000D02*
X109474000Y-76454000D01*
X109474000Y-76962000D02*
X110236000Y-77724000D01*
X110236000Y-77724000D02*
X114808000Y-77724000D01*
X114808000Y-77724000D02*
X115062000Y-77470000D01*
X115062000Y-77470000D02*
X115062000Y-75438000D01*
%TO.N,GRID9*%
X122174000Y-72136000D02*
X124527000Y-72136000D01*
X124527000Y-72136000D02*
X127067000Y-72136000D01*
X127067000Y-72136000D02*
X129607000Y-72136000D01*
X129607000Y-72136000D02*
X132147000Y-72136000D01*
X132147000Y-72136000D02*
X134687000Y-72136000D01*
X134687000Y-72136000D02*
X137227000Y-72136000D01*
X137227000Y-72136000D02*
X139767000Y-72136000D01*
X122174000Y-72136000D02*
X121666000Y-72644000D01*
X121666000Y-72644000D02*
X120396000Y-73914000D01*
X117348000Y-73914000D02*
X115570000Y-75692000D01*
X115570000Y-75692000D02*
X115570000Y-77978000D01*
X115570000Y-77978000D02*
X115316000Y-78232000D01*
X115316000Y-78232000D02*
X109728000Y-78232000D01*
X109728000Y-78232000D02*
X108712000Y-77216000D01*
X108712000Y-77216000D02*
X108712000Y-76962000D01*
X117348000Y-73914000D02*
X120396000Y-73914000D01*
%TO.N,GRID12*%
X122174000Y-74676000D02*
X124527000Y-74676000D01*
X124527000Y-74676000D02*
X127067000Y-74676000D01*
X127067000Y-74676000D02*
X129607000Y-74676000D01*
X129607000Y-74676000D02*
X132147000Y-74676000D01*
X132147000Y-74676000D02*
X134687000Y-74676000D01*
X134687000Y-74676000D02*
X137227000Y-74676000D01*
X137227000Y-74676000D02*
X139767000Y-74676000D01*
X122174000Y-74676000D02*
X121920000Y-74676000D01*
X121920000Y-74676000D02*
X121158000Y-75438000D01*
X117981590Y-75438000D02*
X117094000Y-76325590D01*
X117094000Y-76325590D02*
X117094000Y-78740000D01*
X117094000Y-78740000D02*
X117602000Y-79248000D01*
X117602000Y-79248000D02*
X117856000Y-79248000D01*
X121158000Y-75438000D02*
X117981590Y-75438000D01*
%TO.N,GRID11*%
X123377000Y-74101000D02*
X125917000Y-74101000D01*
X125917000Y-74101000D02*
X128457000Y-74101000D01*
X128457000Y-74101000D02*
X130997000Y-74101000D01*
X130997000Y-74101000D02*
X133537000Y-74101000D01*
X133537000Y-74101000D02*
X136077000Y-74101000D01*
X136077000Y-74101000D02*
X138617000Y-74101000D01*
X138617000Y-74101000D02*
X141157000Y-74101000D01*
X141157000Y-74101000D02*
X141224000Y-74168000D01*
X123377000Y-74101000D02*
X121733000Y-74101000D01*
X121733000Y-74101000D02*
X120904000Y-74930000D01*
X117853180Y-74930000D02*
X116586000Y-76197180D01*
X116586000Y-76197180D02*
X116586000Y-78486000D01*
X116586000Y-78486000D02*
X116586000Y-78740000D01*
X116586000Y-78740000D02*
X116078000Y-79248000D01*
X116078000Y-79248000D02*
X108712000Y-79248000D01*
X117853180Y-74930000D02*
X120904000Y-74930000D01*
%TO.N,GRID10*%
X123377000Y-73152000D02*
X125917000Y-73152000D01*
X125917000Y-73152000D02*
X128457000Y-73152000D01*
X128457000Y-73152000D02*
X130997000Y-73152000D01*
X130997000Y-73152000D02*
X133537000Y-73152000D01*
X133537000Y-73152000D02*
X136077000Y-73152000D01*
X136077000Y-73152000D02*
X138617000Y-73152000D01*
X138617000Y-73152000D02*
X141224000Y-73152000D01*
X109220000Y-78740000D02*
X108712000Y-78232000D01*
X115824000Y-78740000D02*
X109220000Y-78740000D01*
X116078000Y-78486000D02*
X115824000Y-78740000D01*
X121421010Y-73650990D02*
X120650000Y-74422000D01*
X122878010Y-73650990D02*
X121421010Y-73650990D01*
X123377000Y-73152000D02*
X122878010Y-73650990D01*
X120650000Y-74422000D02*
X117602000Y-74422000D01*
X117602000Y-74422000D02*
X116078000Y-75946000D01*
X116078000Y-75946000D02*
X116078000Y-78486000D01*
%TO.N,GRID13*%
X123437704Y-75695148D02*
X125977704Y-75695148D01*
X125977704Y-75695148D02*
X128517704Y-75695148D01*
X128517704Y-75695148D02*
X131057704Y-75695148D01*
X131057704Y-75695148D02*
X133597704Y-75695148D01*
X133597704Y-75695148D02*
X136137704Y-75695148D01*
X136137704Y-75695148D02*
X138677704Y-75695148D01*
X138677704Y-75695148D02*
X141220852Y-75695148D01*
X141220852Y-75695148D02*
X141224000Y-75692000D01*
X123437704Y-75695148D02*
X121662852Y-75695148D01*
X121662852Y-75695148D02*
X121412000Y-75946000D01*
X117788999Y-77656999D02*
X117856000Y-77724000D01*
X118110000Y-75946000D02*
X117788999Y-76267001D01*
X117788999Y-76267001D02*
X117788999Y-77656999D01*
X118110000Y-75946000D02*
X121412000Y-75946000D01*
%TO.N,GRID14*%
X123444000Y-76454000D02*
X125984000Y-76454000D01*
X125984000Y-76454000D02*
X128524000Y-76454000D01*
X128524000Y-76454000D02*
X131064000Y-76454000D01*
X131064000Y-76454000D02*
X133604000Y-76454000D01*
X133604000Y-76454000D02*
X136144000Y-76454000D01*
X136144000Y-76454000D02*
X138684000Y-76454000D01*
X138684000Y-76454000D02*
X141224000Y-76454000D01*
X118872000Y-76454000D02*
X118618000Y-76454000D01*
X118618000Y-76454000D02*
X118364000Y-76708000D01*
X118872000Y-76454000D02*
X123444000Y-76454000D01*
%TD*%
D16*
%TO.N,GND*%
G36*
X151371204Y-61646815D02*
G01*
X151603226Y-61716867D01*
X151817222Y-61830650D01*
X152005041Y-61983832D01*
X152159530Y-62170577D01*
X152274801Y-62383769D01*
X152346472Y-62615300D01*
X152375001Y-62886734D01*
X152375000Y-79342722D01*
X152348185Y-79616205D01*
X152278133Y-79848226D01*
X152164350Y-80062222D01*
X152011169Y-80250039D01*
X151824424Y-80404529D01*
X151611231Y-80519802D01*
X151379701Y-80591472D01*
X151108276Y-80620000D01*
X95917277Y-80620000D01*
X95643795Y-80593185D01*
X95411774Y-80523133D01*
X95197778Y-80409350D01*
X95009961Y-80256169D01*
X94855471Y-80069424D01*
X94740198Y-79856231D01*
X94668528Y-79624701D01*
X94640000Y-79353276D01*
X94640000Y-77323740D01*
X95035000Y-77323740D01*
X95035000Y-77616260D01*
X95092068Y-77903158D01*
X95204010Y-78173411D01*
X95366525Y-78416632D01*
X95573368Y-78623475D01*
X95816589Y-78785990D01*
X96086842Y-78897932D01*
X96373740Y-78955000D01*
X96666260Y-78955000D01*
X96953158Y-78897932D01*
X97223411Y-78785990D01*
X97466632Y-78623475D01*
X97673475Y-78416632D01*
X97835990Y-78173411D01*
X97947932Y-77903158D01*
X98005000Y-77616260D01*
X98005000Y-77323740D01*
X97947932Y-77036842D01*
X97835990Y-76766589D01*
X97673475Y-76523368D01*
X97466632Y-76316525D01*
X97284466Y-76194805D01*
X97401355Y-76125178D01*
X97431438Y-76098061D01*
X102470000Y-76098061D01*
X102470000Y-76301939D01*
X102509774Y-76501898D01*
X102587795Y-76690256D01*
X102701063Y-76859774D01*
X102845226Y-77003937D01*
X103014744Y-77117205D01*
X103203102Y-77195226D01*
X103403061Y-77235000D01*
X103606939Y-77235000D01*
X103806898Y-77195226D01*
X103995256Y-77117205D01*
X104164774Y-77003937D01*
X104308937Y-76859774D01*
X104422205Y-76690256D01*
X104500226Y-76501898D01*
X104540000Y-76301939D01*
X104540000Y-76098061D01*
X104500226Y-75898102D01*
X104422205Y-75709744D01*
X104390000Y-75661546D01*
X104390000Y-72577148D01*
X104464777Y-72465236D01*
X104542798Y-72276878D01*
X104582572Y-72076919D01*
X104582572Y-71873041D01*
X104542798Y-71673082D01*
X104464777Y-71484724D01*
X104351509Y-71315206D01*
X104207346Y-71171043D01*
X104037828Y-71057775D01*
X103849470Y-70979754D01*
X103649511Y-70939980D01*
X103445633Y-70939980D01*
X103245674Y-70979754D01*
X103057316Y-71057775D01*
X102887798Y-71171043D01*
X102743635Y-71315206D01*
X102630367Y-71484724D01*
X102552346Y-71673082D01*
X102512572Y-71873041D01*
X102512572Y-72076919D01*
X102552346Y-72276878D01*
X102620001Y-72440210D01*
X102620000Y-75661545D01*
X102587795Y-75709744D01*
X102509774Y-75898102D01*
X102470000Y-76098061D01*
X97431438Y-76098061D01*
X97617588Y-75930269D01*
X97791641Y-75696920D01*
X97916825Y-75434099D01*
X97961476Y-75286890D01*
X97840155Y-75057000D01*
X96647000Y-75057000D01*
X96647000Y-75077000D01*
X96393000Y-75077000D01*
X96393000Y-75057000D01*
X95199845Y-75057000D01*
X95078524Y-75286890D01*
X95123175Y-75434099D01*
X95248359Y-75696920D01*
X95422412Y-75930269D01*
X95638645Y-76125178D01*
X95755534Y-76194805D01*
X95573368Y-76316525D01*
X95366525Y-76523368D01*
X95204010Y-76766589D01*
X95092068Y-77036842D01*
X95035000Y-77323740D01*
X94640000Y-77323740D01*
X94640000Y-63920000D01*
X95031928Y-63920000D01*
X95031928Y-65620000D01*
X95044188Y-65744482D01*
X95080498Y-65864180D01*
X95139463Y-65974494D01*
X95218815Y-66071185D01*
X95315506Y-66150537D01*
X95425820Y-66209502D01*
X95498380Y-66231513D01*
X95366525Y-66363368D01*
X95204010Y-66606589D01*
X95092068Y-66876842D01*
X95035000Y-67163740D01*
X95035000Y-67456260D01*
X95092068Y-67743158D01*
X95204010Y-68013411D01*
X95366525Y-68256632D01*
X95573368Y-68463475D01*
X95747760Y-68580000D01*
X95573368Y-68696525D01*
X95366525Y-68903368D01*
X95204010Y-69146589D01*
X95092068Y-69416842D01*
X95035000Y-69703740D01*
X95035000Y-69996260D01*
X95092068Y-70283158D01*
X95204010Y-70553411D01*
X95366525Y-70796632D01*
X95573368Y-71003475D01*
X95747760Y-71120000D01*
X95573368Y-71236525D01*
X95366525Y-71443368D01*
X95204010Y-71686589D01*
X95092068Y-71956842D01*
X95035000Y-72243740D01*
X95035000Y-72536260D01*
X95092068Y-72823158D01*
X95204010Y-73093411D01*
X95366525Y-73336632D01*
X95573368Y-73543475D01*
X95755534Y-73665195D01*
X95638645Y-73734822D01*
X95422412Y-73929731D01*
X95248359Y-74163080D01*
X95123175Y-74425901D01*
X95078524Y-74573110D01*
X95199845Y-74803000D01*
X96393000Y-74803000D01*
X96393000Y-74783000D01*
X96647000Y-74783000D01*
X96647000Y-74803000D01*
X97840155Y-74803000D01*
X97961476Y-74573110D01*
X97916825Y-74425901D01*
X97791641Y-74163080D01*
X97617588Y-73929731D01*
X97401355Y-73734822D01*
X97284466Y-73665195D01*
X97466632Y-73543475D01*
X97673475Y-73336632D01*
X97835990Y-73093411D01*
X97947932Y-72823158D01*
X98005000Y-72536260D01*
X98005000Y-72243740D01*
X97947932Y-71956842D01*
X97835990Y-71686589D01*
X97673475Y-71443368D01*
X97466632Y-71236525D01*
X97292240Y-71120000D01*
X97466632Y-71003475D01*
X97673475Y-70796632D01*
X97835990Y-70553411D01*
X97947932Y-70283158D01*
X98005000Y-69996260D01*
X98005000Y-69703740D01*
X97947932Y-69416842D01*
X97835990Y-69146589D01*
X97673475Y-68903368D01*
X97466632Y-68696525D01*
X97292240Y-68580000D01*
X97466632Y-68463475D01*
X97673475Y-68256632D01*
X97835990Y-68013411D01*
X97947932Y-67743158D01*
X98005000Y-67456260D01*
X98005000Y-67163740D01*
X97947932Y-66876842D01*
X97880827Y-66714835D01*
X107827000Y-66714835D01*
X107827000Y-66889165D01*
X107861010Y-67060145D01*
X107927723Y-67221205D01*
X108001336Y-67331373D01*
X108006454Y-67348247D01*
X108068359Y-67464062D01*
X108024576Y-67507845D01*
X107927723Y-67652795D01*
X107861010Y-67813855D01*
X107827000Y-67984835D01*
X107827000Y-68159165D01*
X107861010Y-68330145D01*
X107927723Y-68491205D01*
X108001336Y-68601373D01*
X108006454Y-68618247D01*
X108068359Y-68734062D01*
X108024576Y-68777845D01*
X107927723Y-68922795D01*
X107861010Y-69083855D01*
X107827000Y-69254835D01*
X107827000Y-69429165D01*
X107861010Y-69600145D01*
X107927723Y-69761205D01*
X108001336Y-69871375D01*
X108006454Y-69888246D01*
X108068359Y-70004062D01*
X108024576Y-70047845D01*
X107927723Y-70192795D01*
X107861010Y-70353855D01*
X107827000Y-70524835D01*
X107827000Y-70699165D01*
X107861010Y-70870145D01*
X107927723Y-71031205D01*
X108001336Y-71141373D01*
X108006454Y-71158247D01*
X108068359Y-71274062D01*
X108024576Y-71317845D01*
X107927723Y-71462795D01*
X107861010Y-71623855D01*
X107827000Y-71794835D01*
X107827000Y-71969165D01*
X107861010Y-72140145D01*
X107927723Y-72301205D01*
X108024576Y-72446155D01*
X108095421Y-72517000D01*
X108024576Y-72587845D01*
X107927723Y-72732795D01*
X107861010Y-72893855D01*
X107827000Y-73064835D01*
X107827000Y-73239165D01*
X107861010Y-73410145D01*
X107927723Y-73571205D01*
X108024576Y-73716155D01*
X108095421Y-73787000D01*
X108024576Y-73857845D01*
X107927723Y-74002795D01*
X107861010Y-74163855D01*
X107827000Y-74334835D01*
X107827000Y-74509165D01*
X107861010Y-74680145D01*
X107927723Y-74841205D01*
X108024576Y-74986155D01*
X108095421Y-75057000D01*
X108024576Y-75127845D01*
X107927723Y-75272795D01*
X107861010Y-75433855D01*
X107827000Y-75604835D01*
X107827000Y-75779165D01*
X107861010Y-75950145D01*
X107927723Y-76111205D01*
X108024576Y-76256155D01*
X108095421Y-76327000D01*
X108024576Y-76397845D01*
X107927723Y-76542795D01*
X107861010Y-76703855D01*
X107827000Y-76874835D01*
X107827000Y-77049165D01*
X107861010Y-77220145D01*
X107927723Y-77381205D01*
X108001336Y-77491375D01*
X108006454Y-77508246D01*
X108068359Y-77624062D01*
X108024576Y-77667845D01*
X107927723Y-77812795D01*
X107861010Y-77973855D01*
X107827000Y-78144835D01*
X107827000Y-78319165D01*
X107861010Y-78490145D01*
X107927723Y-78651205D01*
X107987054Y-78740000D01*
X107927723Y-78828795D01*
X107861010Y-78989855D01*
X107827000Y-79160835D01*
X107827000Y-79335165D01*
X107861010Y-79506145D01*
X107927723Y-79667205D01*
X108024576Y-79812155D01*
X108147845Y-79935424D01*
X108292795Y-80032277D01*
X108453855Y-80098990D01*
X108624835Y-80133000D01*
X108799165Y-80133000D01*
X108970145Y-80098990D01*
X109131205Y-80032277D01*
X109167538Y-80008000D01*
X116040678Y-80008000D01*
X116078000Y-80011676D01*
X116115322Y-80008000D01*
X116115333Y-80008000D01*
X116226986Y-79997003D01*
X116370247Y-79953546D01*
X116502276Y-79882974D01*
X116618001Y-79788001D01*
X116641803Y-79758998D01*
X116840000Y-79560802D01*
X117038200Y-79759002D01*
X117061999Y-79788001D01*
X117177724Y-79882974D01*
X117309753Y-79953546D01*
X117326627Y-79958664D01*
X117436795Y-80032277D01*
X117597855Y-80098990D01*
X117768835Y-80133000D01*
X117943165Y-80133000D01*
X118114145Y-80098990D01*
X118275205Y-80032277D01*
X118420155Y-79935424D01*
X118543424Y-79812155D01*
X118640277Y-79667205D01*
X118706990Y-79506145D01*
X118741000Y-79335165D01*
X118741000Y-79160835D01*
X118706990Y-78989855D01*
X118640277Y-78828795D01*
X118543424Y-78683845D01*
X118420155Y-78560576D01*
X118308545Y-78486000D01*
X118420155Y-78411424D01*
X118543424Y-78288155D01*
X118640277Y-78143205D01*
X118706990Y-77982145D01*
X118741000Y-77811165D01*
X118741000Y-77636835D01*
X118717647Y-77519432D01*
X118783205Y-77492277D01*
X118928155Y-77395424D01*
X119051424Y-77272155D01*
X119090282Y-77214000D01*
X122988462Y-77214000D01*
X123024795Y-77238277D01*
X123185855Y-77304990D01*
X123356835Y-77339000D01*
X123531165Y-77339000D01*
X123702145Y-77304990D01*
X123863205Y-77238277D01*
X123899538Y-77214000D01*
X125528462Y-77214000D01*
X125564795Y-77238277D01*
X125725855Y-77304990D01*
X125896835Y-77339000D01*
X126071165Y-77339000D01*
X126242145Y-77304990D01*
X126403205Y-77238277D01*
X126439538Y-77214000D01*
X126902037Y-77214000D01*
X126850723Y-77290796D01*
X126784010Y-77451856D01*
X126775485Y-77494714D01*
X125780200Y-78490000D01*
X125642835Y-78490000D01*
X125471855Y-78524010D01*
X125310795Y-78590723D01*
X125165845Y-78687576D01*
X125042576Y-78810845D01*
X124945723Y-78955795D01*
X124879010Y-79116855D01*
X124845000Y-79287835D01*
X124845000Y-79462165D01*
X124879010Y-79633145D01*
X124945723Y-79794205D01*
X125042576Y-79939155D01*
X125165845Y-80062424D01*
X125310795Y-80159277D01*
X125471855Y-80225990D01*
X125642835Y-80260000D01*
X125817165Y-80260000D01*
X125988145Y-80225990D01*
X126149205Y-80159277D01*
X126286171Y-80067758D01*
X126394277Y-80009974D01*
X126510002Y-79915001D01*
X126533805Y-79885997D01*
X127131967Y-79287835D01*
X129925000Y-79287835D01*
X129925000Y-79462165D01*
X129959010Y-79633145D01*
X130025723Y-79794205D01*
X130122576Y-79939155D01*
X130245845Y-80062424D01*
X130390795Y-80159277D01*
X130551855Y-80225990D01*
X130722835Y-80260000D01*
X130897165Y-80260000D01*
X131068145Y-80225990D01*
X131229205Y-80159277D01*
X131265538Y-80135000D01*
X136704462Y-80135000D01*
X136740795Y-80159277D01*
X136901855Y-80225990D01*
X137072835Y-80260000D01*
X137247165Y-80260000D01*
X137418145Y-80225990D01*
X137579205Y-80159277D01*
X137724155Y-80062424D01*
X137847424Y-79939155D01*
X137944277Y-79794205D01*
X138010990Y-79633145D01*
X138045000Y-79462165D01*
X138045000Y-79287835D01*
X138010990Y-79116855D01*
X137944277Y-78955795D01*
X137847424Y-78810845D01*
X137724155Y-78687576D01*
X137579205Y-78590723D01*
X137418145Y-78524010D01*
X137247165Y-78490000D01*
X137072835Y-78490000D01*
X136901855Y-78524010D01*
X136740795Y-78590723D01*
X136704462Y-78615000D01*
X131265538Y-78615000D01*
X131229205Y-78590723D01*
X131068145Y-78524010D01*
X130897165Y-78490000D01*
X130722835Y-78490000D01*
X130551855Y-78524010D01*
X130390795Y-78590723D01*
X130245845Y-78687576D01*
X130122576Y-78810845D01*
X130025723Y-78955795D01*
X129959010Y-79116855D01*
X129925000Y-79287835D01*
X127131967Y-79287835D01*
X127850287Y-78569516D01*
X127893145Y-78560991D01*
X128054205Y-78494278D01*
X128199155Y-78397425D01*
X128322424Y-78274156D01*
X128419277Y-78129206D01*
X128485990Y-77968146D01*
X128520000Y-77797166D01*
X128520000Y-77622836D01*
X128485990Y-77451856D01*
X128439244Y-77339000D01*
X128611165Y-77339000D01*
X128782145Y-77304990D01*
X128943205Y-77238277D01*
X128979538Y-77214000D01*
X130608462Y-77214000D01*
X130644795Y-77238277D01*
X130805855Y-77304990D01*
X130976835Y-77339000D01*
X131151165Y-77339000D01*
X131322145Y-77304990D01*
X131483205Y-77238277D01*
X131519538Y-77214000D01*
X133148462Y-77214000D01*
X133184795Y-77238277D01*
X133345855Y-77304990D01*
X133516835Y-77339000D01*
X133691165Y-77339000D01*
X133862145Y-77304990D01*
X134023205Y-77238277D01*
X134059538Y-77214000D01*
X135688462Y-77214000D01*
X135724795Y-77238277D01*
X135885855Y-77304990D01*
X136056835Y-77339000D01*
X136231165Y-77339000D01*
X136402145Y-77304990D01*
X136563205Y-77238277D01*
X136599538Y-77214000D01*
X138228462Y-77214000D01*
X138264795Y-77238277D01*
X138425855Y-77304990D01*
X138596835Y-77339000D01*
X138771165Y-77339000D01*
X138942145Y-77304990D01*
X139103205Y-77238277D01*
X139139538Y-77214000D01*
X140768462Y-77214000D01*
X140804795Y-77238277D01*
X140965855Y-77304990D01*
X141136835Y-77339000D01*
X141311165Y-77339000D01*
X141482145Y-77304990D01*
X141643205Y-77238277D01*
X141788155Y-77141424D01*
X141911424Y-77018155D01*
X142008277Y-76873205D01*
X142074990Y-76712145D01*
X142109000Y-76541165D01*
X142109000Y-76366835D01*
X142074990Y-76195855D01*
X142024102Y-76073000D01*
X142074990Y-75950145D01*
X142109000Y-75779165D01*
X142109000Y-75604835D01*
X142074990Y-75433855D01*
X142008277Y-75272795D01*
X141911424Y-75127845D01*
X141788155Y-75004576D01*
X141676545Y-74930000D01*
X141788155Y-74855424D01*
X141911424Y-74732155D01*
X142008277Y-74587205D01*
X142074990Y-74426145D01*
X142109000Y-74255165D01*
X142109000Y-74080835D01*
X142074990Y-73909855D01*
X142008277Y-73748795D01*
X141948946Y-73660000D01*
X142008277Y-73571205D01*
X142074990Y-73410145D01*
X142109000Y-73239165D01*
X142109000Y-73064835D01*
X142074990Y-72893855D01*
X142008277Y-72732795D01*
X141911424Y-72587845D01*
X141788155Y-72464576D01*
X141676545Y-72390000D01*
X141788155Y-72315424D01*
X141911424Y-72192155D01*
X142008277Y-72047205D01*
X142074990Y-71886145D01*
X142109000Y-71715165D01*
X142109000Y-71540835D01*
X142074990Y-71369855D01*
X142008277Y-71208795D01*
X141948946Y-71120000D01*
X142008277Y-71031205D01*
X142074990Y-70870145D01*
X142109000Y-70699165D01*
X142109000Y-70524835D01*
X142074990Y-70353855D01*
X142008277Y-70192795D01*
X141911424Y-70047845D01*
X141788155Y-69924576D01*
X141676545Y-69850000D01*
X141788155Y-69775424D01*
X141911424Y-69652155D01*
X142008277Y-69507205D01*
X142074990Y-69346145D01*
X142109000Y-69175165D01*
X142109000Y-69000835D01*
X142074990Y-68829855D01*
X142008277Y-68668795D01*
X141948946Y-68580000D01*
X142008277Y-68491205D01*
X142074990Y-68330145D01*
X142109000Y-68159165D01*
X142109000Y-67984835D01*
X142074990Y-67813855D01*
X142008277Y-67652795D01*
X141911424Y-67507845D01*
X141788155Y-67384576D01*
X141676545Y-67310000D01*
X141788155Y-67235424D01*
X141911424Y-67112155D01*
X142008277Y-66967205D01*
X142074990Y-66806145D01*
X142109000Y-66635165D01*
X142109000Y-66460835D01*
X142074990Y-66289855D01*
X142024102Y-66167000D01*
X142074990Y-66044145D01*
X142109000Y-65873165D01*
X142109000Y-65698835D01*
X142074990Y-65527855D01*
X142008277Y-65366795D01*
X141911424Y-65221845D01*
X141788155Y-65098576D01*
X141643205Y-65001723D01*
X141482145Y-64935010D01*
X141311165Y-64901000D01*
X141136835Y-64901000D01*
X140965855Y-64935010D01*
X140804795Y-65001723D01*
X140773173Y-65022852D01*
X139133242Y-65022852D01*
X139096909Y-64998575D01*
X138935849Y-64931862D01*
X138764869Y-64897852D01*
X138590539Y-64897852D01*
X138419559Y-64931862D01*
X138258499Y-64998575D01*
X138222166Y-65022852D01*
X136593242Y-65022852D01*
X136556909Y-64998575D01*
X136395849Y-64931862D01*
X136224869Y-64897852D01*
X136050539Y-64897852D01*
X135879559Y-64931862D01*
X135718499Y-64998575D01*
X135682166Y-65022852D01*
X134053242Y-65022852D01*
X134016909Y-64998575D01*
X133855849Y-64931862D01*
X133684869Y-64897852D01*
X133510539Y-64897852D01*
X133339559Y-64931862D01*
X133178499Y-64998575D01*
X133142166Y-65022852D01*
X131513242Y-65022852D01*
X131476909Y-64998575D01*
X131315849Y-64931862D01*
X131144869Y-64897852D01*
X130970539Y-64897852D01*
X130799559Y-64931862D01*
X130638499Y-64998575D01*
X130602166Y-65022852D01*
X128973242Y-65022852D01*
X128936909Y-64998575D01*
X128775849Y-64931862D01*
X128604869Y-64897852D01*
X128430539Y-64897852D01*
X128259559Y-64931862D01*
X128098499Y-64998575D01*
X128062166Y-65022852D01*
X126433242Y-65022852D01*
X126396909Y-64998575D01*
X126235849Y-64931862D01*
X126064869Y-64897852D01*
X125890539Y-64897852D01*
X125719559Y-64931862D01*
X125558499Y-64998575D01*
X125524411Y-65021352D01*
X123893995Y-65021352D01*
X123857662Y-64997075D01*
X123696602Y-64930362D01*
X123525622Y-64896352D01*
X123351292Y-64896352D01*
X123180312Y-64930362D01*
X123019252Y-64997075D01*
X122982919Y-65021352D01*
X121707970Y-65021352D01*
X121670648Y-65017676D01*
X121633325Y-65021352D01*
X121633315Y-65021352D01*
X121521662Y-65032349D01*
X121378401Y-65075806D01*
X121246371Y-65146378D01*
X121162731Y-65215020D01*
X121130647Y-65241351D01*
X121106849Y-65270350D01*
X120392998Y-65984201D01*
X120364000Y-66007999D01*
X120340202Y-66036997D01*
X120340201Y-66036998D01*
X120269026Y-66123724D01*
X120198454Y-66255754D01*
X120187361Y-66292324D01*
X120154997Y-66399014D01*
X120144000Y-66510667D01*
X120144000Y-66510678D01*
X120140324Y-66548000D01*
X120144000Y-66585322D01*
X120144000Y-66995197D01*
X118049199Y-69090000D01*
X110804802Y-69090000D01*
X110497011Y-68782210D01*
X110497011Y-68118333D01*
X110500687Y-68081010D01*
X110497011Y-68043687D01*
X110497011Y-68043678D01*
X110486014Y-67932025D01*
X110442557Y-67788764D01*
X110371985Y-67656735D01*
X110306547Y-67576998D01*
X110300810Y-67570007D01*
X110300806Y-67570003D01*
X110277012Y-67541010D01*
X110248020Y-67517217D01*
X109597000Y-66866198D01*
X109597000Y-66714835D01*
X109562990Y-66543855D01*
X109496277Y-66382795D01*
X109399424Y-66237845D01*
X109276155Y-66114576D01*
X109131205Y-66017723D01*
X108970145Y-65951010D01*
X108799165Y-65917000D01*
X108624835Y-65917000D01*
X108453855Y-65951010D01*
X108292795Y-66017723D01*
X108147845Y-66114576D01*
X108024576Y-66237845D01*
X107927723Y-66382795D01*
X107861010Y-66543855D01*
X107827000Y-66714835D01*
X97880827Y-66714835D01*
X97835990Y-66606589D01*
X97673475Y-66363368D01*
X97541620Y-66231513D01*
X97614180Y-66209502D01*
X97724494Y-66150537D01*
X97821185Y-66071185D01*
X97900537Y-65974494D01*
X97959502Y-65864180D01*
X97995812Y-65744482D01*
X98008072Y-65620000D01*
X98008072Y-63920000D01*
X97995812Y-63795518D01*
X97959502Y-63675820D01*
X97900537Y-63565506D01*
X97821185Y-63468815D01*
X97724494Y-63389463D01*
X97614180Y-63330498D01*
X97494482Y-63294188D01*
X97370000Y-63281928D01*
X95670000Y-63281928D01*
X95545518Y-63294188D01*
X95425820Y-63330498D01*
X95315506Y-63389463D01*
X95218815Y-63468815D01*
X95139463Y-63565506D01*
X95080498Y-63675820D01*
X95044188Y-63795518D01*
X95031928Y-63920000D01*
X94640000Y-63920000D01*
X94640000Y-62897277D01*
X94666815Y-62623796D01*
X94736867Y-62391774D01*
X94850650Y-62177778D01*
X95003832Y-61989959D01*
X95190577Y-61835470D01*
X95403769Y-61720199D01*
X95635300Y-61648528D01*
X95906725Y-61620000D01*
X151097723Y-61620000D01*
X151371204Y-61646815D01*
G37*
X151371204Y-61646815D02*
X151603226Y-61716867D01*
X151817222Y-61830650D01*
X152005041Y-61983832D01*
X152159530Y-62170577D01*
X152274801Y-62383769D01*
X152346472Y-62615300D01*
X152375001Y-62886734D01*
X152375000Y-79342722D01*
X152348185Y-79616205D01*
X152278133Y-79848226D01*
X152164350Y-80062222D01*
X152011169Y-80250039D01*
X151824424Y-80404529D01*
X151611231Y-80519802D01*
X151379701Y-80591472D01*
X151108276Y-80620000D01*
X95917277Y-80620000D01*
X95643795Y-80593185D01*
X95411774Y-80523133D01*
X95197778Y-80409350D01*
X95009961Y-80256169D01*
X94855471Y-80069424D01*
X94740198Y-79856231D01*
X94668528Y-79624701D01*
X94640000Y-79353276D01*
X94640000Y-77323740D01*
X95035000Y-77323740D01*
X95035000Y-77616260D01*
X95092068Y-77903158D01*
X95204010Y-78173411D01*
X95366525Y-78416632D01*
X95573368Y-78623475D01*
X95816589Y-78785990D01*
X96086842Y-78897932D01*
X96373740Y-78955000D01*
X96666260Y-78955000D01*
X96953158Y-78897932D01*
X97223411Y-78785990D01*
X97466632Y-78623475D01*
X97673475Y-78416632D01*
X97835990Y-78173411D01*
X97947932Y-77903158D01*
X98005000Y-77616260D01*
X98005000Y-77323740D01*
X97947932Y-77036842D01*
X97835990Y-76766589D01*
X97673475Y-76523368D01*
X97466632Y-76316525D01*
X97284466Y-76194805D01*
X97401355Y-76125178D01*
X97431438Y-76098061D01*
X102470000Y-76098061D01*
X102470000Y-76301939D01*
X102509774Y-76501898D01*
X102587795Y-76690256D01*
X102701063Y-76859774D01*
X102845226Y-77003937D01*
X103014744Y-77117205D01*
X103203102Y-77195226D01*
X103403061Y-77235000D01*
X103606939Y-77235000D01*
X103806898Y-77195226D01*
X103995256Y-77117205D01*
X104164774Y-77003937D01*
X104308937Y-76859774D01*
X104422205Y-76690256D01*
X104500226Y-76501898D01*
X104540000Y-76301939D01*
X104540000Y-76098061D01*
X104500226Y-75898102D01*
X104422205Y-75709744D01*
X104390000Y-75661546D01*
X104390000Y-72577148D01*
X104464777Y-72465236D01*
X104542798Y-72276878D01*
X104582572Y-72076919D01*
X104582572Y-71873041D01*
X104542798Y-71673082D01*
X104464777Y-71484724D01*
X104351509Y-71315206D01*
X104207346Y-71171043D01*
X104037828Y-71057775D01*
X103849470Y-70979754D01*
X103649511Y-70939980D01*
X103445633Y-70939980D01*
X103245674Y-70979754D01*
X103057316Y-71057775D01*
X102887798Y-71171043D01*
X102743635Y-71315206D01*
X102630367Y-71484724D01*
X102552346Y-71673082D01*
X102512572Y-71873041D01*
X102512572Y-72076919D01*
X102552346Y-72276878D01*
X102620001Y-72440210D01*
X102620000Y-75661545D01*
X102587795Y-75709744D01*
X102509774Y-75898102D01*
X102470000Y-76098061D01*
X97431438Y-76098061D01*
X97617588Y-75930269D01*
X97791641Y-75696920D01*
X97916825Y-75434099D01*
X97961476Y-75286890D01*
X97840155Y-75057000D01*
X96647000Y-75057000D01*
X96647000Y-75077000D01*
X96393000Y-75077000D01*
X96393000Y-75057000D01*
X95199845Y-75057000D01*
X95078524Y-75286890D01*
X95123175Y-75434099D01*
X95248359Y-75696920D01*
X95422412Y-75930269D01*
X95638645Y-76125178D01*
X95755534Y-76194805D01*
X95573368Y-76316525D01*
X95366525Y-76523368D01*
X95204010Y-76766589D01*
X95092068Y-77036842D01*
X95035000Y-77323740D01*
X94640000Y-77323740D01*
X94640000Y-63920000D01*
X95031928Y-63920000D01*
X95031928Y-65620000D01*
X95044188Y-65744482D01*
X95080498Y-65864180D01*
X95139463Y-65974494D01*
X95218815Y-66071185D01*
X95315506Y-66150537D01*
X95425820Y-66209502D01*
X95498380Y-66231513D01*
X95366525Y-66363368D01*
X95204010Y-66606589D01*
X95092068Y-66876842D01*
X95035000Y-67163740D01*
X95035000Y-67456260D01*
X95092068Y-67743158D01*
X95204010Y-68013411D01*
X95366525Y-68256632D01*
X95573368Y-68463475D01*
X95747760Y-68580000D01*
X95573368Y-68696525D01*
X95366525Y-68903368D01*
X95204010Y-69146589D01*
X95092068Y-69416842D01*
X95035000Y-69703740D01*
X95035000Y-69996260D01*
X95092068Y-70283158D01*
X95204010Y-70553411D01*
X95366525Y-70796632D01*
X95573368Y-71003475D01*
X95747760Y-71120000D01*
X95573368Y-71236525D01*
X95366525Y-71443368D01*
X95204010Y-71686589D01*
X95092068Y-71956842D01*
X95035000Y-72243740D01*
X95035000Y-72536260D01*
X95092068Y-72823158D01*
X95204010Y-73093411D01*
X95366525Y-73336632D01*
X95573368Y-73543475D01*
X95755534Y-73665195D01*
X95638645Y-73734822D01*
X95422412Y-73929731D01*
X95248359Y-74163080D01*
X95123175Y-74425901D01*
X95078524Y-74573110D01*
X95199845Y-74803000D01*
X96393000Y-74803000D01*
X96393000Y-74783000D01*
X96647000Y-74783000D01*
X96647000Y-74803000D01*
X97840155Y-74803000D01*
X97961476Y-74573110D01*
X97916825Y-74425901D01*
X97791641Y-74163080D01*
X97617588Y-73929731D01*
X97401355Y-73734822D01*
X97284466Y-73665195D01*
X97466632Y-73543475D01*
X97673475Y-73336632D01*
X97835990Y-73093411D01*
X97947932Y-72823158D01*
X98005000Y-72536260D01*
X98005000Y-72243740D01*
X97947932Y-71956842D01*
X97835990Y-71686589D01*
X97673475Y-71443368D01*
X97466632Y-71236525D01*
X97292240Y-71120000D01*
X97466632Y-71003475D01*
X97673475Y-70796632D01*
X97835990Y-70553411D01*
X97947932Y-70283158D01*
X98005000Y-69996260D01*
X98005000Y-69703740D01*
X97947932Y-69416842D01*
X97835990Y-69146589D01*
X97673475Y-68903368D01*
X97466632Y-68696525D01*
X97292240Y-68580000D01*
X97466632Y-68463475D01*
X97673475Y-68256632D01*
X97835990Y-68013411D01*
X97947932Y-67743158D01*
X98005000Y-67456260D01*
X98005000Y-67163740D01*
X97947932Y-66876842D01*
X97880827Y-66714835D01*
X107827000Y-66714835D01*
X107827000Y-66889165D01*
X107861010Y-67060145D01*
X107927723Y-67221205D01*
X108001336Y-67331373D01*
X108006454Y-67348247D01*
X108068359Y-67464062D01*
X108024576Y-67507845D01*
X107927723Y-67652795D01*
X107861010Y-67813855D01*
X107827000Y-67984835D01*
X107827000Y-68159165D01*
X107861010Y-68330145D01*
X107927723Y-68491205D01*
X108001336Y-68601373D01*
X108006454Y-68618247D01*
X108068359Y-68734062D01*
X108024576Y-68777845D01*
X107927723Y-68922795D01*
X107861010Y-69083855D01*
X107827000Y-69254835D01*
X107827000Y-69429165D01*
X107861010Y-69600145D01*
X107927723Y-69761205D01*
X108001336Y-69871375D01*
X108006454Y-69888246D01*
X108068359Y-70004062D01*
X108024576Y-70047845D01*
X107927723Y-70192795D01*
X107861010Y-70353855D01*
X107827000Y-70524835D01*
X107827000Y-70699165D01*
X107861010Y-70870145D01*
X107927723Y-71031205D01*
X108001336Y-71141373D01*
X108006454Y-71158247D01*
X108068359Y-71274062D01*
X108024576Y-71317845D01*
X107927723Y-71462795D01*
X107861010Y-71623855D01*
X107827000Y-71794835D01*
X107827000Y-71969165D01*
X107861010Y-72140145D01*
X107927723Y-72301205D01*
X108024576Y-72446155D01*
X108095421Y-72517000D01*
X108024576Y-72587845D01*
X107927723Y-72732795D01*
X107861010Y-72893855D01*
X107827000Y-73064835D01*
X107827000Y-73239165D01*
X107861010Y-73410145D01*
X107927723Y-73571205D01*
X108024576Y-73716155D01*
X108095421Y-73787000D01*
X108024576Y-73857845D01*
X107927723Y-74002795D01*
X107861010Y-74163855D01*
X107827000Y-74334835D01*
X107827000Y-74509165D01*
X107861010Y-74680145D01*
X107927723Y-74841205D01*
X108024576Y-74986155D01*
X108095421Y-75057000D01*
X108024576Y-75127845D01*
X107927723Y-75272795D01*
X107861010Y-75433855D01*
X107827000Y-75604835D01*
X107827000Y-75779165D01*
X107861010Y-75950145D01*
X107927723Y-76111205D01*
X108024576Y-76256155D01*
X108095421Y-76327000D01*
X108024576Y-76397845D01*
X107927723Y-76542795D01*
X107861010Y-76703855D01*
X107827000Y-76874835D01*
X107827000Y-77049165D01*
X107861010Y-77220145D01*
X107927723Y-77381205D01*
X108001336Y-77491375D01*
X108006454Y-77508246D01*
X108068359Y-77624062D01*
X108024576Y-77667845D01*
X107927723Y-77812795D01*
X107861010Y-77973855D01*
X107827000Y-78144835D01*
X107827000Y-78319165D01*
X107861010Y-78490145D01*
X107927723Y-78651205D01*
X107987054Y-78740000D01*
X107927723Y-78828795D01*
X107861010Y-78989855D01*
X107827000Y-79160835D01*
X107827000Y-79335165D01*
X107861010Y-79506145D01*
X107927723Y-79667205D01*
X108024576Y-79812155D01*
X108147845Y-79935424D01*
X108292795Y-80032277D01*
X108453855Y-80098990D01*
X108624835Y-80133000D01*
X108799165Y-80133000D01*
X108970145Y-80098990D01*
X109131205Y-80032277D01*
X109167538Y-80008000D01*
X116040678Y-80008000D01*
X116078000Y-80011676D01*
X116115322Y-80008000D01*
X116115333Y-80008000D01*
X116226986Y-79997003D01*
X116370247Y-79953546D01*
X116502276Y-79882974D01*
X116618001Y-79788001D01*
X116641803Y-79758998D01*
X116840000Y-79560802D01*
X117038200Y-79759002D01*
X117061999Y-79788001D01*
X117177724Y-79882974D01*
X117309753Y-79953546D01*
X117326627Y-79958664D01*
X117436795Y-80032277D01*
X117597855Y-80098990D01*
X117768835Y-80133000D01*
X117943165Y-80133000D01*
X118114145Y-80098990D01*
X118275205Y-80032277D01*
X118420155Y-79935424D01*
X118543424Y-79812155D01*
X118640277Y-79667205D01*
X118706990Y-79506145D01*
X118741000Y-79335165D01*
X118741000Y-79160835D01*
X118706990Y-78989855D01*
X118640277Y-78828795D01*
X118543424Y-78683845D01*
X118420155Y-78560576D01*
X118308545Y-78486000D01*
X118420155Y-78411424D01*
X118543424Y-78288155D01*
X118640277Y-78143205D01*
X118706990Y-77982145D01*
X118741000Y-77811165D01*
X118741000Y-77636835D01*
X118717647Y-77519432D01*
X118783205Y-77492277D01*
X118928155Y-77395424D01*
X119051424Y-77272155D01*
X119090282Y-77214000D01*
X122988462Y-77214000D01*
X123024795Y-77238277D01*
X123185855Y-77304990D01*
X123356835Y-77339000D01*
X123531165Y-77339000D01*
X123702145Y-77304990D01*
X123863205Y-77238277D01*
X123899538Y-77214000D01*
X125528462Y-77214000D01*
X125564795Y-77238277D01*
X125725855Y-77304990D01*
X125896835Y-77339000D01*
X126071165Y-77339000D01*
X126242145Y-77304990D01*
X126403205Y-77238277D01*
X126439538Y-77214000D01*
X126902037Y-77214000D01*
X126850723Y-77290796D01*
X126784010Y-77451856D01*
X126775485Y-77494714D01*
X125780200Y-78490000D01*
X125642835Y-78490000D01*
X125471855Y-78524010D01*
X125310795Y-78590723D01*
X125165845Y-78687576D01*
X125042576Y-78810845D01*
X124945723Y-78955795D01*
X124879010Y-79116855D01*
X124845000Y-79287835D01*
X124845000Y-79462165D01*
X124879010Y-79633145D01*
X124945723Y-79794205D01*
X125042576Y-79939155D01*
X125165845Y-80062424D01*
X125310795Y-80159277D01*
X125471855Y-80225990D01*
X125642835Y-80260000D01*
X125817165Y-80260000D01*
X125988145Y-80225990D01*
X126149205Y-80159277D01*
X126286171Y-80067758D01*
X126394277Y-80009974D01*
X126510002Y-79915001D01*
X126533805Y-79885997D01*
X127131967Y-79287835D01*
X129925000Y-79287835D01*
X129925000Y-79462165D01*
X129959010Y-79633145D01*
X130025723Y-79794205D01*
X130122576Y-79939155D01*
X130245845Y-80062424D01*
X130390795Y-80159277D01*
X130551855Y-80225990D01*
X130722835Y-80260000D01*
X130897165Y-80260000D01*
X131068145Y-80225990D01*
X131229205Y-80159277D01*
X131265538Y-80135000D01*
X136704462Y-80135000D01*
X136740795Y-80159277D01*
X136901855Y-80225990D01*
X137072835Y-80260000D01*
X137247165Y-80260000D01*
X137418145Y-80225990D01*
X137579205Y-80159277D01*
X137724155Y-80062424D01*
X137847424Y-79939155D01*
X137944277Y-79794205D01*
X138010990Y-79633145D01*
X138045000Y-79462165D01*
X138045000Y-79287835D01*
X138010990Y-79116855D01*
X137944277Y-78955795D01*
X137847424Y-78810845D01*
X137724155Y-78687576D01*
X137579205Y-78590723D01*
X137418145Y-78524010D01*
X137247165Y-78490000D01*
X137072835Y-78490000D01*
X136901855Y-78524010D01*
X136740795Y-78590723D01*
X136704462Y-78615000D01*
X131265538Y-78615000D01*
X131229205Y-78590723D01*
X131068145Y-78524010D01*
X130897165Y-78490000D01*
X130722835Y-78490000D01*
X130551855Y-78524010D01*
X130390795Y-78590723D01*
X130245845Y-78687576D01*
X130122576Y-78810845D01*
X130025723Y-78955795D01*
X129959010Y-79116855D01*
X129925000Y-79287835D01*
X127131967Y-79287835D01*
X127850287Y-78569516D01*
X127893145Y-78560991D01*
X128054205Y-78494278D01*
X128199155Y-78397425D01*
X128322424Y-78274156D01*
X128419277Y-78129206D01*
X128485990Y-77968146D01*
X128520000Y-77797166D01*
X128520000Y-77622836D01*
X128485990Y-77451856D01*
X128439244Y-77339000D01*
X128611165Y-77339000D01*
X128782145Y-77304990D01*
X128943205Y-77238277D01*
X128979538Y-77214000D01*
X130608462Y-77214000D01*
X130644795Y-77238277D01*
X130805855Y-77304990D01*
X130976835Y-77339000D01*
X131151165Y-77339000D01*
X131322145Y-77304990D01*
X131483205Y-77238277D01*
X131519538Y-77214000D01*
X133148462Y-77214000D01*
X133184795Y-77238277D01*
X133345855Y-77304990D01*
X133516835Y-77339000D01*
X133691165Y-77339000D01*
X133862145Y-77304990D01*
X134023205Y-77238277D01*
X134059538Y-77214000D01*
X135688462Y-77214000D01*
X135724795Y-77238277D01*
X135885855Y-77304990D01*
X136056835Y-77339000D01*
X136231165Y-77339000D01*
X136402145Y-77304990D01*
X136563205Y-77238277D01*
X136599538Y-77214000D01*
X138228462Y-77214000D01*
X138264795Y-77238277D01*
X138425855Y-77304990D01*
X138596835Y-77339000D01*
X138771165Y-77339000D01*
X138942145Y-77304990D01*
X139103205Y-77238277D01*
X139139538Y-77214000D01*
X140768462Y-77214000D01*
X140804795Y-77238277D01*
X140965855Y-77304990D01*
X141136835Y-77339000D01*
X141311165Y-77339000D01*
X141482145Y-77304990D01*
X141643205Y-77238277D01*
X141788155Y-77141424D01*
X141911424Y-77018155D01*
X142008277Y-76873205D01*
X142074990Y-76712145D01*
X142109000Y-76541165D01*
X142109000Y-76366835D01*
X142074990Y-76195855D01*
X142024102Y-76073000D01*
X142074990Y-75950145D01*
X142109000Y-75779165D01*
X142109000Y-75604835D01*
X142074990Y-75433855D01*
X142008277Y-75272795D01*
X141911424Y-75127845D01*
X141788155Y-75004576D01*
X141676545Y-74930000D01*
X141788155Y-74855424D01*
X141911424Y-74732155D01*
X142008277Y-74587205D01*
X142074990Y-74426145D01*
X142109000Y-74255165D01*
X142109000Y-74080835D01*
X142074990Y-73909855D01*
X142008277Y-73748795D01*
X141948946Y-73660000D01*
X142008277Y-73571205D01*
X142074990Y-73410145D01*
X142109000Y-73239165D01*
X142109000Y-73064835D01*
X142074990Y-72893855D01*
X142008277Y-72732795D01*
X141911424Y-72587845D01*
X141788155Y-72464576D01*
X141676545Y-72390000D01*
X141788155Y-72315424D01*
X141911424Y-72192155D01*
X142008277Y-72047205D01*
X142074990Y-71886145D01*
X142109000Y-71715165D01*
X142109000Y-71540835D01*
X142074990Y-71369855D01*
X142008277Y-71208795D01*
X141948946Y-71120000D01*
X142008277Y-71031205D01*
X142074990Y-70870145D01*
X142109000Y-70699165D01*
X142109000Y-70524835D01*
X142074990Y-70353855D01*
X142008277Y-70192795D01*
X141911424Y-70047845D01*
X141788155Y-69924576D01*
X141676545Y-69850000D01*
X141788155Y-69775424D01*
X141911424Y-69652155D01*
X142008277Y-69507205D01*
X142074990Y-69346145D01*
X142109000Y-69175165D01*
X142109000Y-69000835D01*
X142074990Y-68829855D01*
X142008277Y-68668795D01*
X141948946Y-68580000D01*
X142008277Y-68491205D01*
X142074990Y-68330145D01*
X142109000Y-68159165D01*
X142109000Y-67984835D01*
X142074990Y-67813855D01*
X142008277Y-67652795D01*
X141911424Y-67507845D01*
X141788155Y-67384576D01*
X141676545Y-67310000D01*
X141788155Y-67235424D01*
X141911424Y-67112155D01*
X142008277Y-66967205D01*
X142074990Y-66806145D01*
X142109000Y-66635165D01*
X142109000Y-66460835D01*
X142074990Y-66289855D01*
X142024102Y-66167000D01*
X142074990Y-66044145D01*
X142109000Y-65873165D01*
X142109000Y-65698835D01*
X142074990Y-65527855D01*
X142008277Y-65366795D01*
X141911424Y-65221845D01*
X141788155Y-65098576D01*
X141643205Y-65001723D01*
X141482145Y-64935010D01*
X141311165Y-64901000D01*
X141136835Y-64901000D01*
X140965855Y-64935010D01*
X140804795Y-65001723D01*
X140773173Y-65022852D01*
X139133242Y-65022852D01*
X139096909Y-64998575D01*
X138935849Y-64931862D01*
X138764869Y-64897852D01*
X138590539Y-64897852D01*
X138419559Y-64931862D01*
X138258499Y-64998575D01*
X138222166Y-65022852D01*
X136593242Y-65022852D01*
X136556909Y-64998575D01*
X136395849Y-64931862D01*
X136224869Y-64897852D01*
X136050539Y-64897852D01*
X135879559Y-64931862D01*
X135718499Y-64998575D01*
X135682166Y-65022852D01*
X134053242Y-65022852D01*
X134016909Y-64998575D01*
X133855849Y-64931862D01*
X133684869Y-64897852D01*
X133510539Y-64897852D01*
X133339559Y-64931862D01*
X133178499Y-64998575D01*
X133142166Y-65022852D01*
X131513242Y-65022852D01*
X131476909Y-64998575D01*
X131315849Y-64931862D01*
X131144869Y-64897852D01*
X130970539Y-64897852D01*
X130799559Y-64931862D01*
X130638499Y-64998575D01*
X130602166Y-65022852D01*
X128973242Y-65022852D01*
X128936909Y-64998575D01*
X128775849Y-64931862D01*
X128604869Y-64897852D01*
X128430539Y-64897852D01*
X128259559Y-64931862D01*
X128098499Y-64998575D01*
X128062166Y-65022852D01*
X126433242Y-65022852D01*
X126396909Y-64998575D01*
X126235849Y-64931862D01*
X126064869Y-64897852D01*
X125890539Y-64897852D01*
X125719559Y-64931862D01*
X125558499Y-64998575D01*
X125524411Y-65021352D01*
X123893995Y-65021352D01*
X123857662Y-64997075D01*
X123696602Y-64930362D01*
X123525622Y-64896352D01*
X123351292Y-64896352D01*
X123180312Y-64930362D01*
X123019252Y-64997075D01*
X122982919Y-65021352D01*
X121707970Y-65021352D01*
X121670648Y-65017676D01*
X121633325Y-65021352D01*
X121633315Y-65021352D01*
X121521662Y-65032349D01*
X121378401Y-65075806D01*
X121246371Y-65146378D01*
X121162731Y-65215020D01*
X121130647Y-65241351D01*
X121106849Y-65270350D01*
X120392998Y-65984201D01*
X120364000Y-66007999D01*
X120340202Y-66036997D01*
X120340201Y-66036998D01*
X120269026Y-66123724D01*
X120198454Y-66255754D01*
X120187361Y-66292324D01*
X120154997Y-66399014D01*
X120144000Y-66510667D01*
X120144000Y-66510678D01*
X120140324Y-66548000D01*
X120144000Y-66585322D01*
X120144000Y-66995197D01*
X118049199Y-69090000D01*
X110804802Y-69090000D01*
X110497011Y-68782210D01*
X110497011Y-68118333D01*
X110500687Y-68081010D01*
X110497011Y-68043687D01*
X110497011Y-68043678D01*
X110486014Y-67932025D01*
X110442557Y-67788764D01*
X110371985Y-67656735D01*
X110306547Y-67576998D01*
X110300810Y-67570007D01*
X110300806Y-67570003D01*
X110277012Y-67541010D01*
X110248020Y-67517217D01*
X109597000Y-66866198D01*
X109597000Y-66714835D01*
X109562990Y-66543855D01*
X109496277Y-66382795D01*
X109399424Y-66237845D01*
X109276155Y-66114576D01*
X109131205Y-66017723D01*
X108970145Y-65951010D01*
X108799165Y-65917000D01*
X108624835Y-65917000D01*
X108453855Y-65951010D01*
X108292795Y-66017723D01*
X108147845Y-66114576D01*
X108024576Y-66237845D01*
X107927723Y-66382795D01*
X107861010Y-66543855D01*
X107827000Y-66714835D01*
X97880827Y-66714835D01*
X97835990Y-66606589D01*
X97673475Y-66363368D01*
X97541620Y-66231513D01*
X97614180Y-66209502D01*
X97724494Y-66150537D01*
X97821185Y-66071185D01*
X97900537Y-65974494D01*
X97959502Y-65864180D01*
X97995812Y-65744482D01*
X98008072Y-65620000D01*
X98008072Y-63920000D01*
X97995812Y-63795518D01*
X97959502Y-63675820D01*
X97900537Y-63565506D01*
X97821185Y-63468815D01*
X97724494Y-63389463D01*
X97614180Y-63330498D01*
X97494482Y-63294188D01*
X97370000Y-63281928D01*
X95670000Y-63281928D01*
X95545518Y-63294188D01*
X95425820Y-63330498D01*
X95315506Y-63389463D01*
X95218815Y-63468815D01*
X95139463Y-63565506D01*
X95080498Y-63675820D01*
X95044188Y-63795518D01*
X95031928Y-63920000D01*
X94640000Y-63920000D01*
X94640000Y-62897277D01*
X94666815Y-62623796D01*
X94736867Y-62391774D01*
X94850650Y-62177778D01*
X95003832Y-61989959D01*
X95190577Y-61835470D01*
X95403769Y-61720199D01*
X95635300Y-61648528D01*
X95906725Y-61620000D01*
X151097723Y-61620000D01*
X151371204Y-61646815D01*
%TD*%
M02*
